<svg width="223" height="224" viewBox="0 0 223 224" fill="none" xmlns="http://www.w3.org/2000/svg">
<g filter="url(#filter0_ddddddd_318_727)">
<rect x="32" y="6" width="107" height="107" rx="22" fill="url(#paint0_linear_318_727)"/>
<rect x="32" y="6" width="107" height="107" rx="22" fill="url(#paint1_linear_318_727)"/>
<rect x="32" y="6" width="107" height="107" rx="22" fill="url(#paint2_linear_318_727)"/>
<rect x="32.75" y="6.75" width="105.5" height="105.5" rx="21.25" stroke="#F3F3F3" stroke-width="1.5"/>
</g>
<g opacity="0.05" filter="url(#filter1_f_318_727)">
<mask id="mask0_318_727" style="mask-type:alpha" maskUnits="userSpaceOnUse" x="127" y="91" width="48" height="48">
<path d="M144.674 112.006L145.669 105.398H139.814V100.795C139.814 98.9068 140.477 97.4907 143.128 97.4907H146V91.472C144.453 91.236 142.686 91 141.14 91C136.058 91 132.523 94.3043 132.523 100.205V105.398H127V112.006H132.523V128.646C133.738 128.882 134.953 129 136.169 129C137.384 129 138.599 128.882 139.814 128.646V112.006H144.674Z" fill="white"/>
</mask>
<g mask="url(#mask0_318_727)">
<g filter="url(#filter2_d_318_727)">
<rect x="127" y="91" width="47.9993" height="47.9981" fill="#1857D1"/>
</g>
</g>
</g>
<g opacity="0.1" filter="url(#filter3_f_318_727)">
<mask id="mask1_318_727" style="mask-type:alpha" maskUnits="userSpaceOnUse" x="123" y="87" width="48" height="48">
<path d="M140.674 108.006L141.669 101.398H135.814V96.795C135.814 94.9068 136.477 93.4907 139.128 93.4907H142V87.472C140.453 87.236 138.686 87 137.14 87C132.058 87 128.523 90.3043 128.523 96.205V101.398H123V108.006H128.523V124.646C129.738 124.882 130.953 125 132.169 125C133.384 125 134.599 124.882 135.814 124.646V108.006H140.674Z" fill="white"/>
</mask>
<g mask="url(#mask1_318_727)">
<g filter="url(#filter4_d_318_727)">
<rect x="123" y="87" width="47.9993" height="47.9981" fill="#1857D1"/>
</g>
</g>
</g>
<g opacity="0.15" filter="url(#filter5_f_318_727)">
<mask id="mask2_318_727" style="mask-type:alpha" maskUnits="userSpaceOnUse" x="119" y="83" width="48" height="48">
<path d="M136.674 104.006L137.669 97.3975H131.814V92.795C131.814 90.9068 132.477 89.4907 135.128 89.4907H138V83.472C136.453 83.236 134.686 83 133.14 83C128.058 83 124.523 86.3043 124.523 92.205V97.3975H119V104.006H124.523V120.646C125.738 120.882 126.953 121 128.169 121C129.384 121 130.599 120.882 131.814 120.646V104.006H136.674Z" fill="white"/>
</mask>
<g mask="url(#mask2_318_727)">
<g filter="url(#filter6_d_318_727)">
<rect x="119" y="83" width="47.9993" height="47.9981" fill="#1857D1"/>
</g>
</g>
</g>
<g opacity="0.2" filter="url(#filter7_f_318_727)">
<mask id="mask3_318_727" style="mask-type:alpha" maskUnits="userSpaceOnUse" x="115" y="79" width="48" height="48">
<path d="M132.674 100.006L133.669 93.3975H127.814V88.795C127.814 86.9068 128.477 85.4907 131.128 85.4907H134V79.472C132.453 79.236 130.686 79 129.14 79C124.058 79 120.523 82.3043 120.523 88.205V93.3975H115V100.006H120.523V116.646C121.738 116.882 122.953 117 124.169 117C125.384 117 126.599 116.882 127.814 116.646V100.006H132.674Z" fill="white"/>
</mask>
<g mask="url(#mask3_318_727)">
<g filter="url(#filter8_d_318_727)">
<rect x="115" y="79" width="47.9993" height="47.9981" fill="#1857D1"/>
</g>
</g>
</g>
<g opacity="0.25" filter="url(#filter9_f_318_727)">
<mask id="mask4_318_727" style="mask-type:alpha" maskUnits="userSpaceOnUse" x="107" y="71" width="48" height="48">
<path d="M124.674 92.0062L125.669 85.3975H119.814V80.795C119.814 78.9068 120.477 77.4907 123.128 77.4907H126V71.472C124.453 71.236 122.686 71 121.14 71C116.058 71 112.523 74.3043 112.523 80.205V85.3975H107V92.0062H112.523V108.646C113.738 108.882 114.953 109 116.169 109C117.384 109 118.599 108.882 119.814 108.646V92.0062H124.674Z" fill="white"/>
</mask>
<g mask="url(#mask4_318_727)">
<g filter="url(#filter10_d_318_727)">
<rect x="107" y="71" width="47.9993" height="47.9981" fill="#1857D1"/>
</g>
</g>
</g>
<g opacity="0.3" filter="url(#filter11_f_318_727)">
<mask id="mask5_318_727" style="mask-type:alpha" maskUnits="userSpaceOnUse" x="99" y="63" width="48" height="48">
<path d="M116.674 84.0062L117.669 77.3975H111.814V72.795C111.814 70.9068 112.477 69.4907 115.128 69.4907H118V63.472C116.453 63.236 114.686 63 113.14 63C108.058 63 104.523 66.3043 104.523 72.205V77.3975H99V84.0062H104.523V100.646C105.738 100.882 106.953 101 108.169 101C109.384 101 110.599 100.882 111.814 100.646V84.0062H116.674Z" fill="white"/>
</mask>
<g mask="url(#mask5_318_727)">
<g filter="url(#filter12_d_318_727)">
<rect x="99" y="63" width="47.9993" height="47.9981" fill="#1857D1"/>
</g>
</g>
</g>
<g opacity="0.35" filter="url(#filter13_f_318_727)">
<mask id="mask6_318_727" style="mask-type:alpha" maskUnits="userSpaceOnUse" x="91" y="55" width="48" height="48">
<path d="M108.674 76.0062L109.669 69.3975H103.814V64.795C103.814 62.9068 104.477 61.4907 107.128 61.4907H110V55.472C108.453 55.236 106.686 55 105.14 55C100.058 55 96.5233 58.3043 96.5233 64.205V69.3975H91V76.0062H96.5233V92.646C97.7384 92.882 98.9535 93 100.169 93C101.384 93 102.599 92.882 103.814 92.646V76.0062H108.674Z" fill="white"/>
</mask>
<g mask="url(#mask6_318_727)">
<g filter="url(#filter14_d_318_727)">
<rect x="91" y="55" width="47.9993" height="47.9981" fill="#1857D1"/>
</g>
</g>
</g>
<g opacity="0.4" filter="url(#filter15_f_318_727)">
<mask id="mask7_318_727" style="mask-type:alpha" maskUnits="userSpaceOnUse" x="90" y="54" width="48" height="48">
<path d="M107.674 75.0062L108.669 68.3975H102.814V63.795C102.814 61.9068 103.477 60.4907 106.128 60.4907H109V54.472C107.453 54.236 105.686 54 104.14 54C99.0581 54 95.5233 57.3043 95.5233 63.205V68.3975H90V75.0062H95.5233V91.646C96.7384 91.882 97.9535 92 99.1686 92C100.384 92 101.599 91.882 102.814 91.646V75.0062H107.674Z" fill="white"/>
</mask>
<g mask="url(#mask7_318_727)">
<g filter="url(#filter16_d_318_727)">
<rect x="90" y="54" width="47.9993" height="47.9981" fill="#1857D1"/>
</g>
</g>
</g>
<g opacity="0.45" filter="url(#filter17_f_318_727)">
<mask id="mask8_318_727" style="mask-type:alpha" maskUnits="userSpaceOnUse" x="86" y="50" width="48" height="48">
<path d="M103.674 71.0062L104.669 64.3975H98.814V59.795C98.814 57.9068 99.4767 56.4907 102.128 56.4907H105V50.472C103.453 50.236 101.686 50 100.14 50C95.0581 50 91.5233 53.3043 91.5233 59.205V64.3975H86V71.0062H91.5233V87.646C92.7384 87.882 93.9535 88 95.1686 88C96.3837 88 97.5988 87.882 98.814 87.646V71.0062H103.674Z" fill="white"/>
</mask>
<g mask="url(#mask8_318_727)">
<g filter="url(#filter18_d_318_727)">
<rect x="86" y="50" width="47.9993" height="47.9981" fill="#1857D1"/>
</g>
</g>
</g>
<g opacity="0.5" filter="url(#filter19_f_318_727)">
<mask id="mask9_318_727" style="mask-type:alpha" maskUnits="userSpaceOnUse" x="82" y="46" width="48" height="48">
<path d="M99.6744 67.0062L100.669 60.3975H94.814V55.795C94.814 53.9068 95.4767 52.4907 98.1279 52.4907H101V46.472C99.4535 46.236 97.686 46 96.1395 46C91.0581 46 87.5233 49.3043 87.5233 55.205V60.3975H82V67.0062H87.5233V83.646C88.7384 83.882 89.9535 84 91.1686 84C92.3837 84 93.5988 83.882 94.814 83.646V67.0062H99.6744Z" fill="white"/>
</mask>
<g mask="url(#mask9_318_727)">
<g filter="url(#filter20_d_318_727)">
<rect x="82" y="46" width="47.9993" height="47.9981" fill="#1857D1"/>
</g>
</g>
</g>
<g opacity="0.55" filter="url(#filter21_f_318_727)">
<mask id="mask10_318_727" style="mask-type:alpha" maskUnits="userSpaceOnUse" x="80" y="44" width="48" height="48">
<path d="M97.6744 65.0062L98.6686 58.3975H92.814V53.795C92.814 51.9068 93.4767 50.4907 96.1279 50.4907H99V44.472C97.4535 44.236 95.686 44 94.1395 44C89.0581 44 85.5233 47.3043 85.5233 53.205V58.3975H80V65.0062H85.5233V81.646C86.7384 81.882 87.9535 82 89.1686 82C90.3837 82 91.5988 81.882 92.814 81.646V65.0062H97.6744Z" fill="white"/>
</mask>
<g mask="url(#mask10_318_727)">
<g filter="url(#filter22_d_318_727)">
<rect x="80" y="44" width="47.9993" height="47.9981" fill="#1857D1"/>
</g>
</g>
</g>
<g opacity="0.6" filter="url(#filter23_f_318_727)">
<mask id="mask11_318_727" style="mask-type:alpha" maskUnits="userSpaceOnUse" x="78" y="42" width="48" height="48">
<path d="M95.6744 63.0062L96.6686 56.3975H90.814V51.795C90.814 49.9068 91.4767 48.4907 94.1279 48.4907H97V42.472C95.4535 42.236 93.686 42 92.1395 42C87.0581 42 83.5233 45.3043 83.5233 51.205V56.3975H78V63.0062H83.5233V79.646C84.7384 79.882 85.9535 80 87.1686 80C88.3837 80 89.5988 79.882 90.814 79.646V63.0062H95.6744Z" fill="white"/>
</mask>
<g mask="url(#mask11_318_727)">
<g filter="url(#filter24_d_318_727)">
<rect x="78" y="42" width="47.9993" height="47.9981" fill="#1857D1"/>
</g>
</g>
</g>
<g opacity="0.6" filter="url(#filter25_f_318_727)">
<mask id="mask12_318_727" style="mask-type:alpha" maskUnits="userSpaceOnUse" x="77" y="41" width="48" height="48">
<path d="M94.6744 62.0062L95.6686 55.3975H89.814V50.795C89.814 48.9068 90.4767 47.4907 93.1279 47.4907H96V41.472C94.4535 41.236 92.686 41 91.1395 41C86.0581 41 82.5233 44.3043 82.5233 50.205V55.3975H77V62.0062H82.5233V78.646C83.7384 78.882 84.9535 79 86.1686 79C87.3837 79 88.5988 78.882 89.814 78.646V62.0062H94.6744Z" fill="white"/>
</mask>
<g mask="url(#mask12_318_727)">
<g filter="url(#filter26_d_318_727)">
<rect x="77" y="41" width="47.9993" height="47.9981" fill="#1857D1"/>
</g>
</g>
</g>
<g opacity="0.6" filter="url(#filter27_f_318_727)">
<mask id="mask13_318_727" style="mask-type:alpha" maskUnits="userSpaceOnUse" x="76" y="40" width="48" height="48">
<path d="M93.6744 61.0062L94.6686 54.3975H88.814V49.795C88.814 47.9068 89.4767 46.4907 92.1279 46.4907H95V40.472C93.4535 40.236 91.686 40 90.1395 40C85.0581 40 81.5233 43.3043 81.5233 49.205V54.3975H76V61.0062H81.5233V77.646C82.7384 77.882 83.9535 78 85.1686 78C86.3837 78 87.5988 77.882 88.814 77.646V61.0062H93.6744Z" fill="white"/>
</mask>
<g mask="url(#mask13_318_727)">
<g filter="url(#filter28_d_318_727)">
<rect x="76" y="40" width="47.9993" height="47.9981" fill="#1857D1"/>
</g>
</g>
</g>
<g opacity="0.6" filter="url(#filter29_f_318_727)">
<mask id="mask14_318_727" style="mask-type:alpha" maskUnits="userSpaceOnUse" x="75" y="39" width="49" height="49">
<path d="M93.1744 60.5062L94.1686 53.8975H88.314V49.295C88.314 47.4068 88.9767 45.9907 91.6279 45.9907H94.5V39.972C92.9535 39.736 91.186 39.5 89.6395 39.5C84.5581 39.5 81.0233 42.8043 81.0233 48.705V53.8975H75.5V60.5062H81.0233V77.146C82.2384 77.382 83.4535 77.5 84.6686 77.5C85.8837 77.5 87.0988 77.382 88.314 77.146V60.5062H93.1744Z" fill="white"/>
</mask>
<g mask="url(#mask14_318_727)">
<g filter="url(#filter30_d_318_727)">
<rect x="75.5" y="39.5" width="47.9993" height="47.9981" fill="#1857D1"/>
</g>
</g>
</g>
<g filter="url(#filter31_ii_318_727)">
<mask id="mask15_318_727" style="mask-type:alpha" maskUnits="userSpaceOnUse" x="75" y="39" width="48" height="48">
<path d="M92.6744 60.0062L93.6686 53.3975H87.814V48.795C87.814 46.9068 88.4767 45.4907 91.1279 45.4907H94V39.472C92.4535 39.236 90.686 39 89.1395 39C84.0581 39 80.5233 42.3043 80.5233 48.205V53.3975H75V60.0062H80.5233V76.646C81.7384 76.882 82.9535 77 84.1686 77C85.3837 77 86.5988 76.882 87.814 76.646V60.0062H92.6744Z" fill="white"/>
</mask>
<g mask="url(#mask15_318_727)">
<rect x="75" y="39" width="47.9993" height="47.9981" fill="url(#paint3_linear_318_727)"/>
</g>
</g>
<defs>
<filter id="filter0_ddddddd_318_727" x="0" y="0" width="171" height="224" filterUnits="userSpaceOnUse" color-interpolation-filters="sRGB">
<feFlood flood-opacity="0" result="BackgroundImageFix"/>
<feColorMatrix in="SourceAlpha" type="matrix" values="0 0 0 0 0 0 0 0 0 0 0 0 0 0 0 0 0 0 127 0" result="hardAlpha"/>
<feOffset dy="5"/>
<feGaussianBlur stdDeviation="5.5"/>
<feColorMatrix type="matrix" values="0 0 0 0 0 0 0 0 0 0 0 0 0 0 0 0 0 0 0.1 0"/>
<feBlend mode="normal" in2="BackgroundImageFix" result="effect1_dropShadow_318_727"/>
<feColorMatrix in="SourceAlpha" type="matrix" values="0 0 0 0 0 0 0 0 0 0 0 0 0 0 0 0 0 0 127 0" result="hardAlpha"/>
<feOffset dy="20"/>
<feGaussianBlur stdDeviation="10"/>
<feColorMatrix type="matrix" values="0 0 0 0 0 0 0 0 0 0 0 0 0 0 0 0 0 0 0.09 0"/>
<feBlend mode="normal" in2="effect1_dropShadow_318_727" result="effect2_dropShadow_318_727"/>
<feColorMatrix in="SourceAlpha" type="matrix" values="0 0 0 0 0 0 0 0 0 0 0 0 0 0 0 0 0 0 127 0" result="hardAlpha"/>
<feOffset dy="44"/>
<feGaussianBlur stdDeviation="13.5"/>
<feColorMatrix type="matrix" values="0 0 0 0 0 0 0 0 0 0 0 0 0 0 0 0 0 0 0.05 0"/>
<feBlend mode="normal" in2="effect2_dropShadow_318_727" result="effect3_dropShadow_318_727"/>
<feColorMatrix in="SourceAlpha" type="matrix" values="0 0 0 0 0 0 0 0 0 0 0 0 0 0 0 0 0 0 127 0" result="hardAlpha"/>
<feOffset dy="79"/>
<feGaussianBlur stdDeviation="16"/>
<feColorMatrix type="matrix" values="0 0 0 0 0 0 0 0 0 0 0 0 0 0 0 0 0 0 0.01 0"/>
<feBlend mode="normal" in2="effect3_dropShadow_318_727" result="effect4_dropShadow_318_727"/>
<feColorMatrix in="SourceAlpha" type="matrix" values="0 0 0 0 0 0 0 0 0 0 0 0 0 0 0 0 0 0 127 0" result="hardAlpha"/>
<feOffset dy="5"/>
<feGaussianBlur stdDeviation="5.5"/>
<feColorMatrix type="matrix" values="0 0 0 0 0 0 0 0 0 0 0 0 0 0 0 0 0 0 0.1 0"/>
<feBlend mode="normal" in2="effect4_dropShadow_318_727" result="effect5_dropShadow_318_727"/>
<feColorMatrix in="SourceAlpha" type="matrix" values="0 0 0 0 0 0 0 0 0 0 0 0 0 0 0 0 0 0 127 0" result="hardAlpha"/>
<feOffset dy="20"/>
<feGaussianBlur stdDeviation="10"/>
<feColorMatrix type="matrix" values="0 0 0 0 0 0 0 0 0 0 0 0 0 0 0 0 0 0 0.09 0"/>
<feBlend mode="normal" in2="effect5_dropShadow_318_727" result="effect6_dropShadow_318_727"/>
<feColorMatrix in="SourceAlpha" type="matrix" values="0 0 0 0 0 0 0 0 0 0 0 0 0 0 0 0 0 0 127 0" result="hardAlpha"/>
<feOffset dy="44"/>
<feGaussianBlur stdDeviation="13.5"/>
<feColorMatrix type="matrix" values="0 0 0 0 0 0 0 0 0 0 0 0 0 0 0 0 0 0 0.05 0"/>
<feBlend mode="normal" in2="effect6_dropShadow_318_727" result="effect7_dropShadow_318_727"/>
<feBlend mode="normal" in="SourceGraphic" in2="effect7_dropShadow_318_727" result="shape"/>
</filter>
<filter id="filter1_f_318_727" x="79" y="43" width="144" height="144" filterUnits="userSpaceOnUse" color-interpolation-filters="sRGB">
<feFlood flood-opacity="0" result="BackgroundImageFix"/>
<feBlend mode="normal" in="SourceGraphic" in2="BackgroundImageFix" result="shape"/>
<feGaussianBlur stdDeviation="24" result="effect1_foregroundBlur_318_727"/>
</filter>
<filter id="filter2_d_318_727" x="123" y="91" width="55.9995" height="55.9982" filterUnits="userSpaceOnUse" color-interpolation-filters="sRGB">
<feFlood flood-opacity="0" result="BackgroundImageFix"/>
<feColorMatrix in="SourceAlpha" type="matrix" values="0 0 0 0 0 0 0 0 0 0 0 0 0 0 0 0 0 0 127 0" result="hardAlpha"/>
<feOffset dy="4"/>
<feGaussianBlur stdDeviation="2"/>
<feComposite in2="hardAlpha" operator="out"/>
<feColorMatrix type="matrix" values="0 0 0 0 0 0 0 0 0 0 0 0 0 0 0 0 0 0 0.25 0"/>
<feBlend mode="normal" in2="BackgroundImageFix" result="effect1_dropShadow_318_727"/>
<feBlend mode="normal" in="SourceGraphic" in2="effect1_dropShadow_318_727" result="shape"/>
</filter>
<filter id="filter3_f_318_727" x="79" y="43" width="136" height="136" filterUnits="userSpaceOnUse" color-interpolation-filters="sRGB">
<feFlood flood-opacity="0" result="BackgroundImageFix"/>
<feBlend mode="normal" in="SourceGraphic" in2="BackgroundImageFix" result="shape"/>
<feGaussianBlur stdDeviation="22" result="effect1_foregroundBlur_318_727"/>
</filter>
<filter id="filter4_d_318_727" x="119" y="87" width="55.9995" height="55.9982" filterUnits="userSpaceOnUse" color-interpolation-filters="sRGB">
<feFlood flood-opacity="0" result="BackgroundImageFix"/>
<feColorMatrix in="SourceAlpha" type="matrix" values="0 0 0 0 0 0 0 0 0 0 0 0 0 0 0 0 0 0 127 0" result="hardAlpha"/>
<feOffset dy="4"/>
<feGaussianBlur stdDeviation="2"/>
<feComposite in2="hardAlpha" operator="out"/>
<feColorMatrix type="matrix" values="0 0 0 0 0 0 0 0 0 0 0 0 0 0 0 0 0 0 0.25 0"/>
<feBlend mode="normal" in2="BackgroundImageFix" result="effect1_dropShadow_318_727"/>
<feBlend mode="normal" in="SourceGraphic" in2="effect1_dropShadow_318_727" result="shape"/>
</filter>
<filter id="filter5_f_318_727" x="79" y="43" width="128" height="128" filterUnits="userSpaceOnUse" color-interpolation-filters="sRGB">
<feFlood flood-opacity="0" result="BackgroundImageFix"/>
<feBlend mode="normal" in="SourceGraphic" in2="BackgroundImageFix" result="shape"/>
<feGaussianBlur stdDeviation="20" result="effect1_foregroundBlur_318_727"/>
</filter>
<filter id="filter6_d_318_727" x="115" y="83" width="55.9995" height="55.9982" filterUnits="userSpaceOnUse" color-interpolation-filters="sRGB">
<feFlood flood-opacity="0" result="BackgroundImageFix"/>
<feColorMatrix in="SourceAlpha" type="matrix" values="0 0 0 0 0 0 0 0 0 0 0 0 0 0 0 0 0 0 127 0" result="hardAlpha"/>
<feOffset dy="4"/>
<feGaussianBlur stdDeviation="2"/>
<feComposite in2="hardAlpha" operator="out"/>
<feColorMatrix type="matrix" values="0 0 0 0 0 0 0 0 0 0 0 0 0 0 0 0 0 0 0.25 0"/>
<feBlend mode="normal" in2="BackgroundImageFix" result="effect1_dropShadow_318_727"/>
<feBlend mode="normal" in="SourceGraphic" in2="effect1_dropShadow_318_727" result="shape"/>
</filter>
<filter id="filter7_f_318_727" x="75" y="39" width="128" height="128" filterUnits="userSpaceOnUse" color-interpolation-filters="sRGB">
<feFlood flood-opacity="0" result="BackgroundImageFix"/>
<feBlend mode="normal" in="SourceGraphic" in2="BackgroundImageFix" result="shape"/>
<feGaussianBlur stdDeviation="20" result="effect1_foregroundBlur_318_727"/>
</filter>
<filter id="filter8_d_318_727" x="111" y="79" width="55.9995" height="55.9982" filterUnits="userSpaceOnUse" color-interpolation-filters="sRGB">
<feFlood flood-opacity="0" result="BackgroundImageFix"/>
<feColorMatrix in="SourceAlpha" type="matrix" values="0 0 0 0 0 0 0 0 0 0 0 0 0 0 0 0 0 0 127 0" result="hardAlpha"/>
<feOffset dy="4"/>
<feGaussianBlur stdDeviation="2"/>
<feComposite in2="hardAlpha" operator="out"/>
<feColorMatrix type="matrix" values="0 0 0 0 0 0 0 0 0 0 0 0 0 0 0 0 0 0 0.25 0"/>
<feBlend mode="normal" in2="BackgroundImageFix" result="effect1_dropShadow_318_727"/>
<feBlend mode="normal" in="SourceGraphic" in2="effect1_dropShadow_318_727" result="shape"/>
</filter>
<filter id="filter9_f_318_727" x="75" y="39" width="112" height="112" filterUnits="userSpaceOnUse" color-interpolation-filters="sRGB">
<feFlood flood-opacity="0" result="BackgroundImageFix"/>
<feBlend mode="normal" in="SourceGraphic" in2="BackgroundImageFix" result="shape"/>
<feGaussianBlur stdDeviation="16" result="effect1_foregroundBlur_318_727"/>
</filter>
<filter id="filter10_d_318_727" x="103" y="71" width="55.9995" height="55.9982" filterUnits="userSpaceOnUse" color-interpolation-filters="sRGB">
<feFlood flood-opacity="0" result="BackgroundImageFix"/>
<feColorMatrix in="SourceAlpha" type="matrix" values="0 0 0 0 0 0 0 0 0 0 0 0 0 0 0 0 0 0 127 0" result="hardAlpha"/>
<feOffset dy="4"/>
<feGaussianBlur stdDeviation="2"/>
<feComposite in2="hardAlpha" operator="out"/>
<feColorMatrix type="matrix" values="0 0 0 0 0 0 0 0 0 0 0 0 0 0 0 0 0 0 0.25 0"/>
<feBlend mode="normal" in2="BackgroundImageFix" result="effect1_dropShadow_318_727"/>
<feBlend mode="normal" in="SourceGraphic" in2="effect1_dropShadow_318_727" result="shape"/>
</filter>
<filter id="filter11_f_318_727" x="71" y="35" width="104" height="104" filterUnits="userSpaceOnUse" color-interpolation-filters="sRGB">
<feFlood flood-opacity="0" result="BackgroundImageFix"/>
<feBlend mode="normal" in="SourceGraphic" in2="BackgroundImageFix" result="shape"/>
<feGaussianBlur stdDeviation="14" result="effect1_foregroundBlur_318_727"/>
</filter>
<filter id="filter12_d_318_727" x="95" y="63" width="55.9995" height="55.9982" filterUnits="userSpaceOnUse" color-interpolation-filters="sRGB">
<feFlood flood-opacity="0" result="BackgroundImageFix"/>
<feColorMatrix in="SourceAlpha" type="matrix" values="0 0 0 0 0 0 0 0 0 0 0 0 0 0 0 0 0 0 127 0" result="hardAlpha"/>
<feOffset dy="4"/>
<feGaussianBlur stdDeviation="2"/>
<feComposite in2="hardAlpha" operator="out"/>
<feColorMatrix type="matrix" values="0 0 0 0 0 0 0 0 0 0 0 0 0 0 0 0 0 0 0.25 0"/>
<feBlend mode="normal" in2="BackgroundImageFix" result="effect1_dropShadow_318_727"/>
<feBlend mode="normal" in="SourceGraphic" in2="effect1_dropShadow_318_727" result="shape"/>
</filter>
<filter id="filter13_f_318_727" x="67" y="31" width="96" height="96" filterUnits="userSpaceOnUse" color-interpolation-filters="sRGB">
<feFlood flood-opacity="0" result="BackgroundImageFix"/>
<feBlend mode="normal" in="SourceGraphic" in2="BackgroundImageFix" result="shape"/>
<feGaussianBlur stdDeviation="12" result="effect1_foregroundBlur_318_727"/>
</filter>
<filter id="filter14_d_318_727" x="87" y="55" width="55.9995" height="55.9982" filterUnits="userSpaceOnUse" color-interpolation-filters="sRGB">
<feFlood flood-opacity="0" result="BackgroundImageFix"/>
<feColorMatrix in="SourceAlpha" type="matrix" values="0 0 0 0 0 0 0 0 0 0 0 0 0 0 0 0 0 0 127 0" result="hardAlpha"/>
<feOffset dy="4"/>
<feGaussianBlur stdDeviation="2"/>
<feComposite in2="hardAlpha" operator="out"/>
<feColorMatrix type="matrix" values="0 0 0 0 0 0 0 0 0 0 0 0 0 0 0 0 0 0 0.25 0"/>
<feBlend mode="normal" in2="BackgroundImageFix" result="effect1_dropShadow_318_727"/>
<feBlend mode="normal" in="SourceGraphic" in2="effect1_dropShadow_318_727" result="shape"/>
</filter>
<filter id="filter15_f_318_727" x="66" y="30" width="96" height="96" filterUnits="userSpaceOnUse" color-interpolation-filters="sRGB">
<feFlood flood-opacity="0" result="BackgroundImageFix"/>
<feBlend mode="normal" in="SourceGraphic" in2="BackgroundImageFix" result="shape"/>
<feGaussianBlur stdDeviation="12" result="effect1_foregroundBlur_318_727"/>
</filter>
<filter id="filter16_d_318_727" x="86" y="54" width="55.9995" height="55.9982" filterUnits="userSpaceOnUse" color-interpolation-filters="sRGB">
<feFlood flood-opacity="0" result="BackgroundImageFix"/>
<feColorMatrix in="SourceAlpha" type="matrix" values="0 0 0 0 0 0 0 0 0 0 0 0 0 0 0 0 0 0 127 0" result="hardAlpha"/>
<feOffset dy="4"/>
<feGaussianBlur stdDeviation="2"/>
<feComposite in2="hardAlpha" operator="out"/>
<feColorMatrix type="matrix" values="0 0 0 0 0 0 0 0 0 0 0 0 0 0 0 0 0 0 0.25 0"/>
<feBlend mode="normal" in2="BackgroundImageFix" result="effect1_dropShadow_318_727"/>
<feBlend mode="normal" in="SourceGraphic" in2="effect1_dropShadow_318_727" result="shape"/>
</filter>
<filter id="filter17_f_318_727" x="70" y="34" width="80" height="80" filterUnits="userSpaceOnUse" color-interpolation-filters="sRGB">
<feFlood flood-opacity="0" result="BackgroundImageFix"/>
<feBlend mode="normal" in="SourceGraphic" in2="BackgroundImageFix" result="shape"/>
<feGaussianBlur stdDeviation="8" result="effect1_foregroundBlur_318_727"/>
</filter>
<filter id="filter18_d_318_727" x="82" y="50" width="55.9995" height="55.9982" filterUnits="userSpaceOnUse" color-interpolation-filters="sRGB">
<feFlood flood-opacity="0" result="BackgroundImageFix"/>
<feColorMatrix in="SourceAlpha" type="matrix" values="0 0 0 0 0 0 0 0 0 0 0 0 0 0 0 0 0 0 127 0" result="hardAlpha"/>
<feOffset dy="4"/>
<feGaussianBlur stdDeviation="2"/>
<feComposite in2="hardAlpha" operator="out"/>
<feColorMatrix type="matrix" values="0 0 0 0 0 0 0 0 0 0 0 0 0 0 0 0 0 0 0.25 0"/>
<feBlend mode="normal" in2="BackgroundImageFix" result="effect1_dropShadow_318_727"/>
<feBlend mode="normal" in="SourceGraphic" in2="effect1_dropShadow_318_727" result="shape"/>
</filter>
<filter id="filter19_f_318_727" x="72" y="36" width="68" height="68" filterUnits="userSpaceOnUse" color-interpolation-filters="sRGB">
<feFlood flood-opacity="0" result="BackgroundImageFix"/>
<feBlend mode="normal" in="SourceGraphic" in2="BackgroundImageFix" result="shape"/>
<feGaussianBlur stdDeviation="5" result="effect1_foregroundBlur_318_727"/>
</filter>
<filter id="filter20_d_318_727" x="78" y="46" width="55.9995" height="55.9982" filterUnits="userSpaceOnUse" color-interpolation-filters="sRGB">
<feFlood flood-opacity="0" result="BackgroundImageFix"/>
<feColorMatrix in="SourceAlpha" type="matrix" values="0 0 0 0 0 0 0 0 0 0 0 0 0 0 0 0 0 0 127 0" result="hardAlpha"/>
<feOffset dy="4"/>
<feGaussianBlur stdDeviation="2"/>
<feComposite in2="hardAlpha" operator="out"/>
<feColorMatrix type="matrix" values="0 0 0 0 0 0 0 0 0 0 0 0 0 0 0 0 0 0 0.25 0"/>
<feBlend mode="normal" in2="BackgroundImageFix" result="effect1_dropShadow_318_727"/>
<feBlend mode="normal" in="SourceGraphic" in2="effect1_dropShadow_318_727" result="shape"/>
</filter>
<filter id="filter21_f_318_727" x="74" y="38" width="60" height="60" filterUnits="userSpaceOnUse" color-interpolation-filters="sRGB">
<feFlood flood-opacity="0" result="BackgroundImageFix"/>
<feBlend mode="normal" in="SourceGraphic" in2="BackgroundImageFix" result="shape"/>
<feGaussianBlur stdDeviation="3" result="effect1_foregroundBlur_318_727"/>
</filter>
<filter id="filter22_d_318_727" x="76" y="44" width="55.9995" height="55.9982" filterUnits="userSpaceOnUse" color-interpolation-filters="sRGB">
<feFlood flood-opacity="0" result="BackgroundImageFix"/>
<feColorMatrix in="SourceAlpha" type="matrix" values="0 0 0 0 0 0 0 0 0 0 0 0 0 0 0 0 0 0 127 0" result="hardAlpha"/>
<feOffset dy="4"/>
<feGaussianBlur stdDeviation="2"/>
<feComposite in2="hardAlpha" operator="out"/>
<feColorMatrix type="matrix" values="0 0 0 0 0 0 0 0 0 0 0 0 0 0 0 0 0 0 0.25 0"/>
<feBlend mode="normal" in2="BackgroundImageFix" result="effect1_dropShadow_318_727"/>
<feBlend mode="normal" in="SourceGraphic" in2="effect1_dropShadow_318_727" result="shape"/>
</filter>
<filter id="filter23_f_318_727" x="74" y="38" width="56" height="56" filterUnits="userSpaceOnUse" color-interpolation-filters="sRGB">
<feFlood flood-opacity="0" result="BackgroundImageFix"/>
<feBlend mode="normal" in="SourceGraphic" in2="BackgroundImageFix" result="shape"/>
<feGaussianBlur stdDeviation="2" result="effect1_foregroundBlur_318_727"/>
</filter>
<filter id="filter24_d_318_727" x="74" y="42" width="55.9995" height="55.9982" filterUnits="userSpaceOnUse" color-interpolation-filters="sRGB">
<feFlood flood-opacity="0" result="BackgroundImageFix"/>
<feColorMatrix in="SourceAlpha" type="matrix" values="0 0 0 0 0 0 0 0 0 0 0 0 0 0 0 0 0 0 127 0" result="hardAlpha"/>
<feOffset dy="4"/>
<feGaussianBlur stdDeviation="2"/>
<feComposite in2="hardAlpha" operator="out"/>
<feColorMatrix type="matrix" values="0 0 0 0 0 0 0 0 0 0 0 0 0 0 0 0 0 0 0.25 0"/>
<feBlend mode="normal" in2="BackgroundImageFix" result="effect1_dropShadow_318_727"/>
<feBlend mode="normal" in="SourceGraphic" in2="effect1_dropShadow_318_727" result="shape"/>
</filter>
<filter id="filter25_f_318_727" x="74" y="38" width="54" height="54" filterUnits="userSpaceOnUse" color-interpolation-filters="sRGB">
<feFlood flood-opacity="0" result="BackgroundImageFix"/>
<feBlend mode="normal" in="SourceGraphic" in2="BackgroundImageFix" result="shape"/>
<feGaussianBlur stdDeviation="1.5" result="effect1_foregroundBlur_318_727"/>
</filter>
<filter id="filter26_d_318_727" x="73" y="41" width="55.9995" height="55.9982" filterUnits="userSpaceOnUse" color-interpolation-filters="sRGB">
<feFlood flood-opacity="0" result="BackgroundImageFix"/>
<feColorMatrix in="SourceAlpha" type="matrix" values="0 0 0 0 0 0 0 0 0 0 0 0 0 0 0 0 0 0 127 0" result="hardAlpha"/>
<feOffset dy="4"/>
<feGaussianBlur stdDeviation="2"/>
<feComposite in2="hardAlpha" operator="out"/>
<feColorMatrix type="matrix" values="0 0 0 0 0 0 0 0 0 0 0 0 0 0 0 0 0 0 0.25 0"/>
<feBlend mode="normal" in2="BackgroundImageFix" result="effect1_dropShadow_318_727"/>
<feBlend mode="normal" in="SourceGraphic" in2="effect1_dropShadow_318_727" result="shape"/>
</filter>
<filter id="filter27_f_318_727" x="74" y="38" width="52" height="52" filterUnits="userSpaceOnUse" color-interpolation-filters="sRGB">
<feFlood flood-opacity="0" result="BackgroundImageFix"/>
<feBlend mode="normal" in="SourceGraphic" in2="BackgroundImageFix" result="shape"/>
<feGaussianBlur stdDeviation="1" result="effect1_foregroundBlur_318_727"/>
</filter>
<filter id="filter28_d_318_727" x="72" y="40" width="55.9995" height="55.9982" filterUnits="userSpaceOnUse" color-interpolation-filters="sRGB">
<feFlood flood-opacity="0" result="BackgroundImageFix"/>
<feColorMatrix in="SourceAlpha" type="matrix" values="0 0 0 0 0 0 0 0 0 0 0 0 0 0 0 0 0 0 127 0" result="hardAlpha"/>
<feOffset dy="4"/>
<feGaussianBlur stdDeviation="2"/>
<feComposite in2="hardAlpha" operator="out"/>
<feColorMatrix type="matrix" values="0 0 0 0 0 0 0 0 0 0 0 0 0 0 0 0 0 0 0.25 0"/>
<feBlend mode="normal" in2="BackgroundImageFix" result="effect1_dropShadow_318_727"/>
<feBlend mode="normal" in="SourceGraphic" in2="effect1_dropShadow_318_727" result="shape"/>
</filter>
<filter id="filter29_f_318_727" x="74.5" y="38.5" width="50" height="50" filterUnits="userSpaceOnUse" color-interpolation-filters="sRGB">
<feFlood flood-opacity="0" result="BackgroundImageFix"/>
<feBlend mode="normal" in="SourceGraphic" in2="BackgroundImageFix" result="shape"/>
<feGaussianBlur stdDeviation="0.5" result="effect1_foregroundBlur_318_727"/>
</filter>
<filter id="filter30_d_318_727" x="71.5" y="39.5" width="55.9995" height="55.9982" filterUnits="userSpaceOnUse" color-interpolation-filters="sRGB">
<feFlood flood-opacity="0" result="BackgroundImageFix"/>
<feColorMatrix in="SourceAlpha" type="matrix" values="0 0 0 0 0 0 0 0 0 0 0 0 0 0 0 0 0 0 127 0" result="hardAlpha"/>
<feOffset dy="4"/>
<feGaussianBlur stdDeviation="2"/>
<feComposite in2="hardAlpha" operator="out"/>
<feColorMatrix type="matrix" values="0 0 0 0 0 0 0 0 0 0 0 0 0 0 0 0 0 0 0.25 0"/>
<feBlend mode="normal" in2="BackgroundImageFix" result="effect1_dropShadow_318_727"/>
<feBlend mode="normal" in="SourceGraphic" in2="effect1_dropShadow_318_727" result="shape"/>
</filter>
<filter id="filter31_ii_318_727" x="74.5" y="38" width="49.5" height="50" filterUnits="userSpaceOnUse" color-interpolation-filters="sRGB">
<feFlood flood-opacity="0" result="BackgroundImageFix"/>
<feBlend mode="normal" in="SourceGraphic" in2="BackgroundImageFix" result="shape"/>
<feColorMatrix in="SourceAlpha" type="matrix" values="0 0 0 0 0 0 0 0 0 0 0 0 0 0 0 0 0 0 127 0" result="hardAlpha"/>
<feOffset dx="-0.5" dy="-1"/>
<feGaussianBlur stdDeviation="0.5"/>
<feComposite in2="hardAlpha" operator="arithmetic" k2="-1" k3="1"/>
<feColorMatrix type="matrix" values="0 0 0 0 0.278437 0 0 0 0 0.609329 0 0 0 0 0.825 0 0 0 1 0"/>
<feBlend mode="normal" in2="shape" result="effect1_innerShadow_318_727"/>
<feColorMatrix in="SourceAlpha" type="matrix" values="0 0 0 0 0 0 0 0 0 0 0 0 0 0 0 0 0 0 127 0" result="hardAlpha"/>
<feOffset dx="1" dy="1"/>
<feGaussianBlur stdDeviation="0.5"/>
<feComposite in2="hardAlpha" operator="arithmetic" k2="-1" k3="1"/>
<feColorMatrix type="matrix" values="0 0 0 0 1 0 0 0 0 1 0 0 0 0 1 0 0 0 1 0"/>
<feBlend mode="soft-light" in2="effect1_innerShadow_318_727" result="effect2_innerShadow_318_727"/>
</filter>
<linearGradient id="paint0_linear_318_727" x1="50.5" y1="11" x2="116.5" y2="113" gradientUnits="userSpaceOnUse">
<stop stop-color="#FBFBFB"/>
<stop offset="1" stop-color="#E8E8E8"/>
</linearGradient>
<linearGradient id="paint1_linear_318_727" x1="85.5" y1="6" x2="85.5" y2="113" gradientUnits="userSpaceOnUse">
<stop stop-color="#6F7AFC"/>
<stop offset="1" stop-color="#4554EE"/>
</linearGradient>
<linearGradient id="paint2_linear_318_727" x1="85.5" y1="6" x2="85.5" y2="113" gradientUnits="userSpaceOnUse">
<stop stop-color="#35A5EE"/>
<stop offset="1" stop-color="#1264D6"/>
</linearGradient>
<linearGradient id="paint3_linear_318_727" x1="98.9997" y1="39" x2="98.9997" y2="86.9981" gradientUnits="userSpaceOnUse">
<stop stop-color="white"/>
<stop offset="1" stop-color="#ABD5FF"/>
</linearGradient>
</defs>
</svg>
