<svg width="218" height="224" viewBox="0 0 218 224" fill="none" xmlns="http://www.w3.org/2000/svg">
    <g filter="url(#filter0_ddddddd_318_795)">
        <rect x="32" y="6" width="107" height="107" rx="22" fill="url(#paint0_linear_318_795)" />
        <rect x="32" y="6" width="107" height="107" rx="22" fill="url(#paint1_linear_318_795)" />
        <rect x="32" y="6" width="107" height="107" rx="22" fill="url(#paint2_linear_318_795)" />
        <rect x="32.75" y="6.75" width="105.5" height="105.5" rx="21.25" stroke="#F3F3F3" stroke-width="1.5" />
    </g>
    <g opacity="0.05" filter="url(#filter1_f_318_795)">
        <mask id="mask0_318_795" style="mask-type:alpha" maskUnits="userSpaceOnUse" x="122" y="88" width="48"
            height="48">
            <path fill-rule="evenodd" clip-rule="evenodd"
                d="M158 124H150.603V111.401C150.603 107.947 149.291 106.017 146.557 106.017C143.582 106.017 142.029 108.026 142.029 111.401V124H134.9V100H142.029V103.233C142.029 103.233 144.172 99.2668 149.265 99.2668C154.355 99.2668 158 102.375 158 108.805V124ZM126.396 96.8574C123.968 96.8574 122 94.8744 122 92.4287C122 89.983 123.968 88 126.396 88C128.824 88 130.79 89.983 130.79 92.4287C130.79 94.8744 128.824 96.8574 126.396 96.8574ZM122.715 124H130.148V100H122.715V124Z"
                fill="white" />
        </mask>
        <g mask="url(#mask0_318_795)">
            <g filter="url(#filter2_d_318_795)">
                <rect x="122" y="88" width="47.9993" height="47.9981" fill="#1946B8" />
            </g>
        </g>
    </g>
    <g opacity="0.1" filter="url(#filter3_f_318_795)">
        <mask id="mask1_318_795" style="mask-type:alpha" maskUnits="userSpaceOnUse" x="118" y="84" width="48"
            height="48">
            <path fill-rule="evenodd" clip-rule="evenodd"
                d="M154 120H146.603V107.401C146.603 103.947 145.291 102.017 142.557 102.017C139.582 102.017 138.029 104.026 138.029 107.401V120H130.9V96H138.029V99.2328C138.029 99.2328 140.172 95.2668 145.265 95.2668C150.355 95.2668 154 98.3754 154 104.805V120ZM122.396 92.8574C119.968 92.8574 118 90.8744 118 88.4287C118 85.983 119.968 84 122.396 84C124.824 84 126.79 85.983 126.79 88.4287C126.79 90.8744 124.824 92.8574 122.396 92.8574ZM118.715 120H126.148V96H118.715V120Z"
                fill="white" />
        </mask>
        <g mask="url(#mask1_318_795)">
            <g filter="url(#filter4_d_318_795)">
                <rect x="118" y="84" width="47.9993" height="47.9981" fill="#1946B8" />
            </g>
        </g>
    </g>
    <g opacity="0.15" filter="url(#filter5_f_318_795)">
        <mask id="mask2_318_795" style="mask-type:alpha" maskUnits="userSpaceOnUse" x="114" y="80" width="48"
            height="48">
            <path fill-rule="evenodd" clip-rule="evenodd"
                d="M150 116H142.603V103.401C142.603 99.9473 141.291 98.017 138.557 98.017C135.582 98.017 134.029 100.026 134.029 103.401V116H126.9V92H134.029V95.2328C134.029 95.2328 136.172 91.2668 141.265 91.2668C146.355 91.2668 150 94.3754 150 100.805V116ZM118.396 88.8574C115.968 88.8574 114 86.8744 114 84.4287C114 81.983 115.968 80 118.396 80C120.824 80 122.79 81.983 122.79 84.4287C122.79 86.8744 120.824 88.8574 118.396 88.8574ZM114.715 116H122.148V92H114.715V116Z"
                fill="white" />
        </mask>
        <g mask="url(#mask2_318_795)">
            <g filter="url(#filter6_d_318_795)">
                <rect x="114" y="80" width="47.9993" height="47.9981" fill="#1946B8" />
            </g>
        </g>
    </g>
    <g opacity="0.2" filter="url(#filter7_f_318_795)">
        <mask id="mask3_318_795" style="mask-type:alpha" maskUnits="userSpaceOnUse" x="110" y="76" width="48"
            height="48">
            <path fill-rule="evenodd" clip-rule="evenodd"
                d="M146 112H138.603V99.4015C138.603 95.9473 137.291 94.017 134.557 94.017C131.582 94.017 130.029 96.0258 130.029 99.4015V112H122.9V88H130.029V91.2328C130.029 91.2328 132.172 87.2668 137.265 87.2668C142.355 87.2668 146 90.3754 146 96.8047V112ZM114.396 84.8574C111.968 84.8574 110 82.8744 110 80.4287C110 77.983 111.968 76 114.396 76C116.824 76 118.79 77.983 118.79 80.4287C118.79 82.8744 116.824 84.8574 114.396 84.8574ZM110.715 112H118.148V88H110.715V112Z"
                fill="white" />
        </mask>
        <g mask="url(#mask3_318_795)">
            <g filter="url(#filter8_d_318_795)">
                <rect x="110" y="76" width="47.9993" height="47.9981" fill="#1946B8" />
            </g>
        </g>
    </g>
    <g opacity="0.25" filter="url(#filter9_f_318_795)">
        <mask id="mask4_318_795" style="mask-type:alpha" maskUnits="userSpaceOnUse" x="102" y="68" width="48"
            height="48">
            <path fill-rule="evenodd" clip-rule="evenodd"
                d="M138 104H130.603V91.4015C130.603 87.9473 129.291 86.017 126.557 86.017C123.582 86.017 122.029 88.0258 122.029 91.4015V104H114.9V80H122.029V83.2328C122.029 83.2328 124.172 79.2668 129.265 79.2668C134.355 79.2668 138 82.3754 138 88.8047V104ZM106.396 76.8574C103.968 76.8574 102 74.8744 102 72.4287C102 69.983 103.968 68 106.396 68C108.824 68 110.79 69.983 110.79 72.4287C110.79 74.8744 108.824 76.8574 106.396 76.8574ZM102.715 104H110.148V80H102.715V104Z"
                fill="white" />
        </mask>
        <g mask="url(#mask4_318_795)">
            <g filter="url(#filter10_d_318_795)">
                <rect x="102" y="68" width="47.9993" height="47.9981" fill="#1946B8" />
            </g>
        </g>
    </g>
    <g opacity="0.3" filter="url(#filter11_f_318_795)">
        <mask id="mask5_318_795" style="mask-type:alpha" maskUnits="userSpaceOnUse" x="94" y="60" width="48"
            height="48">
            <path fill-rule="evenodd" clip-rule="evenodd"
                d="M130 96H122.603V83.4015C122.603 79.9473 121.291 78.017 118.557 78.017C115.582 78.017 114.029 80.0258 114.029 83.4015V96H106.9V72H114.029V75.2328C114.029 75.2328 116.172 71.2668 121.265 71.2668C126.355 71.2668 130 74.3754 130 80.8047V96ZM98.3957 68.8574C95.9676 68.8574 94 66.8744 94 64.4287C94 61.983 95.9676 60 98.3957 60C100.824 60 102.79 61.983 102.79 64.4287C102.79 66.8744 100.824 68.8574 98.3957 68.8574ZM94.7148 96H102.148V72H94.7148V96Z"
                fill="white" />
        </mask>
        <g mask="url(#mask5_318_795)">
            <g filter="url(#filter12_d_318_795)">
                <rect x="94" y="60" width="47.9993" height="47.9981" fill="#1946B8" />
            </g>
        </g>
    </g>
    <g opacity="0.35" filter="url(#filter13_f_318_795)">
        <mask id="mask6_318_795" style="mask-type:alpha" maskUnits="userSpaceOnUse" x="86" y="52" width="48"
            height="48">
            <path fill-rule="evenodd" clip-rule="evenodd"
                d="M122 88H114.603V75.4015C114.603 71.9473 113.291 70.017 110.557 70.017C107.582 70.017 106.029 72.0258 106.029 75.4015V88H98.9V64H106.029V67.2328C106.029 67.2328 108.172 63.2668 113.265 63.2668C118.355 63.2668 122 66.3754 122 72.8047V88ZM90.3957 60.8574C87.9676 60.8574 86 58.8744 86 56.4287C86 53.983 87.9676 52 90.3957 52C92.8238 52 94.7902 53.983 94.7902 56.4287C94.7902 58.8744 92.8238 60.8574 90.3957 60.8574ZM86.7148 88H94.148V64H86.7148V88Z"
                fill="white" />
        </mask>
        <g mask="url(#mask6_318_795)">
            <g filter="url(#filter14_d_318_795)">
                <rect x="86" y="52" width="47.9993" height="47.9981" fill="#1946B8" />
            </g>
        </g>
    </g>
    <g opacity="0.4" filter="url(#filter15_f_318_795)">
        <mask id="mask7_318_795" style="mask-type:alpha" maskUnits="userSpaceOnUse" x="85" y="51" width="48"
            height="48">
            <path fill-rule="evenodd" clip-rule="evenodd"
                d="M121 87H113.603V74.4015C113.603 70.9473 112.291 69.017 109.557 69.017C106.582 69.017 105.029 71.0258 105.029 74.4015V87H97.9V63H105.029V66.2328C105.029 66.2328 107.172 62.2668 112.265 62.2668C117.355 62.2668 121 65.3754 121 71.8047V87ZM89.3957 59.8574C86.9676 59.8574 85 57.8744 85 55.4287C85 52.983 86.9676 51 89.3957 51C91.8238 51 93.7902 52.983 93.7902 55.4287C93.7902 57.8744 91.8238 59.8574 89.3957 59.8574ZM85.7148 87H93.148V63H85.7148V87Z"
                fill="white" />
        </mask>
        <g mask="url(#mask7_318_795)">
            <g filter="url(#filter16_d_318_795)">
                <rect x="85" y="51" width="47.9993" height="47.9981" fill="#1946B8" />
            </g>
        </g>
    </g>
    <g opacity="0.45" filter="url(#filter17_f_318_795)">
        <mask id="mask8_318_795" style="mask-type:alpha" maskUnits="userSpaceOnUse" x="81" y="47" width="48"
            height="48">
            <path fill-rule="evenodd" clip-rule="evenodd"
                d="M117 83H109.603V70.4015C109.603 66.9473 108.291 65.017 105.557 65.017C102.582 65.017 101.029 67.0258 101.029 70.4015V83H93.9V59H101.029V62.2328C101.029 62.2328 103.172 58.2668 108.265 58.2668C113.355 58.2668 117 61.3754 117 67.8047V83ZM85.3957 55.8574C82.9676 55.8574 81 53.8744 81 51.4287C81 48.983 82.9676 47 85.3957 47C87.8238 47 89.7902 48.983 89.7902 51.4287C89.7902 53.8744 87.8238 55.8574 85.3957 55.8574ZM81.7148 83H89.148V59H81.7148V83Z"
                fill="white" />
        </mask>
        <g mask="url(#mask8_318_795)">
            <g filter="url(#filter18_d_318_795)">
                <rect x="81" y="47" width="47.9993" height="47.9981" fill="#1946B8" />
            </g>
        </g>
    </g>
    <g opacity="0.5" filter="url(#filter19_f_318_795)">
        <mask id="mask9_318_795" style="mask-type:alpha" maskUnits="userSpaceOnUse" x="77" y="43" width="48"
            height="48">
            <path fill-rule="evenodd" clip-rule="evenodd"
                d="M113 79H105.603V66.4015C105.603 62.9473 104.291 61.017 101.557 61.017C98.5824 61.017 97.0285 63.0258 97.0285 66.4015V79H89.9V55H97.0285V58.2328C97.0285 58.2328 99.1719 54.2668 104.265 54.2668C109.355 54.2668 113 57.3754 113 63.8047V79ZM81.3957 51.8574C78.9676 51.8574 77 49.8744 77 47.4287C77 44.983 78.9676 43 81.3957 43C83.8238 43 85.7902 44.983 85.7902 47.4287C85.7902 49.8744 83.8238 51.8574 81.3957 51.8574ZM77.7148 79H85.148V55H77.7148V79Z"
                fill="white" />
        </mask>
        <g mask="url(#mask9_318_795)">
            <g filter="url(#filter20_d_318_795)">
                <rect x="77" y="43" width="47.9993" height="47.9981" fill="#1946B8" />
            </g>
        </g>
    </g>
    <g opacity="0.55" filter="url(#filter21_f_318_795)">
        <mask id="mask10_318_795" style="mask-type:alpha" maskUnits="userSpaceOnUse" x="75" y="41" width="48"
            height="48">
            <path fill-rule="evenodd" clip-rule="evenodd"
                d="M111 77H103.603V64.4015C103.603 60.9473 102.291 59.017 99.5566 59.017C96.5824 59.017 95.0285 61.0258 95.0285 64.4015V77H87.9V53H95.0285V56.2328C95.0285 56.2328 97.1719 52.2668 102.265 52.2668C107.355 52.2668 111 55.3754 111 61.8047V77ZM79.3957 49.8574C76.9676 49.8574 75 47.8744 75 45.4287C75 42.983 76.9676 41 79.3957 41C81.8238 41 83.7902 42.983 83.7902 45.4287C83.7902 47.8744 81.8238 49.8574 79.3957 49.8574ZM75.7148 77H83.148V53H75.7148V77Z"
                fill="white" />
        </mask>
        <g mask="url(#mask10_318_795)">
            <g filter="url(#filter22_d_318_795)">
                <rect x="75" y="41" width="47.9993" height="47.9981" fill="#1946B8" />
            </g>
        </g>
    </g>
    <g opacity="0.6" filter="url(#filter23_f_318_795)">
        <mask id="mask11_318_795" style="mask-type:alpha" maskUnits="userSpaceOnUse" x="73" y="39" width="48"
            height="48">
            <path fill-rule="evenodd" clip-rule="evenodd"
                d="M109 75H101.603V62.4015C101.603 58.9473 100.291 57.017 97.5566 57.017C94.5824 57.017 93.0285 59.0258 93.0285 62.4015V75H85.9V51H93.0285V54.2328C93.0285 54.2328 95.1719 50.2668 100.265 50.2668C105.355 50.2668 109 53.3754 109 59.8047V75ZM77.3957 47.8574C74.9676 47.8574 73 45.8744 73 43.4287C73 40.983 74.9676 39 77.3957 39C79.8238 39 81.7902 40.983 81.7902 43.4287C81.7902 45.8744 79.8238 47.8574 77.3957 47.8574ZM73.7148 75H81.148V51H73.7148V75Z"
                fill="white" />
        </mask>
        <g mask="url(#mask11_318_795)">
            <g filter="url(#filter24_d_318_795)">
                <rect x="73" y="39" width="47.9993" height="47.9981" fill="#1946B8" />
            </g>
        </g>
    </g>
    <g opacity="0.6" filter="url(#filter25_f_318_795)">
        <mask id="mask12_318_795" style="mask-type:alpha" maskUnits="userSpaceOnUse" x="72" y="38" width="48"
            height="48">
            <path fill-rule="evenodd" clip-rule="evenodd"
                d="M108 74H100.603V61.4015C100.603 57.9473 99.2906 56.017 96.5566 56.017C93.5824 56.017 92.0285 58.0258 92.0285 61.4015V74H84.9V50H92.0285V53.2328C92.0285 53.2328 94.1719 49.2668 99.2648 49.2668C104.355 49.2668 108 52.3754 108 58.8047V74ZM76.3957 46.8574C73.9676 46.8574 72 44.8744 72 42.4287C72 39.983 73.9676 38 76.3957 38C78.8238 38 80.7902 39.983 80.7902 42.4287C80.7902 44.8744 78.8238 46.8574 76.3957 46.8574ZM72.7148 74H80.148V50H72.7148V74Z"
                fill="white" />
        </mask>
        <g mask="url(#mask12_318_795)">
            <g filter="url(#filter26_d_318_795)">
                <rect x="72" y="38" width="47.9993" height="47.9981" fill="#1946B8" />
            </g>
        </g>
    </g>
    <g opacity="0.6" filter="url(#filter27_f_318_795)">
        <mask id="mask13_318_795" style="mask-type:alpha" maskUnits="userSpaceOnUse" x="71" y="37" width="48"
            height="48">
            <path fill-rule="evenodd" clip-rule="evenodd"
                d="M107 73H99.6031V60.4015C99.6031 56.9473 98.2906 55.017 95.5566 55.017C92.5824 55.017 91.0285 57.0258 91.0285 60.4015V73H83.9V49H91.0285V52.2328C91.0285 52.2328 93.1719 48.2668 98.2648 48.2668C103.355 48.2668 107 51.3754 107 57.8047V73ZM75.3957 45.8574C72.9676 45.8574 71 43.8744 71 41.4287C71 38.983 72.9676 37 75.3957 37C77.8238 37 79.7902 38.983 79.7902 41.4287C79.7902 43.8744 77.8238 45.8574 75.3957 45.8574ZM71.7148 73H79.148V49H71.7148V73Z"
                fill="white" />
        </mask>
        <g mask="url(#mask13_318_795)">
            <g filter="url(#filter28_d_318_795)">
                <rect x="71" y="37" width="47.9993" height="47.9981" fill="#1946B8" />
            </g>
        </g>
    </g>
    <g opacity="0.6" filter="url(#filter29_f_318_795)">
        <mask id="mask14_318_795" style="mask-type:alpha" maskUnits="userSpaceOnUse" x="70" y="36" width="49"
            height="49">
            <path fill-rule="evenodd" clip-rule="evenodd"
                d="M106.5 72.5H99.1031V59.9015C99.1031 56.4473 97.7906 54.517 95.0566 54.517C92.0824 54.517 90.5285 56.5258 90.5285 59.9015V72.5H83.4V48.5H90.5285V51.7328C90.5285 51.7328 92.6719 47.7668 97.7648 47.7668C102.855 47.7668 106.5 50.8754 106.5 57.3047V72.5ZM74.8957 45.3574C72.4676 45.3574 70.5 43.3744 70.5 40.9287C70.5 38.483 72.4676 36.5 74.8957 36.5C77.3238 36.5 79.2902 38.483 79.2902 40.9287C79.2902 43.3744 77.3238 45.3574 74.8957 45.3574ZM71.2148 72.5H78.648V48.5H71.2148V72.5Z"
                fill="white" />
        </mask>
        <g mask="url(#mask14_318_795)">
            <g filter="url(#filter30_d_318_795)">
                <rect x="70.5" y="36.5" width="47.9993" height="47.9981" fill="#1946B8" />
            </g>
        </g>
    </g>
    <g filter="url(#filter31_ii_318_795)">
        <mask id="mask15_318_795" style="mask-type:alpha" maskUnits="userSpaceOnUse" x="70" y="36" width="48"
            height="48">
            <path fill-rule="evenodd" clip-rule="evenodd"
                d="M106 72H98.6031V59.4015C98.6031 55.9473 97.2906 54.017 94.5566 54.017C91.5824 54.017 90.0285 56.0258 90.0285 59.4015V72H82.9V48H90.0285V51.2328C90.0285 51.2328 92.1719 47.2668 97.2648 47.2668C102.355 47.2668 106 50.3754 106 56.8047V72ZM74.3957 44.8574C71.9676 44.8574 70 42.8744 70 40.4287C70 37.983 71.9676 36 74.3957 36C76.8238 36 78.7902 37.983 78.7902 40.4287C78.7902 42.8744 76.8238 44.8574 74.3957 44.8574ZM70.7148 72H78.148V48H70.7148V72Z"
                fill="white" />
        </mask>
        <g mask="url(#mask15_318_795)">
            <rect x="70" y="36" width="47.9993" height="47.9981" fill="url(#paint3_linear_318_795)" />
        </g>
    </g>
    <defs>
        <filter id="filter0_ddddddd_318_795" x="0" y="0" width="171" height="224" filterUnits="userSpaceOnUse"
            color-interpolation-filters="sRGB">
            <feFlood flood-opacity="0" result="BackgroundImageFix" />
            <feColorMatrix in="SourceAlpha" type="matrix" values="0 0 0 0 0 0 0 0 0 0 0 0 0 0 0 0 0 0 127 0"
                result="hardAlpha" />
            <feOffset dy="5" />
            <feGaussianBlur stdDeviation="5.5" />
            <feColorMatrix type="matrix" values="0 0 0 0 0 0 0 0 0 0 0 0 0 0 0 0 0 0 0.1 0" />
            <feBlend mode="normal" in2="BackgroundImageFix" result="effect1_dropShadow_318_795" />
            <feColorMatrix in="SourceAlpha" type="matrix" values="0 0 0 0 0 0 0 0 0 0 0 0 0 0 0 0 0 0 127 0"
                result="hardAlpha" />
            <feOffset dy="20" />
            <feGaussianBlur stdDeviation="10" />
            <feColorMatrix type="matrix" values="0 0 0 0 0 0 0 0 0 0 0 0 0 0 0 0 0 0 0.09 0" />
            <feBlend mode="normal" in2="effect1_dropShadow_318_795" result="effect2_dropShadow_318_795" />
            <feColorMatrix in="SourceAlpha" type="matrix" values="0 0 0 0 0 0 0 0 0 0 0 0 0 0 0 0 0 0 127 0"
                result="hardAlpha" />
            <feOffset dy="44" />
            <feGaussianBlur stdDeviation="13.5" />
            <feColorMatrix type="matrix" values="0 0 0 0 0 0 0 0 0 0 0 0 0 0 0 0 0 0 0.05 0" />
            <feBlend mode="normal" in2="effect2_dropShadow_318_795" result="effect3_dropShadow_318_795" />
            <feColorMatrix in="SourceAlpha" type="matrix" values="0 0 0 0 0 0 0 0 0 0 0 0 0 0 0 0 0 0 127 0"
                result="hardAlpha" />
            <feOffset dy="79" />
            <feGaussianBlur stdDeviation="16" />
            <feColorMatrix type="matrix" values="0 0 0 0 0 0 0 0 0 0 0 0 0 0 0 0 0 0 0.01 0" />
            <feBlend mode="normal" in2="effect3_dropShadow_318_795" result="effect4_dropShadow_318_795" />
            <feColorMatrix in="SourceAlpha" type="matrix" values="0 0 0 0 0 0 0 0 0 0 0 0 0 0 0 0 0 0 127 0"
                result="hardAlpha" />
            <feOffset dy="5" />
            <feGaussianBlur stdDeviation="5.5" />
            <feColorMatrix type="matrix" values="0 0 0 0 0 0 0 0 0 0 0 0 0 0 0 0 0 0 0.1 0" />
            <feBlend mode="normal" in2="effect4_dropShadow_318_795" result="effect5_dropShadow_318_795" />
            <feColorMatrix in="SourceAlpha" type="matrix" values="0 0 0 0 0 0 0 0 0 0 0 0 0 0 0 0 0 0 127 0"
                result="hardAlpha" />
            <feOffset dy="20" />
            <feGaussianBlur stdDeviation="10" />
            <feColorMatrix type="matrix" values="0 0 0 0 0 0 0 0 0 0 0 0 0 0 0 0 0 0 0.09 0" />
            <feBlend mode="normal" in2="effect5_dropShadow_318_795" result="effect6_dropShadow_318_795" />
            <feColorMatrix in="SourceAlpha" type="matrix" values="0 0 0 0 0 0 0 0 0 0 0 0 0 0 0 0 0 0 127 0"
                result="hardAlpha" />
            <feOffset dy="44" />
            <feGaussianBlur stdDeviation="13.5" />
            <feColorMatrix type="matrix" values="0 0 0 0 0 0 0 0 0 0 0 0 0 0 0 0 0 0 0.05 0" />
            <feBlend mode="normal" in2="effect6_dropShadow_318_795" result="effect7_dropShadow_318_795" />
            <feBlend mode="normal" in="SourceGraphic" in2="effect7_dropShadow_318_795" result="shape" />
        </filter>
        <filter id="filter1_f_318_795" x="74" y="40" width="144" height="144" filterUnits="userSpaceOnUse"
            color-interpolation-filters="sRGB">
            <feFlood flood-opacity="0" result="BackgroundImageFix" />
            <feBlend mode="normal" in="SourceGraphic" in2="BackgroundImageFix" result="shape" />
            <feGaussianBlur stdDeviation="24" result="effect1_foregroundBlur_318_795" />
        </filter>
        <filter id="filter2_d_318_795" x="118" y="88" width="55.9995" height="55.9982" filterUnits="userSpaceOnUse"
            color-interpolation-filters="sRGB">
            <feFlood flood-opacity="0" result="BackgroundImageFix" />
            <feColorMatrix in="SourceAlpha" type="matrix" values="0 0 0 0 0 0 0 0 0 0 0 0 0 0 0 0 0 0 127 0"
                result="hardAlpha" />
            <feOffset dy="4" />
            <feGaussianBlur stdDeviation="2" />
            <feComposite in2="hardAlpha" operator="out" />
            <feColorMatrix type="matrix" values="0 0 0 0 0 0 0 0 0 0 0 0 0 0 0 0 0 0 0.25 0" />
            <feBlend mode="normal" in2="BackgroundImageFix" result="effect1_dropShadow_318_795" />
            <feBlend mode="normal" in="SourceGraphic" in2="effect1_dropShadow_318_795" result="shape" />
        </filter>
        <filter id="filter3_f_318_795" x="74" y="40" width="136" height="136" filterUnits="userSpaceOnUse"
            color-interpolation-filters="sRGB">
            <feFlood flood-opacity="0" result="BackgroundImageFix" />
            <feBlend mode="normal" in="SourceGraphic" in2="BackgroundImageFix" result="shape" />
            <feGaussianBlur stdDeviation="22" result="effect1_foregroundBlur_318_795" />
        </filter>
        <filter id="filter4_d_318_795" x="114" y="84" width="55.9995" height="55.9982" filterUnits="userSpaceOnUse"
            color-interpolation-filters="sRGB">
            <feFlood flood-opacity="0" result="BackgroundImageFix" />
            <feColorMatrix in="SourceAlpha" type="matrix" values="0 0 0 0 0 0 0 0 0 0 0 0 0 0 0 0 0 0 127 0"
                result="hardAlpha" />
            <feOffset dy="4" />
            <feGaussianBlur stdDeviation="2" />
            <feComposite in2="hardAlpha" operator="out" />
            <feColorMatrix type="matrix" values="0 0 0 0 0 0 0 0 0 0 0 0 0 0 0 0 0 0 0.25 0" />
            <feBlend mode="normal" in2="BackgroundImageFix" result="effect1_dropShadow_318_795" />
            <feBlend mode="normal" in="SourceGraphic" in2="effect1_dropShadow_318_795" result="shape" />
        </filter>
        <filter id="filter5_f_318_795" x="74" y="40" width="128" height="128" filterUnits="userSpaceOnUse"
            color-interpolation-filters="sRGB">
            <feFlood flood-opacity="0" result="BackgroundImageFix" />
            <feBlend mode="normal" in="SourceGraphic" in2="BackgroundImageFix" result="shape" />
            <feGaussianBlur stdDeviation="20" result="effect1_foregroundBlur_318_795" />
        </filter>
        <filter id="filter6_d_318_795" x="110" y="80" width="55.9995" height="55.9982" filterUnits="userSpaceOnUse"
            color-interpolation-filters="sRGB">
            <feFlood flood-opacity="0" result="BackgroundImageFix" />
            <feColorMatrix in="SourceAlpha" type="matrix" values="0 0 0 0 0 0 0 0 0 0 0 0 0 0 0 0 0 0 127 0"
                result="hardAlpha" />
            <feOffset dy="4" />
            <feGaussianBlur stdDeviation="2" />
            <feComposite in2="hardAlpha" operator="out" />
            <feColorMatrix type="matrix" values="0 0 0 0 0 0 0 0 0 0 0 0 0 0 0 0 0 0 0.25 0" />
            <feBlend mode="normal" in2="BackgroundImageFix" result="effect1_dropShadow_318_795" />
            <feBlend mode="normal" in="SourceGraphic" in2="effect1_dropShadow_318_795" result="shape" />
        </filter>
        <filter id="filter7_f_318_795" x="70" y="36" width="128" height="128" filterUnits="userSpaceOnUse"
            color-interpolation-filters="sRGB">
            <feFlood flood-opacity="0" result="BackgroundImageFix" />
            <feBlend mode="normal" in="SourceGraphic" in2="BackgroundImageFix" result="shape" />
            <feGaussianBlur stdDeviation="20" result="effect1_foregroundBlur_318_795" />
        </filter>
        <filter id="filter8_d_318_795" x="106" y="76" width="55.9995" height="55.9982" filterUnits="userSpaceOnUse"
            color-interpolation-filters="sRGB">
            <feFlood flood-opacity="0" result="BackgroundImageFix" />
            <feColorMatrix in="SourceAlpha" type="matrix" values="0 0 0 0 0 0 0 0 0 0 0 0 0 0 0 0 0 0 127 0"
                result="hardAlpha" />
            <feOffset dy="4" />
            <feGaussianBlur stdDeviation="2" />
            <feComposite in2="hardAlpha" operator="out" />
            <feColorMatrix type="matrix" values="0 0 0 0 0 0 0 0 0 0 0 0 0 0 0 0 0 0 0.25 0" />
            <feBlend mode="normal" in2="BackgroundImageFix" result="effect1_dropShadow_318_795" />
            <feBlend mode="normal" in="SourceGraphic" in2="effect1_dropShadow_318_795" result="shape" />
        </filter>
        <filter id="filter9_f_318_795" x="70" y="36" width="112" height="112" filterUnits="userSpaceOnUse"
            color-interpolation-filters="sRGB">
            <feFlood flood-opacity="0" result="BackgroundImageFix" />
            <feBlend mode="normal" in="SourceGraphic" in2="BackgroundImageFix" result="shape" />
            <feGaussianBlur stdDeviation="16" result="effect1_foregroundBlur_318_795" />
        </filter>
        <filter id="filter10_d_318_795" x="98" y="68" width="55.9995" height="55.9982" filterUnits="userSpaceOnUse"
            color-interpolation-filters="sRGB">
            <feFlood flood-opacity="0" result="BackgroundImageFix" />
            <feColorMatrix in="SourceAlpha" type="matrix" values="0 0 0 0 0 0 0 0 0 0 0 0 0 0 0 0 0 0 127 0"
                result="hardAlpha" />
            <feOffset dy="4" />
            <feGaussianBlur stdDeviation="2" />
            <feComposite in2="hardAlpha" operator="out" />
            <feColorMatrix type="matrix" values="0 0 0 0 0 0 0 0 0 0 0 0 0 0 0 0 0 0 0.25 0" />
            <feBlend mode="normal" in2="BackgroundImageFix" result="effect1_dropShadow_318_795" />
            <feBlend mode="normal" in="SourceGraphic" in2="effect1_dropShadow_318_795" result="shape" />
        </filter>
        <filter id="filter11_f_318_795" x="66" y="32" width="104" height="104" filterUnits="userSpaceOnUse"
            color-interpolation-filters="sRGB">
            <feFlood flood-opacity="0" result="BackgroundImageFix" />
            <feBlend mode="normal" in="SourceGraphic" in2="BackgroundImageFix" result="shape" />
            <feGaussianBlur stdDeviation="14" result="effect1_foregroundBlur_318_795" />
        </filter>
        <filter id="filter12_d_318_795" x="90" y="60" width="55.9995" height="55.9982" filterUnits="userSpaceOnUse"
            color-interpolation-filters="sRGB">
            <feFlood flood-opacity="0" result="BackgroundImageFix" />
            <feColorMatrix in="SourceAlpha" type="matrix" values="0 0 0 0 0 0 0 0 0 0 0 0 0 0 0 0 0 0 127 0"
                result="hardAlpha" />
            <feOffset dy="4" />
            <feGaussianBlur stdDeviation="2" />
            <feComposite in2="hardAlpha" operator="out" />
            <feColorMatrix type="matrix" values="0 0 0 0 0 0 0 0 0 0 0 0 0 0 0 0 0 0 0.25 0" />
            <feBlend mode="normal" in2="BackgroundImageFix" result="effect1_dropShadow_318_795" />
            <feBlend mode="normal" in="SourceGraphic" in2="effect1_dropShadow_318_795" result="shape" />
        </filter>
        <filter id="filter13_f_318_795" x="62" y="28" width="96" height="96" filterUnits="userSpaceOnUse"
            color-interpolation-filters="sRGB">
            <feFlood flood-opacity="0" result="BackgroundImageFix" />
            <feBlend mode="normal" in="SourceGraphic" in2="BackgroundImageFix" result="shape" />
            <feGaussianBlur stdDeviation="12" result="effect1_foregroundBlur_318_795" />
        </filter>
        <filter id="filter14_d_318_795" x="82" y="52" width="55.9995" height="55.9982" filterUnits="userSpaceOnUse"
            color-interpolation-filters="sRGB">
            <feFlood flood-opacity="0" result="BackgroundImageFix" />
            <feColorMatrix in="SourceAlpha" type="matrix" values="0 0 0 0 0 0 0 0 0 0 0 0 0 0 0 0 0 0 127 0"
                result="hardAlpha" />
            <feOffset dy="4" />
            <feGaussianBlur stdDeviation="2" />
            <feComposite in2="hardAlpha" operator="out" />
            <feColorMatrix type="matrix" values="0 0 0 0 0 0 0 0 0 0 0 0 0 0 0 0 0 0 0.25 0" />
            <feBlend mode="normal" in2="BackgroundImageFix" result="effect1_dropShadow_318_795" />
            <feBlend mode="normal" in="SourceGraphic" in2="effect1_dropShadow_318_795" result="shape" />
        </filter>
        <filter id="filter15_f_318_795" x="61" y="27" width="96" height="96" filterUnits="userSpaceOnUse"
            color-interpolation-filters="sRGB">
            <feFlood flood-opacity="0" result="BackgroundImageFix" />
            <feBlend mode="normal" in="SourceGraphic" in2="BackgroundImageFix" result="shape" />
            <feGaussianBlur stdDeviation="12" result="effect1_foregroundBlur_318_795" />
        </filter>
        <filter id="filter16_d_318_795" x="81" y="51" width="55.9995" height="55.9982" filterUnits="userSpaceOnUse"
            color-interpolation-filters="sRGB">
            <feFlood flood-opacity="0" result="BackgroundImageFix" />
            <feColorMatrix in="SourceAlpha" type="matrix" values="0 0 0 0 0 0 0 0 0 0 0 0 0 0 0 0 0 0 127 0"
                result="hardAlpha" />
            <feOffset dy="4" />
            <feGaussianBlur stdDeviation="2" />
            <feComposite in2="hardAlpha" operator="out" />
            <feColorMatrix type="matrix" values="0 0 0 0 0 0 0 0 0 0 0 0 0 0 0 0 0 0 0.25 0" />
            <feBlend mode="normal" in2="BackgroundImageFix" result="effect1_dropShadow_318_795" />
            <feBlend mode="normal" in="SourceGraphic" in2="effect1_dropShadow_318_795" result="shape" />
        </filter>
        <filter id="filter17_f_318_795" x="65" y="31" width="80" height="80" filterUnits="userSpaceOnUse"
            color-interpolation-filters="sRGB">
            <feFlood flood-opacity="0" result="BackgroundImageFix" />
            <feBlend mode="normal" in="SourceGraphic" in2="BackgroundImageFix" result="shape" />
            <feGaussianBlur stdDeviation="8" result="effect1_foregroundBlur_318_795" />
        </filter>
        <filter id="filter18_d_318_795" x="77" y="47" width="55.9995" height="55.9982" filterUnits="userSpaceOnUse"
            color-interpolation-filters="sRGB">
            <feFlood flood-opacity="0" result="BackgroundImageFix" />
            <feColorMatrix in="SourceAlpha" type="matrix" values="0 0 0 0 0 0 0 0 0 0 0 0 0 0 0 0 0 0 127 0"
                result="hardAlpha" />
            <feOffset dy="4" />
            <feGaussianBlur stdDeviation="2" />
            <feComposite in2="hardAlpha" operator="out" />
            <feColorMatrix type="matrix" values="0 0 0 0 0 0 0 0 0 0 0 0 0 0 0 0 0 0 0.25 0" />
            <feBlend mode="normal" in2="BackgroundImageFix" result="effect1_dropShadow_318_795" />
            <feBlend mode="normal" in="SourceGraphic" in2="effect1_dropShadow_318_795" result="shape" />
        </filter>
        <filter id="filter19_f_318_795" x="67" y="33" width="68" height="68" filterUnits="userSpaceOnUse"
            color-interpolation-filters="sRGB">
            <feFlood flood-opacity="0" result="BackgroundImageFix" />
            <feBlend mode="normal" in="SourceGraphic" in2="BackgroundImageFix" result="shape" />
            <feGaussianBlur stdDeviation="5" result="effect1_foregroundBlur_318_795" />
        </filter>
        <filter id="filter20_d_318_795" x="73" y="43" width="55.9995" height="55.9982" filterUnits="userSpaceOnUse"
            color-interpolation-filters="sRGB">
            <feFlood flood-opacity="0" result="BackgroundImageFix" />
            <feColorMatrix in="SourceAlpha" type="matrix" values="0 0 0 0 0 0 0 0 0 0 0 0 0 0 0 0 0 0 127 0"
                result="hardAlpha" />
            <feOffset dy="4" />
            <feGaussianBlur stdDeviation="2" />
            <feComposite in2="hardAlpha" operator="out" />
            <feColorMatrix type="matrix" values="0 0 0 0 0 0 0 0 0 0 0 0 0 0 0 0 0 0 0.25 0" />
            <feBlend mode="normal" in2="BackgroundImageFix" result="effect1_dropShadow_318_795" />
            <feBlend mode="normal" in="SourceGraphic" in2="effect1_dropShadow_318_795" result="shape" />
        </filter>
        <filter id="filter21_f_318_795" x="69" y="35" width="60" height="60" filterUnits="userSpaceOnUse"
            color-interpolation-filters="sRGB">
            <feFlood flood-opacity="0" result="BackgroundImageFix" />
            <feBlend mode="normal" in="SourceGraphic" in2="BackgroundImageFix" result="shape" />
            <feGaussianBlur stdDeviation="3" result="effect1_foregroundBlur_318_795" />
        </filter>
        <filter id="filter22_d_318_795" x="71" y="41" width="55.9995" height="55.9982" filterUnits="userSpaceOnUse"
            color-interpolation-filters="sRGB">
            <feFlood flood-opacity="0" result="BackgroundImageFix" />
            <feColorMatrix in="SourceAlpha" type="matrix" values="0 0 0 0 0 0 0 0 0 0 0 0 0 0 0 0 0 0 127 0"
                result="hardAlpha" />
            <feOffset dy="4" />
            <feGaussianBlur stdDeviation="2" />
            <feComposite in2="hardAlpha" operator="out" />
            <feColorMatrix type="matrix" values="0 0 0 0 0 0 0 0 0 0 0 0 0 0 0 0 0 0 0.25 0" />
            <feBlend mode="normal" in2="BackgroundImageFix" result="effect1_dropShadow_318_795" />
            <feBlend mode="normal" in="SourceGraphic" in2="effect1_dropShadow_318_795" result="shape" />
        </filter>
        <filter id="filter23_f_318_795" x="69" y="35" width="56" height="56" filterUnits="userSpaceOnUse"
            color-interpolation-filters="sRGB">
            <feFlood flood-opacity="0" result="BackgroundImageFix" />
            <feBlend mode="normal" in="SourceGraphic" in2="BackgroundImageFix" result="shape" />
            <feGaussianBlur stdDeviation="2" result="effect1_foregroundBlur_318_795" />
        </filter>
        <filter id="filter24_d_318_795" x="69" y="39" width="55.9995" height="55.9982" filterUnits="userSpaceOnUse"
            color-interpolation-filters="sRGB">
            <feFlood flood-opacity="0" result="BackgroundImageFix" />
            <feColorMatrix in="SourceAlpha" type="matrix" values="0 0 0 0 0 0 0 0 0 0 0 0 0 0 0 0 0 0 127 0"
                result="hardAlpha" />
            <feOffset dy="4" />
            <feGaussianBlur stdDeviation="2" />
            <feComposite in2="hardAlpha" operator="out" />
            <feColorMatrix type="matrix" values="0 0 0 0 0 0 0 0 0 0 0 0 0 0 0 0 0 0 0.25 0" />
            <feBlend mode="normal" in2="BackgroundImageFix" result="effect1_dropShadow_318_795" />
            <feBlend mode="normal" in="SourceGraphic" in2="effect1_dropShadow_318_795" result="shape" />
        </filter>
        <filter id="filter25_f_318_795" x="69" y="35" width="54" height="54" filterUnits="userSpaceOnUse"
            color-interpolation-filters="sRGB">
            <feFlood flood-opacity="0" result="BackgroundImageFix" />
            <feBlend mode="normal" in="SourceGraphic" in2="BackgroundImageFix" result="shape" />
            <feGaussianBlur stdDeviation="1.5" result="effect1_foregroundBlur_318_795" />
        </filter>
        <filter id="filter26_d_318_795" x="68" y="38" width="55.9995" height="55.9982" filterUnits="userSpaceOnUse"
            color-interpolation-filters="sRGB">
            <feFlood flood-opacity="0" result="BackgroundImageFix" />
            <feColorMatrix in="SourceAlpha" type="matrix" values="0 0 0 0 0 0 0 0 0 0 0 0 0 0 0 0 0 0 127 0"
                result="hardAlpha" />
            <feOffset dy="4" />
            <feGaussianBlur stdDeviation="2" />
            <feComposite in2="hardAlpha" operator="out" />
            <feColorMatrix type="matrix" values="0 0 0 0 0 0 0 0 0 0 0 0 0 0 0 0 0 0 0.25 0" />
            <feBlend mode="normal" in2="BackgroundImageFix" result="effect1_dropShadow_318_795" />
            <feBlend mode="normal" in="SourceGraphic" in2="effect1_dropShadow_318_795" result="shape" />
        </filter>
        <filter id="filter27_f_318_795" x="69" y="35" width="52" height="52" filterUnits="userSpaceOnUse"
            color-interpolation-filters="sRGB">
            <feFlood flood-opacity="0" result="BackgroundImageFix" />
            <feBlend mode="normal" in="SourceGraphic" in2="BackgroundImageFix" result="shape" />
            <feGaussianBlur stdDeviation="1" result="effect1_foregroundBlur_318_795" />
        </filter>
        <filter id="filter28_d_318_795" x="67" y="37" width="55.9995" height="55.9982" filterUnits="userSpaceOnUse"
            color-interpolation-filters="sRGB">
            <feFlood flood-opacity="0" result="BackgroundImageFix" />
            <feColorMatrix in="SourceAlpha" type="matrix" values="0 0 0 0 0 0 0 0 0 0 0 0 0 0 0 0 0 0 127 0"
                result="hardAlpha" />
            <feOffset dy="4" />
            <feGaussianBlur stdDeviation="2" />
            <feComposite in2="hardAlpha" operator="out" />
            <feColorMatrix type="matrix" values="0 0 0 0 0 0 0 0 0 0 0 0 0 0 0 0 0 0 0.25 0" />
            <feBlend mode="normal" in2="BackgroundImageFix" result="effect1_dropShadow_318_795" />
            <feBlend mode="normal" in="SourceGraphic" in2="effect1_dropShadow_318_795" result="shape" />
        </filter>
        <filter id="filter29_f_318_795" x="69.5" y="35.5" width="50" height="50" filterUnits="userSpaceOnUse"
            color-interpolation-filters="sRGB">
            <feFlood flood-opacity="0" result="BackgroundImageFix" />
            <feBlend mode="normal" in="SourceGraphic" in2="BackgroundImageFix" result="shape" />
            <feGaussianBlur stdDeviation="0.5" result="effect1_foregroundBlur_318_795" />
        </filter>
        <filter id="filter30_d_318_795" x="66.5" y="36.5" width="55.9995" height="55.9982" filterUnits="userSpaceOnUse"
            color-interpolation-filters="sRGB">
            <feFlood flood-opacity="0" result="BackgroundImageFix" />
            <feColorMatrix in="SourceAlpha" type="matrix" values="0 0 0 0 0 0 0 0 0 0 0 0 0 0 0 0 0 0 127 0"
                result="hardAlpha" />
            <feOffset dy="4" />
            <feGaussianBlur stdDeviation="2" />
            <feComposite in2="hardAlpha" operator="out" />
            <feColorMatrix type="matrix" values="0 0 0 0 0 0 0 0 0 0 0 0 0 0 0 0 0 0 0.25 0" />
            <feBlend mode="normal" in2="BackgroundImageFix" result="effect1_dropShadow_318_795" />
            <feBlend mode="normal" in="SourceGraphic" in2="effect1_dropShadow_318_795" result="shape" />
        </filter>
        <filter id="filter31_ii_318_795" x="69.5" y="35" width="49.5" height="50" filterUnits="userSpaceOnUse"
            color-interpolation-filters="sRGB">
            <feFlood flood-opacity="0" result="BackgroundImageFix" />
            <feBlend mode="normal" in="SourceGraphic" in2="BackgroundImageFix" result="shape" />
            <feColorMatrix in="SourceAlpha" type="matrix" values="0 0 0 0 0 0 0 0 0 0 0 0 0 0 0 0 0 0 127 0"
                result="hardAlpha" />
            <feOffset dx="-0.5" dy="-1" />
            <feGaussianBlur stdDeviation="0.5" />
            <feComposite in2="hardAlpha" operator="arithmetic" k2="-1" k3="1" />
            <feColorMatrix type="matrix" values="0 0 0 0 0.420104 0 0 0 0 0.625302 0 0 0 0 0.908333 0 0 0 1 0" />
            <feBlend mode="normal" in2="shape" result="effect1_innerShadow_318_795" />
            <feColorMatrix in="SourceAlpha" type="matrix" values="0 0 0 0 0 0 0 0 0 0 0 0 0 0 0 0 0 0 127 0"
                result="hardAlpha" />
            <feOffset dx="1" dy="1" />
            <feGaussianBlur stdDeviation="0.5" />
            <feComposite in2="hardAlpha" operator="arithmetic" k2="-1" k3="1" />
            <feColorMatrix type="matrix" values="0 0 0 0 1 0 0 0 0 1 0 0 0 0 1 0 0 0 1 0" />
            <feBlend mode="soft-light" in2="effect1_innerShadow_318_795" result="effect2_innerShadow_318_795" />
        </filter>
        <linearGradient id="paint0_linear_318_795" x1="50.5" y1="11" x2="116.5" y2="113" gradientUnits="userSpaceOnUse">
            <stop stop-color="#FBFBFB" />
            <stop offset="1" stop-color="#E8E8E8" />
        </linearGradient>
        <linearGradient id="paint1_linear_318_795" x1="85.5" y1="6" x2="85.5" y2="113" gradientUnits="userSpaceOnUse">
            <stop stop-color="#6F7AFC" />
            <stop offset="1" stop-color="#4554EE" />
        </linearGradient>
        <linearGradient id="paint2_linear_318_795" x1="85.5" y1="6" x2="85.5" y2="113" gradientUnits="userSpaceOnUse">
            <stop stop-color="#3D77C7" />
            <stop offset="1" stop-color="#195AB5" />
        </linearGradient>
        <linearGradient id="paint3_linear_318_795" x1="93.9997" y1="36" x2="93.9997" y2="83.9981"
            gradientUnits="userSpaceOnUse">
            <stop stop-color="white" />
            <stop offset="1" stop-color="#A9CDFF" />
        </linearGradient>
    </defs>
</svg>