<svg width="214" height="224" viewBox="0 0 214 224" fill="none" xmlns="http://www.w3.org/2000/svg">
    <g filter="url(#filter0_ddddddd_318_659)">
        <rect x="32" y="6" width="107" height="107" rx="22" fill="url(#paint0_linear_318_659)" />
        <rect x="32" y="6" width="107" height="107" rx="22" fill="url(#paint1_linear_318_659)" />
        <rect x="32" y="6" width="107" height="107" rx="22" fill="url(#paint2_radial_318_659)" />
        <rect x="32" y="6" width="107" height="107" rx="22" fill="url(#paint3_radial_318_659)"
            style="mix-blend-mode:hard-light" />
        <rect x="32.75" y="6.75" width="105.5" height="105.5" rx="21.25" stroke="#F3F3F3" stroke-width="1.5" />
    </g>
    <g opacity="0.05" filter="url(#filter1_f_318_659)">
        <mask id="mask0_318_659" style="mask-type:alpha" maskUnits="userSpaceOnUse" x="118" y="92" width="48"
            height="48">
            <path
                d="M137.002 92C131.842 92 131.194 92.0226 129.167 92.1148C127.145 92.2074 125.764 92.5276 124.556 92.9975C123.306 93.4828 122.246 94.132 121.19 95.1884C120.133 96.2445 119.484 97.3046 118.997 98.5538C118.526 99.7623 118.205 101.143 118.114 103.165C118.024 105.192 118 105.84 118 111C118 116.16 118.023 116.806 118.115 118.832C118.208 120.855 118.528 122.236 118.998 123.444C119.483 124.693 120.132 125.754 121.189 126.81C122.245 127.866 123.305 128.517 124.553 129.003C125.762 129.472 127.143 129.793 129.166 129.885C131.192 129.977 131.84 130 136.999 130C142.16 130 142.806 129.977 144.832 129.885C146.855 129.793 148.237 129.472 149.446 129.003C150.695 128.517 151.754 127.866 152.81 126.81C153.866 125.754 154.516 124.693 155.002 123.444C155.47 122.236 155.79 120.855 155.885 118.833C155.976 116.806 156 116.16 156 111C156 105.84 155.976 105.192 155.885 103.166C155.79 101.143 155.47 99.7623 155.002 98.5542C154.516 97.3046 153.866 96.2445 152.81 95.1884C151.753 94.1316 150.696 93.4824 149.445 92.9975C148.234 92.5276 146.852 92.2074 144.829 92.1148C142.803 92.0226 142.158 92 136.996 92H137.002ZM135.297 95.424C135.803 95.4232 136.368 95.424 137.002 95.424C142.075 95.424 142.676 95.4422 144.679 95.5332C146.532 95.6179 147.537 95.9275 148.207 96.1875C149.094 96.5319 149.726 96.9436 150.391 97.6086C151.056 98.2736 151.467 98.9069 151.812 99.7936C152.072 100.463 152.382 101.468 152.467 103.32C152.558 105.323 152.578 105.925 152.578 110.996C152.578 116.066 152.558 116.668 152.467 118.671C152.382 120.523 152.072 121.529 151.812 122.198C151.468 123.084 151.056 123.716 150.391 124.38C149.726 125.045 149.094 125.457 148.207 125.801C147.538 126.063 146.532 126.371 144.679 126.456C142.677 126.547 142.075 126.567 137.002 126.567C131.928 126.567 131.327 126.547 129.324 126.456C127.472 126.371 126.466 126.061 125.796 125.801C124.909 125.457 124.276 125.045 123.611 124.38C122.946 123.715 122.534 123.083 122.189 122.196C121.929 121.527 121.619 120.522 121.535 118.669C121.444 116.666 121.426 116.065 121.426 110.991C121.426 105.917 121.444 105.319 121.535 103.316C121.62 101.463 121.929 100.458 122.189 99.788C122.534 98.9014 122.946 98.268 123.611 97.603C124.276 96.938 124.909 96.5264 125.796 96.1812C126.466 95.9199 127.472 95.6112 129.324 95.5261C131.077 95.4469 131.756 95.4232 135.297 95.4192V95.424ZM147.144 98.5787C145.885 98.5787 144.864 99.5988 144.864 100.858C144.864 102.117 145.885 103.138 147.144 103.138C148.403 103.138 149.424 102.117 149.424 100.858C149.424 99.5992 148.403 98.578 147.144 98.578V98.5787ZM137.002 101.243C131.613 101.243 127.244 105.612 127.244 111C127.244 116.388 131.613 120.755 137.002 120.755C142.39 120.755 146.758 116.388 146.758 111C146.758 105.612 142.39 101.243 137.002 101.243ZM137.002 104.667C140.499 104.667 143.335 107.502 143.335 111C143.335 114.498 140.499 117.333 137.002 117.333C133.504 117.333 130.668 114.498 130.668 111C130.668 107.502 133.504 104.667 137.002 104.667Z"
                fill="white" />
        </mask>
        <g mask="url(#mask0_318_659)">
            <g filter="url(#filter2_d_318_659)">
                <rect x="118" y="92" width="47.9993" height="47.9981" fill="#7A07A3" />
            </g>
        </g>
    </g>
    <g opacity="0.1" filter="url(#filter3_f_318_659)">
        <mask id="mask1_318_659" style="mask-type:alpha" maskUnits="userSpaceOnUse" x="114" y="88" width="48"
            height="48">
            <path
                d="M133.002 88C127.842 88 127.194 88.0226 125.167 88.1148C123.145 88.2074 121.764 88.5276 120.556 88.9975C119.306 89.4828 118.246 90.132 117.19 91.1884C116.133 92.2445 115.484 93.3046 114.997 94.5538C114.526 95.7623 114.205 97.1434 114.114 99.1653C114.024 101.192 114 101.84 114 107C114 112.16 114.023 112.806 114.115 114.832C114.208 116.855 114.528 118.236 114.998 119.444C115.483 120.693 116.132 121.754 117.189 122.81C118.245 123.866 119.305 124.517 120.553 125.003C121.762 125.472 123.143 125.793 125.166 125.885C127.192 125.977 127.84 126 132.999 126C138.16 126 138.806 125.977 140.832 125.885C142.855 125.793 144.237 125.472 145.446 125.003C146.695 124.517 147.754 123.866 148.81 122.81C149.866 121.754 150.516 120.693 151.002 119.444C151.47 118.236 151.79 116.855 151.885 114.833C151.976 112.806 152 112.16 152 107C152 101.84 151.976 101.192 151.885 99.1657C151.79 97.143 151.47 95.7623 151.002 94.5542C150.516 93.3046 149.866 92.2445 148.81 91.1884C147.753 90.1316 146.696 89.4824 145.445 88.9975C144.234 88.5276 142.852 88.2074 140.829 88.1148C138.803 88.0226 138.158 88 132.996 88H133.002ZM131.297 91.424C131.803 91.4232 132.368 91.424 133.002 91.424C138.075 91.424 138.676 91.4422 140.679 91.5332C142.532 91.6179 143.537 91.9275 144.207 92.1875C145.094 92.5319 145.726 92.9436 146.391 93.6086C147.056 94.2736 147.467 94.9069 147.812 95.7936C148.072 96.4625 148.382 97.4679 148.467 99.3204C148.558 101.323 148.578 101.925 148.578 106.996C148.578 112.066 148.558 112.668 148.467 114.671C148.382 116.523 148.072 117.529 147.812 118.198C147.468 119.084 147.056 119.716 146.391 120.38C145.726 121.045 145.094 121.457 144.207 121.801C143.538 122.063 142.532 122.371 140.679 122.456C138.677 122.547 138.075 122.567 133.002 122.567C127.928 122.567 127.327 122.547 125.324 122.456C123.472 122.371 122.466 122.061 121.796 121.801C120.909 121.457 120.276 121.045 119.611 120.38C118.946 119.715 118.534 119.083 118.189 118.196C117.929 117.527 117.619 116.522 117.535 114.669C117.444 112.666 117.426 112.065 117.426 106.991C117.426 101.917 117.444 101.319 117.535 99.3157C117.62 97.4632 117.929 96.4578 118.189 95.788C118.534 94.9014 118.946 94.268 119.611 93.603C120.276 92.938 120.909 92.5264 121.796 92.1812C122.466 91.9199 123.472 91.6112 125.324 91.5261C127.077 91.4469 127.756 91.4232 131.297 91.4192V91.424ZM143.144 94.5787C141.885 94.5787 140.864 95.5988 140.864 96.858C140.864 98.1167 141.885 99.138 143.144 99.138C144.403 99.138 145.424 98.1167 145.424 96.858C145.424 95.5992 144.403 94.578 143.144 94.578V94.5787ZM133.002 97.2427C127.613 97.2427 123.244 101.612 123.244 107C123.244 112.388 127.613 116.755 133.002 116.755C138.39 116.755 142.758 112.388 142.758 107C142.758 101.612 138.39 97.2427 133.002 97.2427ZM133.002 100.667C136.499 100.667 139.335 103.502 139.335 107C139.335 110.498 136.499 113.333 133.002 113.333C129.504 113.333 126.668 110.498 126.668 107C126.668 103.502 129.504 100.667 133.002 100.667Z"
                fill="white" />
        </mask>
        <g mask="url(#mask1_318_659)">
            <g filter="url(#filter4_d_318_659)">
                <rect x="114" y="88" width="47.9993" height="47.9981" fill="#7A07A3" />
            </g>
        </g>
    </g>
    <g opacity="0.15" filter="url(#filter5_f_318_659)">
        <mask id="mask2_318_659" style="mask-type:alpha" maskUnits="userSpaceOnUse" x="110" y="84" width="48"
            height="48">
            <path
                d="M129.002 84C123.842 84 123.194 84.0226 121.167 84.1148C119.145 84.2074 117.764 84.5276 116.556 84.9975C115.306 85.4828 114.246 86.132 113.19 87.1884C112.133 88.2445 111.484 89.3046 110.997 90.5538C110.526 91.7623 110.205 93.1434 110.114 95.1653C110.024 97.1919 110 97.8399 110 103C110 108.16 110.023 108.806 110.115 110.832C110.208 112.855 110.528 114.236 110.998 115.444C111.483 116.693 112.132 117.754 113.189 118.81C114.245 119.866 115.305 120.517 116.553 121.003C117.762 121.472 119.143 121.793 121.166 121.885C123.192 121.977 123.84 122 128.999 122C134.16 122 134.806 121.977 136.832 121.885C138.855 121.793 140.237 121.472 141.446 121.003C142.695 120.517 143.754 119.866 144.81 118.81C145.866 117.754 146.516 116.693 147.002 115.444C147.47 114.236 147.79 112.855 147.885 110.833C147.976 108.806 148 108.16 148 103C148 97.8399 147.976 97.1923 147.885 95.1657C147.79 93.143 147.47 91.7623 147.002 90.5542C146.516 89.3046 145.866 88.2445 144.81 87.1884C143.753 86.1316 142.696 85.4824 141.445 84.9975C140.234 84.5276 138.852 84.2074 136.829 84.1148C134.803 84.0226 134.158 84 128.996 84H129.002ZM127.297 87.424C127.803 87.4232 128.368 87.424 129.002 87.424C134.075 87.424 134.676 87.4422 136.679 87.5332C138.532 87.6179 139.537 87.9275 140.207 88.1875C141.094 88.5319 141.726 88.9436 142.391 89.6086C143.056 90.2736 143.467 90.9069 143.812 91.7936C144.072 92.4625 144.382 93.4679 144.467 95.3204C144.558 97.3234 144.578 97.925 144.578 102.996C144.578 108.066 144.558 108.668 144.467 110.671C144.382 112.523 144.072 113.529 143.812 114.198C143.468 115.084 143.056 115.716 142.391 116.38C141.726 117.045 141.094 117.457 140.207 117.801C139.538 118.063 138.532 118.371 136.679 118.456C134.677 118.547 134.075 118.567 129.002 118.567C123.928 118.567 123.327 118.547 121.324 118.456C119.472 118.371 118.466 118.061 117.796 117.801C116.909 117.457 116.276 117.045 115.611 116.38C114.946 115.715 114.534 115.083 114.189 114.196C113.929 113.527 113.619 112.522 113.535 110.669C113.444 108.666 113.426 108.065 113.426 102.991C113.426 97.9171 113.444 97.3186 113.535 95.3157C113.62 93.4632 113.929 92.4578 114.189 91.788C114.534 90.9014 114.946 90.268 115.611 89.603C116.276 88.938 116.909 88.5264 117.796 88.1812C118.466 87.9199 119.472 87.6112 121.324 87.5261C123.077 87.4469 123.756 87.4232 127.297 87.4192V87.424ZM139.144 90.5787C137.885 90.5787 136.864 91.5988 136.864 92.858C136.864 94.1167 137.885 95.138 139.144 95.138C140.403 95.138 141.424 94.1167 141.424 92.858C141.424 91.5992 140.403 90.578 139.144 90.578V90.5787ZM129.002 93.2427C123.613 93.2427 119.244 97.6115 119.244 103C119.244 108.388 123.613 112.755 129.002 112.755C134.39 112.755 138.758 108.388 138.758 103C138.758 97.6115 134.39 93.2427 129.002 93.2427ZM129.002 96.6667C132.499 96.6667 135.335 99.502 135.335 103C135.335 106.498 132.499 109.333 129.002 109.333C125.504 109.333 122.668 106.498 122.668 103C122.668 99.502 125.504 96.6667 129.002 96.6667Z"
                fill="white" />
        </mask>
        <g mask="url(#mask2_318_659)">
            <g filter="url(#filter6_d_318_659)">
                <rect x="110" y="84" width="47.9993" height="47.9981" fill="#7A07A3" />
            </g>
        </g>
    </g>
    <g opacity="0.2" filter="url(#filter7_f_318_659)">
        <mask id="mask3_318_659" style="mask-type:alpha" maskUnits="userSpaceOnUse" x="106" y="80" width="48"
            height="48">
            <path
                d="M125.002 80C119.842 80 119.194 80.0226 117.167 80.1148C115.145 80.2074 113.764 80.5276 112.556 80.9975C111.306 81.4828 110.246 82.132 109.19 83.1884C108.133 84.2445 107.484 85.3046 106.997 86.5538C106.526 87.7623 106.205 89.1434 106.114 91.1653C106.024 93.1919 106 93.8399 106 99C106 104.16 106.023 104.806 106.115 106.832C106.208 108.855 106.528 110.236 106.998 111.444C107.483 112.693 108.132 113.754 109.189 114.81C110.245 115.866 111.305 116.517 112.553 117.003C113.762 117.472 115.143 117.793 117.166 117.885C119.192 117.977 119.84 118 124.999 118C130.16 118 130.806 117.977 132.832 117.885C134.855 117.793 136.237 117.472 137.446 117.003C138.695 116.517 139.754 115.866 140.81 114.81C141.866 113.754 142.516 112.693 143.002 111.444C143.47 110.236 143.79 108.855 143.885 106.833C143.976 104.806 144 104.16 144 99C144 93.8399 143.976 93.1923 143.885 91.1657C143.79 89.143 143.47 87.7623 143.002 86.5542C142.516 85.3046 141.866 84.2445 140.81 83.1884C139.753 82.1316 138.696 81.4824 137.445 80.9975C136.234 80.5276 134.852 80.2074 132.829 80.1148C130.803 80.0226 130.158 80 124.996 80H125.002ZM123.297 83.424C123.803 83.4232 124.368 83.424 125.002 83.424C130.075 83.424 130.676 83.4422 132.679 83.5332C134.532 83.6179 135.537 83.9275 136.207 84.1875C137.094 84.5319 137.726 84.9436 138.391 85.6086C139.056 86.2736 139.467 86.9069 139.812 87.7936C140.072 88.4625 140.382 89.4679 140.467 91.3204C140.558 93.3234 140.578 93.925 140.578 98.9956C140.578 104.066 140.558 104.668 140.467 106.671C140.382 108.523 140.072 109.529 139.812 110.198C139.468 111.084 139.056 111.716 138.391 112.38C137.726 113.045 137.094 113.457 136.207 113.801C135.538 114.063 134.532 114.371 132.679 114.456C130.677 114.547 130.075 114.567 125.002 114.567C119.928 114.567 119.327 114.547 117.324 114.456C115.472 114.371 114.466 114.061 113.796 113.801C112.909 113.457 112.276 113.045 111.611 112.38C110.946 111.715 110.534 111.083 110.189 110.196C109.929 109.527 109.619 108.522 109.535 106.669C109.444 104.666 109.426 104.065 109.426 98.9909C109.426 93.9171 109.444 93.3186 109.535 91.3157C109.62 89.4632 109.929 88.4578 110.189 87.788C110.534 86.9014 110.946 86.268 111.611 85.603C112.276 84.938 112.909 84.5264 113.796 84.1812C114.466 83.9199 115.472 83.6112 117.324 83.5261C119.077 83.4469 119.756 83.4232 123.297 83.4192V83.424ZM135.144 86.5787C133.885 86.5787 132.864 87.5988 132.864 88.858C132.864 90.1167 133.885 91.138 135.144 91.138C136.403 91.138 137.424 90.1167 137.424 88.858C137.424 87.5992 136.403 86.578 135.144 86.578V86.5787ZM125.002 89.2427C119.613 89.2427 115.244 93.6115 115.244 99C115.244 104.388 119.613 108.755 125.002 108.755C130.39 108.755 134.758 104.388 134.758 99C134.758 93.6115 130.39 89.2427 125.002 89.2427ZM125.002 92.6667C128.499 92.6667 131.335 95.502 131.335 99C131.335 102.498 128.499 105.333 125.002 105.333C121.504 105.333 118.668 102.498 118.668 99C118.668 95.502 121.504 92.6667 125.002 92.6667Z"
                fill="white" />
        </mask>
        <g mask="url(#mask3_318_659)">
            <g filter="url(#filter8_d_318_659)">
                <rect x="106" y="80" width="47.9993" height="47.9981" fill="#7A07A3" />
            </g>
        </g>
    </g>
    <g opacity="0.25" filter="url(#filter9_f_318_659)">
        <mask id="mask4_318_659" style="mask-type:alpha" maskUnits="userSpaceOnUse" x="98" y="72" width="48"
            height="48">
            <path
                d="M117.002 72C111.842 72 111.194 72.0226 109.167 72.1148C107.145 72.2074 105.764 72.5276 104.556 72.9975C103.306 73.4828 102.246 74.132 101.19 75.1884C100.133 76.2445 99.484 77.3046 98.9971 78.5538C98.5261 79.7623 98.2054 81.1434 98.1144 83.1653C98.0238 85.1919 98 85.8399 98 91C98 96.1601 98.023 96.8057 98.1148 98.8324C98.2078 100.855 98.528 102.236 98.9975 103.444C99.4832 104.693 100.132 105.754 101.189 106.81C102.245 107.866 103.305 108.517 104.553 109.003C105.762 109.472 107.143 109.793 109.166 109.885C111.192 109.977 111.84 110 116.999 110C122.16 110 122.806 109.977 124.832 109.885C126.855 109.793 128.237 109.472 129.446 109.003C130.695 108.517 131.754 107.866 132.81 106.81C133.866 105.754 134.516 104.693 135.002 103.444C135.47 102.236 135.79 100.855 135.885 98.8328C135.976 96.8061 136 96.1601 136 91C136 85.8399 135.976 85.1923 135.885 83.1657C135.79 81.143 135.47 79.7623 135.002 78.5542C134.516 77.3046 133.866 76.2445 132.81 75.1884C131.753 74.1316 130.696 73.4824 129.445 72.9975C128.234 72.5276 126.852 72.2074 124.829 72.1148C122.803 72.0226 122.158 72 116.996 72H117.002ZM115.297 75.424C115.803 75.4232 116.368 75.424 117.002 75.424C122.075 75.424 122.676 75.4422 124.679 75.5332C126.532 75.6179 127.537 75.9275 128.207 76.1875C129.094 76.5319 129.726 76.9436 130.391 77.6086C131.056 78.2736 131.467 78.9069 131.812 79.7936C132.072 80.4625 132.382 81.4679 132.467 83.3204C132.558 85.3234 132.578 85.925 132.578 90.9956C132.578 96.0663 132.558 96.6679 132.467 98.6709C132.382 100.523 132.072 101.529 131.812 102.198C131.468 103.084 131.056 103.716 130.391 104.38C129.726 105.045 129.094 105.457 128.207 105.801C127.538 106.063 126.532 106.371 124.679 106.456C122.677 106.547 122.075 106.567 117.002 106.567C111.928 106.567 111.327 106.547 109.324 106.456C107.472 106.371 106.466 106.061 105.796 105.801C104.909 105.457 104.276 105.045 103.611 104.38C102.946 103.715 102.534 103.083 102.189 102.196C101.929 101.527 101.619 100.522 101.535 98.6693C101.444 96.6664 101.426 96.0647 101.426 90.9909C101.426 85.9171 101.444 85.3186 101.535 83.3157C101.62 81.4632 101.929 80.4578 102.189 79.788C102.534 78.9014 102.946 78.268 103.611 77.603C104.276 76.938 104.909 76.5264 105.796 76.1812C106.466 75.9199 107.472 75.6112 109.324 75.5261C111.077 75.4469 111.756 75.4232 115.297 75.4192V75.424ZM127.144 78.5787C125.885 78.5787 124.864 79.5988 124.864 80.858C124.864 82.1167 125.885 83.138 127.144 83.138C128.403 83.138 129.424 82.1167 129.424 80.858C129.424 79.5992 128.403 78.578 127.144 78.578V78.5787ZM117.002 81.2427C111.613 81.2427 107.244 85.6115 107.244 91C107.244 96.3885 111.613 100.755 117.002 100.755C122.39 100.755 126.758 96.3885 126.758 91C126.758 85.6115 122.39 81.2427 117.002 81.2427ZM117.002 84.6667C120.499 84.6667 123.335 87.502 123.335 91C123.335 94.4976 120.499 97.3333 117.002 97.3333C113.504 97.3333 110.668 94.4976 110.668 91C110.668 87.502 113.504 84.6667 117.002 84.6667Z"
                fill="white" />
        </mask>
        <g mask="url(#mask4_318_659)">
            <g filter="url(#filter10_d_318_659)">
                <rect x="98" y="72" width="47.9993" height="47.9981" fill="#7A07A3" />
            </g>
        </g>
    </g>
    <g opacity="0.3" filter="url(#filter11_f_318_659)">
        <mask id="mask5_318_659" style="mask-type:alpha" maskUnits="userSpaceOnUse" x="90" y="64" width="48"
            height="48">
            <path
                d="M109.002 64C103.842 64 103.194 64.0226 101.167 64.1148C99.1446 64.2074 97.764 64.5276 96.5559 64.9975C95.3062 65.4828 94.2461 66.132 93.1901 67.1884C92.1332 68.2445 91.484 69.3046 90.9971 70.5538C90.5261 71.7623 90.2054 73.1434 90.1144 75.1653C90.0238 77.1919 90 77.8399 90 83C90 88.1601 90.023 88.8057 90.1148 90.8324C90.2078 92.8551 90.528 94.2357 90.9975 95.4438C91.4832 96.6935 92.1324 97.7535 93.1889 98.8096C94.2446 99.8665 95.3046 100.517 96.5535 101.003C97.7624 101.472 99.1434 101.793 101.166 101.885C103.192 101.977 103.84 102 108.999 102C114.16 102 114.806 101.977 116.832 101.885C118.855 101.793 120.237 101.472 121.446 101.003C122.695 100.517 123.754 99.8665 124.81 98.8096C125.866 97.7535 126.516 96.6935 127.002 95.4442C127.47 94.2357 127.79 92.8547 127.885 90.8328C127.976 88.8061 128 88.1601 128 83C128 77.8399 127.976 77.1923 127.885 75.1657C127.79 73.143 127.47 71.7623 127.002 70.5542C126.516 69.3046 125.866 68.2445 124.81 67.1884C123.753 66.1316 122.696 65.4824 121.445 64.9975C120.234 64.5276 118.852 64.2074 116.829 64.1148C114.803 64.0226 114.158 64 108.996 64H109.002ZM107.297 67.424C107.803 67.4232 108.368 67.424 109.002 67.424C114.075 67.424 114.676 67.4422 116.679 67.5332C118.532 67.6179 119.537 67.9275 120.207 68.1875C121.094 68.5319 121.726 68.9436 122.391 69.6086C123.056 70.2736 123.467 70.9069 123.812 71.7936C124.072 72.4625 124.382 73.4679 124.467 75.3204C124.558 77.3234 124.578 77.925 124.578 82.9956C124.578 88.0663 124.558 88.6679 124.467 90.6709C124.382 92.5234 124.072 93.5288 123.812 94.1977C123.468 95.0844 123.056 95.7158 122.391 96.3804C121.726 97.0454 121.094 97.457 120.207 97.8014C119.538 98.0626 118.532 98.3714 116.679 98.4561C114.677 98.5471 114.075 98.5669 109.002 98.5669C103.928 98.5669 103.327 98.5471 101.324 98.4561C99.4716 98.3706 98.4662 98.0611 97.796 97.801C96.9093 97.4566 96.276 97.045 95.611 96.38C94.946 95.715 94.5343 95.0832 94.1891 94.1961C93.9291 93.5272 93.6191 92.5218 93.5348 90.6693C93.4438 88.6664 93.4256 88.0647 93.4256 82.9909C93.4256 77.9171 93.4438 77.3186 93.5348 75.3157C93.6195 73.4632 93.9291 72.4578 94.1891 71.788C94.5335 70.9014 94.946 70.268 95.611 69.603C96.276 68.938 96.9093 68.5264 97.796 68.1812C98.4658 67.9199 99.4716 67.6112 101.324 67.5261C103.077 67.4469 103.756 67.4232 107.297 67.4192V67.424ZM119.144 70.5787C117.885 70.5787 116.864 71.5988 116.864 72.858C116.864 74.1167 117.885 75.138 119.144 75.138C120.403 75.138 121.424 74.1167 121.424 72.858C121.424 71.5992 120.403 70.578 119.144 70.578V70.5787ZM109.002 73.2427C103.613 73.2427 99.2444 77.6115 99.2444 83C99.2444 88.3885 103.613 92.7553 109.002 92.7553C114.39 92.7553 118.758 88.3885 118.758 83C118.758 77.6115 114.39 73.2427 109.002 73.2427ZM109.002 76.6667C112.499 76.6667 115.335 79.502 115.335 83C115.335 86.4976 112.499 89.3333 109.002 89.3333C105.504 89.3333 102.668 86.4976 102.668 83C102.668 79.502 105.504 76.6667 109.002 76.6667Z"
                fill="white" />
        </mask>
        <g mask="url(#mask5_318_659)">
            <g filter="url(#filter12_d_318_659)">
                <rect x="90" y="64" width="47.9993" height="47.9981" fill="#7A07A3" />
            </g>
        </g>
    </g>
    <g opacity="0.35" filter="url(#filter13_f_318_659)">
        <mask id="mask6_318_659" style="mask-type:alpha" maskUnits="userSpaceOnUse" x="82" y="56" width="48"
            height="48">
            <path
                d="M101.002 56C95.8416 56 95.1941 56.0226 93.1674 56.1148C91.1446 56.2074 89.764 56.5276 88.5559 56.9975C87.3062 57.4828 86.2461 58.132 85.1901 59.1884C84.1332 60.2445 83.484 61.3046 82.9971 62.5538C82.5261 63.7623 82.2054 65.1434 82.1144 67.1653C82.0238 69.1919 82 69.8399 82 75C82 80.1601 82.023 80.8057 82.1148 82.8324C82.2078 84.8551 82.528 86.2357 82.9975 87.4438C83.4832 88.6935 84.1324 89.7535 85.1889 90.8096C86.2446 91.8665 87.3046 92.5172 88.5535 93.0025C89.7624 93.4724 91.1434 93.7926 93.1658 93.8852C95.1925 93.9774 95.8397 94 100.999 94C106.16 94 106.806 93.9774 108.832 93.8852C110.855 93.7926 112.237 93.4724 113.446 93.0025C114.695 92.5172 115.754 91.8665 116.81 90.8096C117.866 89.7535 118.516 88.6935 119.002 87.4442C119.47 86.2357 119.79 84.8547 119.885 82.8328C119.976 80.8061 120 80.1601 120 75C120 69.8399 119.976 69.1923 119.885 67.1657C119.79 65.143 119.47 63.7623 119.002 62.5542C118.516 61.3046 117.866 60.2445 116.81 59.1884C115.753 58.1316 114.696 57.4824 113.445 56.9975C112.234 56.5276 110.852 56.2074 108.829 56.1148C106.803 56.0226 106.158 56 100.996 56H101.002ZM99.2973 59.424C99.8032 59.4232 100.368 59.424 101.002 59.424C106.075 59.424 106.676 59.4422 108.679 59.5332C110.532 59.6179 111.537 59.9275 112.207 60.1875C113.094 60.5319 113.726 60.9436 114.391 61.6086C115.056 62.2736 115.467 62.9069 115.812 63.7936C116.072 64.4625 116.382 65.4679 116.467 67.3204C116.558 69.3234 116.578 69.925 116.578 74.9956C116.578 80.0663 116.558 80.6679 116.467 82.6709C116.382 84.5234 116.072 85.5288 115.812 86.1977C115.468 87.0844 115.056 87.7158 114.391 88.3804C113.726 89.0454 113.094 89.457 112.207 89.8014C111.538 90.0626 110.532 90.3714 108.679 90.4561C106.677 90.5471 106.075 90.5669 101.002 90.5669C95.9283 90.5669 95.3271 90.5471 93.3241 90.4561C91.4716 90.3706 90.4662 90.0611 89.796 89.801C88.9093 89.4566 88.276 89.045 87.611 88.38C86.946 87.715 86.5343 87.0832 86.1891 86.1961C85.9291 85.5272 85.6191 84.5218 85.5348 82.6693C85.4438 80.6664 85.4256 80.0647 85.4256 74.9909C85.4256 69.9171 85.4438 69.3186 85.5348 67.3157C85.6195 65.4632 85.9291 64.4578 86.1891 63.788C86.5335 62.9014 86.946 62.268 87.611 61.603C88.276 60.938 88.9093 60.5264 89.796 60.1812C90.4658 59.9199 91.4716 59.6112 93.3241 59.5261C95.0769 59.4469 95.7561 59.4232 99.2973 59.4192V59.424ZM111.144 62.5787C109.885 62.5787 108.864 63.5988 108.864 64.858C108.864 66.1167 109.885 67.138 111.144 67.138C112.403 67.138 113.424 66.1167 113.424 64.858C113.424 63.5992 112.403 62.578 111.144 62.578V62.5787ZM101.002 65.2427C95.6132 65.2427 91.2444 69.6115 91.2444 75C91.2444 80.3885 95.6132 84.7553 101.002 84.7553C106.39 84.7553 110.758 80.3885 110.758 75C110.758 69.6115 106.39 65.2427 101.002 65.2427ZM101.002 68.6667C104.499 68.6667 107.335 71.502 107.335 75C107.335 78.4976 104.499 81.3333 101.002 81.3333C97.5038 81.3333 94.6684 78.4976 94.6684 75C94.6684 71.502 97.5038 68.6667 101.002 68.6667Z"
                fill="white" />
        </mask>
        <g mask="url(#mask6_318_659)">
            <g filter="url(#filter14_d_318_659)">
                <rect x="82" y="56" width="47.9993" height="47.9981" fill="#7A07A3" />
            </g>
        </g>
    </g>
    <g opacity="0.4" filter="url(#filter15_f_318_659)">
        <mask id="mask7_318_659" style="mask-type:alpha" maskUnits="userSpaceOnUse" x="81" y="55" width="48"
            height="48">
            <path
                d="M100.002 55C94.8416 55 94.1941 55.0226 92.1674 55.1148C90.1446 55.2074 88.764 55.5276 87.5559 55.9975C86.3062 56.4828 85.2461 57.132 84.1901 58.1884C83.1332 59.2445 82.484 60.3046 81.9971 61.5538C81.5261 62.7623 81.2054 64.1434 81.1144 66.1653C81.0238 68.1919 81 68.8399 81 74C81 79.1601 81.023 79.8057 81.1148 81.8324C81.2078 83.8551 81.528 85.2357 81.9975 86.4438C82.4832 87.6935 83.1324 88.7535 84.1889 89.8096C85.2446 90.8665 86.3046 91.5172 87.5535 92.0025C88.7624 92.4724 90.1434 92.7926 92.1658 92.8852C94.1925 92.9774 94.8397 93 99.9994 93C105.16 93 105.806 92.9774 107.832 92.8852C109.855 92.7926 111.237 92.4724 112.446 92.0025C113.695 91.5172 114.754 90.8665 115.81 89.8096C116.866 88.7535 117.516 87.6935 118.002 86.4442C118.47 85.2357 118.79 83.8547 118.885 81.8328C118.976 79.8061 119 79.1601 119 74C119 68.8399 118.976 68.1923 118.885 66.1657C118.79 64.143 118.47 62.7623 118.002 61.5542C117.516 60.3046 116.866 59.2445 115.81 58.1884C114.753 57.1316 113.696 56.4824 112.445 55.9975C111.234 55.5276 109.852 55.2074 107.829 55.1148C105.803 55.0226 105.158 55 99.9958 55H100.002ZM98.2973 58.424C98.8032 58.4232 99.3676 58.424 100.002 58.424C105.075 58.424 105.676 58.4422 107.679 58.5332C109.532 58.6179 110.537 58.9275 111.207 59.1875C112.094 59.5319 112.726 59.9436 113.391 60.6086C114.056 61.2736 114.467 61.9069 114.812 62.7936C115.072 63.4625 115.382 64.4679 115.467 66.3204C115.558 68.3234 115.578 68.925 115.578 73.9956C115.578 79.0663 115.558 79.6679 115.467 81.6709C115.382 83.5234 115.072 84.5288 114.812 85.1977C114.468 86.0844 114.056 86.7158 113.391 87.3804C112.726 88.0454 112.094 88.457 111.207 88.8014C110.538 89.0626 109.532 89.3714 107.679 89.4561C105.677 89.5471 105.075 89.5669 100.002 89.5669C94.9283 89.5669 94.3271 89.5471 92.3241 89.4561C90.4716 89.3706 89.4662 89.0611 88.796 88.801C87.9093 88.4566 87.276 88.045 86.611 87.38C85.946 86.715 85.5343 86.0832 85.1891 85.1961C84.9291 84.5272 84.6191 83.5218 84.5348 81.6693C84.4438 79.6664 84.4256 79.0647 84.4256 73.9909C84.4256 68.9171 84.4438 68.3186 84.5348 66.3157C84.6195 64.4632 84.9291 63.4578 85.1891 62.788C85.5335 61.9014 85.946 61.268 86.611 60.603C87.276 59.938 87.9093 59.5264 88.796 59.1812C89.4658 58.9199 90.4716 58.6112 92.3241 58.5261C94.0769 58.4469 94.7561 58.4232 98.2973 58.4192V58.424ZM110.144 61.5787C108.885 61.5787 107.864 62.5988 107.864 63.858C107.864 65.1167 108.885 66.138 110.144 66.138C111.403 66.138 112.424 65.1167 112.424 63.858C112.424 62.5992 111.403 61.578 110.144 61.578V61.5787ZM100.002 64.2427C94.6132 64.2427 90.2444 68.6115 90.2444 74C90.2444 79.3885 94.6132 83.7553 100.002 83.7553C105.39 83.7553 109.758 79.3885 109.758 74C109.758 68.6115 105.39 64.2427 100.002 64.2427ZM100.002 67.6667C103.499 67.6667 106.335 70.502 106.335 74C106.335 77.4976 103.499 80.3333 100.002 80.3333C96.5038 80.3333 93.6684 77.4976 93.6684 74C93.6684 70.502 96.5038 67.6667 100.002 67.6667Z"
                fill="white" />
        </mask>
        <g mask="url(#mask7_318_659)">
            <g filter="url(#filter16_d_318_659)">
                <rect x="81" y="55" width="47.9993" height="47.9981" fill="#7A07A3" />
            </g>
        </g>
    </g>
    <g opacity="0.45" filter="url(#filter17_f_318_659)">
        <mask id="mask8_318_659" style="mask-type:alpha" maskUnits="userSpaceOnUse" x="77" y="51" width="48"
            height="48">
            <path
                d="M96.0018 51C90.8416 51 90.1941 51.0226 88.1674 51.1148C86.1446 51.2074 84.764 51.5276 83.5559 51.9975C82.3062 52.4828 81.2461 53.132 80.1901 54.1884C79.1332 55.2445 78.484 56.3046 77.9971 57.5538C77.5261 58.7623 77.2054 60.1434 77.1144 62.1653C77.0238 64.1919 77 64.8399 77 70C77 75.1601 77.023 75.8057 77.1148 77.8324C77.2078 79.8551 77.528 81.2357 77.9975 82.4438C78.4832 83.6935 79.1324 84.7535 80.1889 85.8096C81.2446 86.8665 82.3046 87.5172 83.5535 88.0025C84.7624 88.4724 86.1434 88.7926 88.1658 88.8852C90.1925 88.9774 90.8397 89 95.9994 89C101.16 89 101.806 88.9774 103.832 88.8852C105.855 88.7926 107.237 88.4724 108.446 88.0025C109.695 87.5172 110.754 86.8665 111.81 85.8096C112.866 84.7535 113.516 83.6935 114.002 82.4442C114.47 81.2357 114.79 79.8547 114.885 77.8328C114.976 75.8061 115 75.1601 115 70C115 64.8399 114.976 64.1923 114.885 62.1657C114.79 60.143 114.47 58.7623 114.002 57.5542C113.516 56.3046 112.866 55.2445 111.81 54.1884C110.753 53.1316 109.696 52.4824 108.445 51.9975C107.234 51.5276 105.852 51.2074 103.829 51.1148C101.803 51.0226 101.158 51 95.9958 51H96.0018ZM94.2973 54.424C94.8032 54.4232 95.3676 54.424 96.0018 54.424C101.075 54.424 101.676 54.4422 103.679 54.5332C105.532 54.6179 106.537 54.9275 107.207 55.1875C108.094 55.5319 108.726 55.9436 109.391 56.6086C110.056 57.2736 110.467 57.9069 110.812 58.7936C111.072 59.4625 111.382 60.4679 111.467 62.3204C111.558 64.3234 111.578 64.925 111.578 69.9956C111.578 75.0663 111.558 75.6679 111.467 77.6709C111.382 79.5234 111.072 80.5288 110.812 81.1977C110.468 82.0844 110.056 82.7158 109.391 83.3804C108.726 84.0454 108.094 84.457 107.207 84.8014C106.538 85.0626 105.532 85.3714 103.679 85.4561C101.677 85.5471 101.075 85.5669 96.0018 85.5669C90.9283 85.5669 90.3271 85.5471 88.3241 85.4561C86.4716 85.3706 85.4662 85.0611 84.796 84.801C83.9093 84.4566 83.276 84.045 82.611 83.38C81.946 82.715 81.5343 82.0832 81.1891 81.1961C80.9291 80.5272 80.6191 79.5218 80.5348 77.6693C80.4438 75.6664 80.4256 75.0647 80.4256 69.9909C80.4256 64.9171 80.4438 64.3186 80.5348 62.3157C80.6195 60.4632 80.9291 59.4578 81.1891 58.788C81.5335 57.9014 81.946 57.268 82.611 56.603C83.276 55.938 83.9093 55.5264 84.796 55.1812C85.4658 54.9199 86.4716 54.6112 88.3241 54.5261C90.0769 54.4469 90.7561 54.4232 94.2973 54.4192V54.424ZM106.144 57.5787C104.885 57.5787 103.864 58.5988 103.864 59.858C103.864 61.1167 104.885 62.138 106.144 62.138C107.403 62.138 108.424 61.1167 108.424 59.858C108.424 58.5992 107.403 57.578 106.144 57.578V57.5787ZM96.0018 60.2427C90.6132 60.2427 86.2444 64.6115 86.2444 70C86.2444 75.3885 90.6132 79.7553 96.0018 79.7553C101.39 79.7553 105.758 75.3885 105.758 70C105.758 64.6115 101.39 60.2427 96.0018 60.2427ZM96.0018 63.6667C99.4994 63.6667 102.335 66.502 102.335 70C102.335 73.4976 99.4994 76.3333 96.0018 76.3333C92.5038 76.3333 89.6684 73.4976 89.6684 70C89.6684 66.502 92.5038 63.6667 96.0018 63.6667Z"
                fill="white" />
        </mask>
        <g mask="url(#mask8_318_659)">
            <g filter="url(#filter18_d_318_659)">
                <rect x="77" y="51" width="47.9993" height="47.9981" fill="#7A07A3" />
            </g>
        </g>
    </g>
    <g opacity="0.5" filter="url(#filter19_f_318_659)">
        <mask id="mask9_318_659" style="mask-type:alpha" maskUnits="userSpaceOnUse" x="73" y="47" width="48"
            height="48">
            <path
                d="M92.0018 47C86.8416 47 86.1941 47.0226 84.1674 47.1148C82.1446 47.2074 80.764 47.5276 79.5559 47.9975C78.3062 48.4828 77.2461 49.132 76.1901 50.1884C75.1332 51.2445 74.484 52.3046 73.9971 53.5538C73.5261 54.7623 73.2054 56.1434 73.1144 58.1653C73.0238 60.1919 73 60.8399 73 66C73 71.1601 73.023 71.8057 73.1148 73.8324C73.2078 75.8551 73.528 77.2357 73.9975 78.4438C74.4832 79.6935 75.1324 80.7535 76.1889 81.8096C77.2446 82.8665 78.3046 83.5172 79.5535 84.0025C80.7624 84.4724 82.1434 84.7926 84.1658 84.8852C86.1925 84.9774 86.8397 85 91.9994 85C97.1599 85 97.8056 84.9774 99.8322 84.8852C101.855 84.7926 103.237 84.4724 104.446 84.0025C105.695 83.5172 106.754 82.8665 107.81 81.8096C108.866 80.7535 109.516 79.6935 110.002 78.4442C110.47 77.2357 110.79 75.8547 110.885 73.8328C110.976 71.8061 111 71.1601 111 66C111 60.8399 110.976 60.1923 110.885 58.1657C110.79 56.143 110.47 54.7623 110.002 53.5542C109.516 52.3046 108.866 51.2445 107.81 50.1884C106.753 49.1316 105.696 48.4824 104.445 47.9975C103.234 47.5276 101.852 47.2074 99.8295 47.1148C97.8028 47.0226 97.1576 47 91.9958 47H92.0018ZM90.2973 50.424C90.8032 50.4232 91.3676 50.424 92.0018 50.424C97.0748 50.424 97.6761 50.4422 99.6794 50.5332C101.532 50.6179 102.537 50.9275 103.207 51.1875C104.094 51.5319 104.726 51.9436 105.391 52.6086C106.056 53.2736 106.467 53.9069 106.812 54.7936C107.072 55.4625 107.382 56.4679 107.467 58.3204C107.558 60.3234 107.578 60.925 107.578 65.9956C107.578 71.0663 107.558 71.6679 107.467 73.6709C107.382 75.5234 107.072 76.5288 106.812 77.1977C106.468 78.0844 106.056 78.7158 105.391 79.3804C104.726 80.0454 104.094 80.457 103.207 80.8014C102.538 81.0626 101.532 81.3714 99.6794 81.4561C97.6765 81.5471 97.0748 81.5669 92.0018 81.5669C86.9283 81.5669 86.3271 81.5471 84.3241 81.4561C82.4716 81.3706 81.4662 81.0611 80.796 80.801C79.9093 80.4566 79.276 80.045 78.611 79.38C77.946 78.715 77.5343 78.0832 77.1891 77.1961C76.9291 76.5272 76.6191 75.5218 76.5348 73.6693C76.4438 71.6664 76.4256 71.0647 76.4256 65.9909C76.4256 60.9171 76.4438 60.3186 76.5348 58.3157C76.6195 56.4632 76.9291 55.4578 77.1891 54.788C77.5335 53.9014 77.946 53.268 78.611 52.603C79.276 51.938 79.9093 51.5264 80.796 51.1812C81.4658 50.9199 82.4716 50.6112 84.3241 50.5261C86.0769 50.4469 86.7561 50.4232 90.2973 50.4192V50.424ZM102.144 53.5787C100.885 53.5787 99.8639 54.5988 99.8639 55.858C99.8639 57.1167 100.885 58.138 102.144 58.138C103.403 58.138 104.424 57.1167 104.424 55.858C104.424 54.5992 103.403 53.578 102.144 53.578V53.5787ZM92.0018 56.2427C86.6132 56.2427 82.2444 60.6115 82.2444 66C82.2444 71.3885 86.6132 75.7553 92.0018 75.7553C97.3903 75.7553 101.758 71.3885 101.758 66C101.758 60.6115 97.3903 56.2427 92.0018 56.2427ZM92.0018 59.6667C95.4994 59.6667 98.3352 62.502 98.3352 66C98.3352 69.4976 95.4994 72.3333 92.0018 72.3333C88.5038 72.3333 85.6684 69.4976 85.6684 66C85.6684 62.502 88.5038 59.6667 92.0018 59.6667Z"
                fill="white" />
        </mask>
        <g mask="url(#mask9_318_659)">
            <g filter="url(#filter20_d_318_659)">
                <rect x="73" y="47" width="47.9993" height="47.9981" fill="#7A07A3" />
            </g>
        </g>
    </g>
    <g opacity="0.55" filter="url(#filter21_f_318_659)">
        <mask id="mask10_318_659" style="mask-type:alpha" maskUnits="userSpaceOnUse" x="71" y="45" width="48"
            height="48">
            <path
                d="M90.0018 45C84.8416 45 84.1941 45.0226 82.1674 45.1148C80.1446 45.2074 78.764 45.5276 77.5559 45.9975C76.3062 46.4828 75.2461 47.132 74.1901 48.1884C73.1332 49.2445 72.484 50.3046 71.9971 51.5538C71.5261 52.7623 71.2054 54.1434 71.1144 56.1653C71.0238 58.1919 71 58.8399 71 64C71 69.1601 71.023 69.8057 71.1148 71.8324C71.2078 73.8551 71.528 75.2357 71.9975 76.4438C72.4832 77.6935 73.1324 78.7535 74.1889 79.8096C75.2446 80.8665 76.3046 81.5172 77.5535 82.0025C78.7624 82.4724 80.1434 82.7926 82.1658 82.8852C84.1925 82.9774 84.8397 83 89.9994 83C95.1599 83 95.8056 82.9774 97.8322 82.8852C99.855 82.7926 101.237 82.4724 102.446 82.0025C103.695 81.5172 104.754 80.8665 105.81 79.8096C106.866 78.7535 107.516 77.6935 108.002 76.4442C108.47 75.2357 108.79 73.8547 108.885 71.8328C108.976 69.8061 109 69.1601 109 64C109 58.8399 108.976 58.1923 108.885 56.1657C108.79 54.143 108.47 52.7623 108.002 51.5542C107.516 50.3046 106.866 49.2445 105.81 48.1884C104.753 47.1316 103.696 46.4824 102.445 45.9975C101.234 45.5276 99.8522 45.2074 97.8295 45.1148C95.8028 45.0226 95.1576 45 89.9958 45H90.0018ZM88.2973 48.424C88.8032 48.4232 89.3676 48.424 90.0018 48.424C95.0748 48.424 95.6761 48.4422 97.6794 48.5332C99.532 48.6179 100.537 48.9275 101.207 49.1875C102.094 49.5319 102.726 49.9436 103.391 50.6086C104.056 51.2736 104.467 51.9069 104.812 52.7936C105.072 53.4625 105.382 54.4679 105.467 56.3204C105.558 58.3234 105.578 58.925 105.578 63.9956C105.578 69.0663 105.558 69.6679 105.467 71.6709C105.382 73.5234 105.072 74.5288 104.812 75.1977C104.468 76.0844 104.056 76.7158 103.391 77.3804C102.726 78.0454 102.094 78.457 101.207 78.8014C100.538 79.0626 99.532 79.3714 97.6794 79.4561C95.6765 79.5471 95.0748 79.5669 90.0018 79.5669C84.9283 79.5669 84.3271 79.5471 82.3241 79.4561C80.4716 79.3706 79.4662 79.0611 78.796 78.801C77.9093 78.4566 77.276 78.045 76.611 77.38C75.946 76.715 75.5343 76.0832 75.1891 75.1961C74.9291 74.5272 74.6191 73.5218 74.5348 71.6693C74.4438 69.6664 74.4256 69.0647 74.4256 63.9909C74.4256 58.9171 74.4438 58.3186 74.5348 56.3157C74.6195 54.4632 74.9291 53.4578 75.1891 52.788C75.5335 51.9014 75.946 51.268 76.611 50.603C77.276 49.938 77.9093 49.5264 78.796 49.1812C79.4658 48.9199 80.4716 48.6112 82.3241 48.5261C84.0769 48.4469 84.7561 48.4232 88.2973 48.4192V48.424ZM100.144 51.5787C98.8852 51.5787 97.8639 52.5988 97.8639 53.858C97.8639 55.1167 98.8852 56.138 100.144 56.138C101.403 56.138 102.424 55.1167 102.424 53.858C102.424 52.5992 101.403 51.578 100.144 51.578V51.5787ZM90.0018 54.2427C84.6132 54.2427 80.2444 58.6115 80.2444 64C80.2444 69.3885 84.6132 73.7553 90.0018 73.7553C95.3903 73.7553 99.7576 69.3885 99.7576 64C99.7576 58.6115 95.3903 54.2427 90.0018 54.2427ZM90.0018 57.6667C93.4994 57.6667 96.3352 60.502 96.3352 64C96.3352 67.4976 93.4994 70.3333 90.0018 70.3333C86.5038 70.3333 83.6684 67.4976 83.6684 64C83.6684 60.502 86.5038 57.6667 90.0018 57.6667Z"
                fill="white" />
        </mask>
        <g mask="url(#mask10_318_659)">
            <g filter="url(#filter22_d_318_659)">
                <rect x="71" y="45" width="47.9993" height="47.9981" fill="#7A07A3" />
            </g>
        </g>
    </g>
    <g opacity="0.6" filter="url(#filter23_f_318_659)">
        <mask id="mask11_318_659" style="mask-type:alpha" maskUnits="userSpaceOnUse" x="69" y="43" width="48"
            height="48">
            <path
                d="M88.0018 43C82.8416 43 82.1941 43.0226 80.1674 43.1148C78.1446 43.2074 76.764 43.5276 75.5559 43.9975C74.3062 44.4828 73.2461 45.132 72.1901 46.1884C71.1332 47.2445 70.484 48.3046 69.9971 49.5538C69.5261 50.7623 69.2054 52.1434 69.1144 54.1653C69.0238 56.1919 69 56.8399 69 62C69 67.1601 69.023 67.8057 69.1148 69.8324C69.2078 71.8551 69.528 73.2357 69.9975 74.4438C70.4832 75.6935 71.1324 76.7535 72.1889 77.8096C73.2446 78.8665 74.3046 79.5172 75.5535 80.0025C76.7624 80.4724 78.1434 80.7926 80.1658 80.8852C82.1925 80.9774 82.8397 81 87.9994 81C93.1599 81 93.8056 80.9774 95.8322 80.8852C97.855 80.7926 99.2372 80.4724 100.446 80.0025C101.695 79.5172 102.754 78.8665 103.81 77.8096C104.866 76.7535 105.516 75.6935 106.002 74.4442C106.47 73.2357 106.79 71.8547 106.885 69.8328C106.976 67.8061 107 67.1601 107 62C107 56.8399 106.976 56.1923 106.885 54.1657C106.79 52.143 106.47 50.7623 106.002 49.5542C105.516 48.3046 104.866 47.2445 103.81 46.1884C102.753 45.1316 101.696 44.4824 100.445 43.9975C99.2337 43.5276 97.8522 43.2074 95.8295 43.1148C93.8028 43.0226 93.1576 43 87.9958 43H88.0018ZM86.2973 46.424C86.8032 46.4232 87.3676 46.424 88.0018 46.424C93.0748 46.424 93.6761 46.4422 95.6794 46.5332C97.532 46.6179 98.5374 46.9275 99.2071 47.1875C100.094 47.5319 100.726 47.9436 101.391 48.6086C102.056 49.2736 102.467 49.9069 102.812 50.7936C103.072 51.4625 103.382 52.4679 103.467 54.3204C103.558 56.3234 103.578 56.925 103.578 61.9956C103.578 67.0663 103.558 67.6679 103.467 69.6709C103.382 71.5234 103.072 72.5288 102.812 73.1977C102.468 74.0844 102.056 74.7158 101.391 75.3804C100.726 76.0454 100.094 76.457 99.2071 76.8014C98.5382 77.0626 97.532 77.3714 95.6794 77.4561C93.6765 77.5471 93.0748 77.5669 88.0018 77.5669C82.9283 77.5669 82.3271 77.5471 80.3241 77.4561C78.4716 77.3706 77.4662 77.0611 76.796 76.801C75.9093 76.4566 75.276 76.045 74.611 75.38C73.946 74.715 73.5343 74.0832 73.1891 73.1961C72.9291 72.5272 72.6191 71.5218 72.5348 69.6693C72.4438 67.6664 72.4256 67.0647 72.4256 61.9909C72.4256 56.9171 72.4438 56.3186 72.5348 54.3157C72.6195 52.4632 72.9291 51.4578 73.1891 50.788C73.5335 49.9014 73.946 49.268 74.611 48.603C75.276 47.938 75.9093 47.5264 76.796 47.1812C77.4658 46.9199 78.4716 46.6112 80.3241 46.5261C82.0769 46.4469 82.7561 46.4232 86.2973 46.4192V46.424ZM98.1439 49.5787C96.8852 49.5787 95.8639 50.5988 95.8639 51.858C95.8639 53.1167 96.8852 54.138 98.1439 54.138C99.4027 54.138 100.424 53.1167 100.424 51.858C100.424 50.5992 99.4027 49.578 98.1439 49.578V49.5787ZM88.0018 52.2427C82.6132 52.2427 78.2444 56.6115 78.2444 62C78.2444 67.3885 82.6132 71.7553 88.0018 71.7553C93.3903 71.7553 97.7576 67.3885 97.7576 62C97.7576 56.6115 93.3903 52.2427 88.0018 52.2427ZM88.0018 55.6667C91.4994 55.6667 94.3352 58.502 94.3352 62C94.3352 65.4976 91.4994 68.3333 88.0018 68.3333C84.5038 68.3333 81.6684 65.4976 81.6684 62C81.6684 58.502 84.5038 55.6667 88.0018 55.6667Z"
                fill="white" />
        </mask>
        <g mask="url(#mask11_318_659)">
            <g filter="url(#filter24_d_318_659)">
                <rect x="69" y="43" width="47.9993" height="47.9981" fill="#7A07A3" />
            </g>
        </g>
    </g>
    <g opacity="0.6" filter="url(#filter25_f_318_659)">
        <mask id="mask12_318_659" style="mask-type:alpha" maskUnits="userSpaceOnUse" x="68" y="42" width="48"
            height="48">
            <path
                d="M87.0018 42C81.8416 42 81.1941 42.0226 79.1674 42.1148C77.1446 42.2074 75.764 42.5276 74.5559 42.9975C73.3062 43.4828 72.2461 44.132 71.1901 45.1884C70.1332 46.2445 69.484 47.3046 68.9971 48.5538C68.5261 49.7623 68.2054 51.1434 68.1144 53.1653C68.0238 55.1919 68 55.8399 68 61C68 66.1601 68.023 66.8057 68.1148 68.8324C68.2078 70.8551 68.528 72.2357 68.9975 73.4438C69.4832 74.6935 70.1324 75.7535 71.1889 76.8096C72.2446 77.8665 73.3046 78.5172 74.5535 79.0025C75.7624 79.4724 77.1434 79.7926 79.1658 79.8852C81.1925 79.9774 81.8397 80 86.9994 80C92.1599 80 92.8056 79.9774 94.8322 79.8852C96.855 79.7926 98.2372 79.4724 99.4461 79.0025C100.695 78.5172 101.754 77.8665 102.81 76.8096C103.866 75.7535 104.516 74.6935 105.002 73.4442C105.47 72.2357 105.79 70.8547 105.885 68.8328C105.976 66.8061 106 66.1601 106 61C106 55.8399 105.976 55.1923 105.885 53.1657C105.79 51.143 105.47 49.7623 105.002 48.5542C104.516 47.3046 103.866 46.2445 102.81 45.1884C101.753 44.1316 100.696 43.4824 99.4449 42.9975C98.2337 42.5276 96.8522 42.2074 94.8295 42.1148C92.8028 42.0226 92.1576 42 86.9958 42H87.0018ZM85.2973 45.424C85.8032 45.4232 86.3676 45.424 87.0018 45.424C92.0748 45.424 92.6761 45.4422 94.6794 45.5332C96.532 45.6179 97.5374 45.9275 98.2071 46.1875C99.0938 46.5319 99.726 46.9436 100.391 47.6086C101.056 48.2736 101.467 48.9069 101.812 49.7936C102.072 50.4625 102.382 51.4679 102.467 53.3204C102.558 55.3234 102.578 55.925 102.578 60.9956C102.578 66.0663 102.558 66.6679 102.467 68.6709C102.382 70.5234 102.072 71.5288 101.812 72.1977C101.468 73.0844 101.056 73.7158 100.391 74.3804C99.7256 75.0454 99.0942 75.457 98.2071 75.8014C97.5382 76.0626 96.532 76.3714 94.6794 76.4561C92.6765 76.5471 92.0748 76.5669 87.0018 76.5669C81.9283 76.5669 81.3271 76.5471 79.3241 76.4561C77.4716 76.3706 76.4662 76.0611 75.796 75.801C74.9093 75.4566 74.276 75.045 73.611 74.38C72.946 73.715 72.5343 73.0832 72.1891 72.1961C71.9291 71.5272 71.6191 70.5218 71.5348 68.6693C71.4438 66.6664 71.4256 66.0647 71.4256 60.9909C71.4256 55.9171 71.4438 55.3186 71.5348 53.3157C71.6195 51.4632 71.9291 50.4578 72.1891 49.788C72.5335 48.9014 72.946 48.268 73.611 47.603C74.276 46.938 74.9093 46.5264 75.796 46.1812C76.4658 45.9199 77.4716 45.6112 79.3241 45.5261C81.0769 45.4469 81.7561 45.4232 85.2973 45.4192V45.424ZM97.1439 48.5787C95.8852 48.5787 94.8639 49.5988 94.8639 50.858C94.8639 52.1167 95.8852 53.138 97.1439 53.138C98.4027 53.138 99.424 52.1167 99.424 50.858C99.424 49.5992 98.4027 48.578 97.1439 48.578V48.5787ZM87.0018 51.2427C81.6132 51.2427 77.2444 55.6115 77.2444 61C77.2444 66.3885 81.6132 70.7553 87.0018 70.7553C92.3903 70.7553 96.7576 66.3885 96.7576 61C96.7576 55.6115 92.3903 51.2427 87.0018 51.2427ZM87.0018 54.6667C90.4994 54.6667 93.3352 57.502 93.3352 61C93.3352 64.4976 90.4994 67.3333 87.0018 67.3333C83.5038 67.3333 80.6684 64.4976 80.6684 61C80.6684 57.502 83.5038 54.6667 87.0018 54.6667Z"
                fill="white" />
        </mask>
        <g mask="url(#mask12_318_659)">
            <g filter="url(#filter26_d_318_659)">
                <rect x="68" y="42" width="47.9993" height="47.9981" fill="#7A07A3" />
            </g>
        </g>
    </g>
    <g opacity="0.6" filter="url(#filter27_f_318_659)">
        <mask id="mask13_318_659" style="mask-type:alpha" maskUnits="userSpaceOnUse" x="67" y="41" width="48"
            height="48">
            <path
                d="M86.0018 41C80.8416 41 80.1941 41.0226 78.1674 41.1148C76.1446 41.2074 74.764 41.5276 73.5559 41.9975C72.3062 42.4828 71.2461 43.132 70.1901 44.1884C69.1332 45.2445 68.484 46.3046 67.9971 47.5538C67.5261 48.7623 67.2054 50.1434 67.1144 52.1653C67.0238 54.1919 67 54.8399 67 60C67 65.1601 67.023 65.8057 67.1148 67.8324C67.2078 69.8551 67.528 71.2357 67.9975 72.4438C68.4832 73.6935 69.1324 74.7535 70.1889 75.8096C71.2446 76.8665 72.3046 77.5172 73.5535 78.0025C74.7624 78.4724 76.1434 78.7926 78.1658 78.8852C80.1925 78.9774 80.8397 79 85.9994 79C91.1599 79 91.8056 78.9774 93.8322 78.8852C95.855 78.7926 97.2372 78.4724 98.4461 78.0025C99.6954 77.5172 100.754 76.8665 101.81 75.8096C102.866 74.7535 103.516 73.6935 104.002 72.4442C104.47 71.2357 104.79 69.8547 104.885 67.8328C104.976 65.8061 105 65.1601 105 60C105 54.8399 104.976 54.1923 104.885 52.1657C104.79 50.143 104.47 48.7623 104.002 47.5542C103.516 46.3046 102.866 45.2445 101.81 44.1884C100.753 43.1316 99.6958 42.4824 98.4449 41.9975C97.2337 41.5276 95.8522 41.2074 93.8295 41.1148C91.8028 41.0226 91.1576 41 85.9958 41H86.0018ZM84.2973 44.424C84.8032 44.4232 85.3676 44.424 86.0018 44.424C91.0748 44.424 91.6761 44.4422 93.6794 44.5332C95.532 44.6179 96.5374 44.9275 97.2071 45.1875C98.0938 45.5319 98.726 45.9436 99.3906 46.6086C100.056 47.2736 100.467 47.9069 100.812 48.7936C101.072 49.4625 101.382 50.4679 101.467 52.3204C101.558 54.3234 101.578 54.925 101.578 59.9956C101.578 65.0663 101.558 65.6679 101.467 67.6709C101.382 69.5234 101.072 70.5288 100.812 71.1977C100.468 72.0844 100.056 72.7158 99.3906 73.3804C98.7256 74.0454 98.0942 74.457 97.2071 74.8014C96.5382 75.0626 95.532 75.3714 93.6794 75.4561C91.6765 75.5471 91.0748 75.5669 86.0018 75.5669C80.9283 75.5669 80.3271 75.5471 78.3241 75.4561C76.4716 75.3706 75.4662 75.0611 74.796 74.801C73.9093 74.4566 73.276 74.045 72.611 73.38C71.946 72.715 71.5343 72.0832 71.1891 71.1961C70.9291 70.5272 70.6191 69.5218 70.5348 67.6693C70.4438 65.6664 70.4256 65.0647 70.4256 59.9909C70.4256 54.9171 70.4438 54.3186 70.5348 52.3157C70.6195 50.4632 70.9291 49.4578 71.1891 48.788C71.5335 47.9014 71.946 47.268 72.611 46.603C73.276 45.938 73.9093 45.5264 74.796 45.1812C75.4658 44.9199 76.4716 44.6112 78.3241 44.5261C80.0769 44.4469 80.7561 44.4232 84.2973 44.4192V44.424ZM96.1439 47.5787C94.8852 47.5787 93.8639 48.5988 93.8639 49.858C93.8639 51.1167 94.8852 52.138 96.1439 52.138C97.4027 52.138 98.424 51.1167 98.424 49.858C98.424 48.5992 97.4027 47.578 96.1439 47.578V47.5787ZM86.0018 50.2427C80.6132 50.2427 76.2444 54.6115 76.2444 60C76.2444 65.3885 80.6132 69.7553 86.0018 69.7553C91.3903 69.7553 95.7576 65.3885 95.7576 60C95.7576 54.6115 91.3903 50.2427 86.0018 50.2427ZM86.0018 53.6667C89.4994 53.6667 92.3352 56.502 92.3352 60C92.3352 63.4976 89.4994 66.3333 86.0018 66.3333C82.5038 66.3333 79.6684 63.4976 79.6684 60C79.6684 56.502 82.5038 53.6667 86.0018 53.6667Z"
                fill="white" />
        </mask>
        <g mask="url(#mask13_318_659)">
            <g filter="url(#filter28_d_318_659)">
                <rect x="67" y="41" width="47.9993" height="47.9981" fill="#7A07A3" />
            </g>
        </g>
    </g>
    <g opacity="0.6" filter="url(#filter29_f_318_659)">
        <mask id="mask14_318_659" style="mask-type:alpha" maskUnits="userSpaceOnUse" x="66" y="40" width="49"
            height="49">
            <path
                d="M85.5018 40.5C80.3416 40.5 79.6941 40.5226 77.6674 40.6148C75.6446 40.7074 74.264 41.0276 73.0559 41.4975C71.8062 41.9828 70.7461 42.632 69.6901 43.6884C68.6332 44.7445 67.984 45.8046 67.4971 47.0538C67.0261 48.2623 66.7054 49.6434 66.6144 51.6653C66.5238 53.6919 66.5 54.3399 66.5 59.5C66.5 64.6601 66.523 65.3057 66.6148 67.3324C66.7078 69.3551 67.028 70.7357 67.4975 71.9438C67.9832 73.1935 68.6324 74.2535 69.6889 75.3096C70.7446 76.3665 71.8046 77.0172 73.0535 77.5025C74.2624 77.9724 75.6434 78.2926 77.6658 78.3852C79.6925 78.4774 80.3397 78.5 85.4994 78.5C90.6599 78.5 91.3056 78.4774 93.3322 78.3852C95.355 78.2926 96.7372 77.9724 97.9461 77.5025C99.1954 77.0172 100.254 76.3665 101.31 75.3096C102.366 74.2535 103.016 73.1935 103.502 71.9442C103.97 70.7357 104.29 69.3547 104.385 67.3328C104.476 65.3061 104.5 64.6601 104.5 59.5C104.5 54.3399 104.476 53.6923 104.385 51.6657C104.29 49.643 103.97 48.2623 103.502 47.0542C103.016 45.8046 102.366 44.7445 101.31 43.6884C100.253 42.6316 99.1958 41.9824 97.9449 41.4975C96.7337 41.0276 95.3522 40.7074 93.3295 40.6148C91.3028 40.5226 90.6576 40.5 85.4958 40.5H85.5018ZM83.7973 43.924C84.3032 43.9232 84.8676 43.924 85.5018 43.924C90.5748 43.924 91.1761 43.9422 93.1794 44.0332C95.032 44.1179 96.0374 44.4275 96.7071 44.6875C97.5938 45.0319 98.226 45.4436 98.8906 46.1086C99.5556 46.7736 99.9673 47.4069 100.312 48.2936C100.572 48.9625 100.882 49.9679 100.967 51.8204C101.058 53.8234 101.078 54.425 101.078 59.4956C101.078 64.5663 101.058 65.1679 100.967 67.1709C100.882 69.0234 100.572 70.0288 100.312 70.6977C99.9681 71.5844 99.5556 72.2158 98.8906 72.8804C98.2256 73.5454 97.5942 73.957 96.7071 74.3014C96.0382 74.5626 95.032 74.8714 93.1794 74.9561C91.1765 75.0471 90.5748 75.0669 85.5018 75.0669C80.4283 75.0669 79.8271 75.0471 77.8241 74.9561C75.9716 74.8706 74.9662 74.5611 74.296 74.301C73.4093 73.9566 72.776 73.545 72.111 72.88C71.446 72.215 71.0343 71.5832 70.6891 70.6961C70.4291 70.0272 70.1191 69.0218 70.0348 67.1693C69.9438 65.1664 69.9256 64.5647 69.9256 59.4909C69.9256 54.4171 69.9438 53.8186 70.0348 51.8157C70.1195 49.9632 70.4291 48.9578 70.6891 48.288C71.0335 47.4014 71.446 46.768 72.111 46.103C72.776 45.438 73.4093 45.0264 74.296 44.6812C74.9658 44.4199 75.9716 44.1112 77.8241 44.0261C79.5769 43.9469 80.2561 43.9232 83.7973 43.9192V43.924ZM95.6439 47.0787C94.3852 47.0787 93.3639 48.0988 93.3639 49.358C93.3639 50.6167 94.3852 51.638 95.6439 51.638C96.9027 51.638 97.924 50.6167 97.924 49.358C97.924 48.0992 96.9027 47.078 95.6439 47.078V47.0787ZM85.5018 49.7427C80.1132 49.7427 75.7444 54.1115 75.7444 59.5C75.7444 64.8885 80.1132 69.2553 85.5018 69.2553C90.8903 69.2553 95.2576 64.8885 95.2576 59.5C95.2576 54.1115 90.8903 49.7427 85.5018 49.7427ZM85.5018 53.1667C88.9994 53.1667 91.8352 56.002 91.8352 59.5C91.8352 62.9976 88.9994 65.8333 85.5018 65.8333C82.0038 65.8333 79.1684 62.9976 79.1684 59.5C79.1684 56.002 82.0038 53.1667 85.5018 53.1667Z"
                fill="white" />
        </mask>
        <g mask="url(#mask14_318_659)">
            <g filter="url(#filter30_d_318_659)">
                <rect x="66.5" y="40.5" width="47.9993" height="47.9981" fill="#7A07A3" />
            </g>
        </g>
    </g>
    <g filter="url(#filter31_ii_318_659)">
        <mask id="mask15_318_659" style="mask-type:alpha" maskUnits="userSpaceOnUse" x="66" y="40" width="48"
            height="48">
            <path
                d="M85.0018 40C79.8416 40 79.1941 40.0226 77.1674 40.1148C75.1446 40.2074 73.764 40.5276 72.5559 40.9975C71.3062 41.4828 70.2461 42.132 69.1901 43.1884C68.1332 44.2445 67.484 45.3046 66.9971 46.5538C66.5261 47.7623 66.2054 49.1434 66.1144 51.1653C66.0238 53.1919 66 53.8399 66 59C66 64.1601 66.023 64.8057 66.1148 66.8324C66.2078 68.8551 66.528 70.2357 66.9975 71.4438C67.4832 72.6935 68.1324 73.7535 69.1889 74.8096C70.2446 75.8665 71.3046 76.5172 72.5535 77.0025C73.7624 77.4724 75.1434 77.7926 77.1658 77.8852C79.1925 77.9774 79.8397 78 84.9994 78C90.1599 78 90.8056 77.9774 92.8322 77.8852C94.855 77.7926 96.2372 77.4724 97.4461 77.0025C98.6954 76.5172 99.7539 75.8665 100.81 74.8096C101.866 73.7535 102.516 72.6935 103.002 71.4442C103.47 70.2357 103.79 68.8547 103.885 66.8328C103.976 64.8061 104 64.1601 104 59C104 53.8399 103.976 53.1923 103.885 51.1657C103.79 49.143 103.47 47.7623 103.002 46.5542C102.516 45.3046 101.866 44.2445 100.81 43.1884C99.7527 42.1316 98.6958 41.4824 97.4449 40.9975C96.2337 40.5276 94.8522 40.2074 92.8295 40.1148C90.8028 40.0226 90.1576 40 84.9958 40H85.0018ZM83.2973 43.424C83.8032 43.4232 84.3676 43.424 85.0018 43.424C90.0748 43.424 90.6761 43.4422 92.6794 43.5332C94.532 43.6179 95.5374 43.9275 96.2071 44.1875C97.0938 44.5319 97.726 44.9436 98.3906 45.6086C99.0556 46.2736 99.4673 46.9069 99.8124 47.7936C100.072 48.4625 100.382 49.4679 100.467 51.3204C100.558 53.3234 100.578 53.925 100.578 58.9956C100.578 64.0663 100.558 64.6679 100.467 66.6709C100.382 68.5234 100.072 69.5288 99.8124 70.1977C99.4681 71.0844 99.0556 71.7158 98.3906 72.3804C97.7256 73.0454 97.0942 73.457 96.2071 73.8014C95.5382 74.0626 94.532 74.3714 92.6794 74.4561C90.6765 74.5471 90.0748 74.5669 85.0018 74.5669C79.9283 74.5669 79.3271 74.5471 77.3241 74.4561C75.4716 74.3706 74.4662 74.0611 73.796 73.801C72.9093 73.4566 72.276 73.045 71.611 72.38C70.946 71.715 70.5343 71.0832 70.1891 70.1961C69.9291 69.5272 69.6191 68.5218 69.5348 66.6693C69.4438 64.6664 69.4256 64.0647 69.4256 58.9909C69.4256 53.9171 69.4438 53.3186 69.5348 51.3157C69.6195 49.4632 69.9291 48.4578 70.1891 47.788C70.5335 46.9014 70.946 46.268 71.611 45.603C72.276 44.938 72.9093 44.5264 73.796 44.1812C74.4658 43.9199 75.4716 43.6112 77.3241 43.5261C79.0769 43.4469 79.7561 43.4232 83.2973 43.4192V43.424ZM95.1439 46.5787C93.8852 46.5787 92.8639 47.5988 92.8639 48.858C92.8639 50.1167 93.8852 51.138 95.1439 51.138C96.4027 51.138 97.424 50.1167 97.424 48.858C97.424 47.5992 96.4027 46.578 95.1439 46.578V46.5787ZM85.0018 49.2427C79.6132 49.2427 75.2444 53.6115 75.2444 59C75.2444 64.3885 79.6132 68.7553 85.0018 68.7553C90.3903 68.7553 94.7576 64.3885 94.7576 59C94.7576 53.6115 90.3903 49.2427 85.0018 49.2427ZM85.0018 52.6667C88.4994 52.6667 91.3352 55.502 91.3352 59C91.3352 62.4976 88.4994 65.3333 85.0018 65.3333C81.5038 65.3333 78.6684 62.4976 78.6684 59C78.6684 55.502 81.5038 52.6667 85.0018 52.6667Z"
                fill="white" />
        </mask>
        <g mask="url(#mask15_318_659)">
            <rect x="66" y="40" width="47.9993" height="47.9981" fill="url(#paint4_linear_318_659)" />
        </g>
    </g>
    <defs>
        <filter id="filter0_ddddddd_318_659" x="0" y="0" width="171" height="224" filterUnits="userSpaceOnUse"
            color-interpolation-filters="sRGB">
            <feFlood flood-opacity="0" result="BackgroundImageFix" />
            <feColorMatrix in="SourceAlpha" type="matrix" values="0 0 0 0 0 0 0 0 0 0 0 0 0 0 0 0 0 0 127 0"
                result="hardAlpha" />
            <feOffset dy="5" />
            <feGaussianBlur stdDeviation="5.5" />
            <feColorMatrix type="matrix" values="0 0 0 0 0 0 0 0 0 0 0 0 0 0 0 0 0 0 0.1 0" />
            <feBlend mode="normal" in2="BackgroundImageFix" result="effect1_dropShadow_318_659" />
            <feColorMatrix in="SourceAlpha" type="matrix" values="0 0 0 0 0 0 0 0 0 0 0 0 0 0 0 0 0 0 127 0"
                result="hardAlpha" />
            <feOffset dy="20" />
            <feGaussianBlur stdDeviation="10" />
            <feColorMatrix type="matrix" values="0 0 0 0 0 0 0 0 0 0 0 0 0 0 0 0 0 0 0.09 0" />
            <feBlend mode="normal" in2="effect1_dropShadow_318_659" result="effect2_dropShadow_318_659" />
            <feColorMatrix in="SourceAlpha" type="matrix" values="0 0 0 0 0 0 0 0 0 0 0 0 0 0 0 0 0 0 127 0"
                result="hardAlpha" />
            <feOffset dy="44" />
            <feGaussianBlur stdDeviation="13.5" />
            <feColorMatrix type="matrix" values="0 0 0 0 0 0 0 0 0 0 0 0 0 0 0 0 0 0 0.05 0" />
            <feBlend mode="normal" in2="effect2_dropShadow_318_659" result="effect3_dropShadow_318_659" />
            <feColorMatrix in="SourceAlpha" type="matrix" values="0 0 0 0 0 0 0 0 0 0 0 0 0 0 0 0 0 0 127 0"
                result="hardAlpha" />
            <feOffset dy="79" />
            <feGaussianBlur stdDeviation="16" />
            <feColorMatrix type="matrix" values="0 0 0 0 0 0 0 0 0 0 0 0 0 0 0 0 0 0 0.01 0" />
            <feBlend mode="normal" in2="effect3_dropShadow_318_659" result="effect4_dropShadow_318_659" />
            <feColorMatrix in="SourceAlpha" type="matrix" values="0 0 0 0 0 0 0 0 0 0 0 0 0 0 0 0 0 0 127 0"
                result="hardAlpha" />
            <feOffset dy="5" />
            <feGaussianBlur stdDeviation="5.5" />
            <feColorMatrix type="matrix" values="0 0 0 0 0 0 0 0 0 0 0 0 0 0 0 0 0 0 0.1 0" />
            <feBlend mode="normal" in2="effect4_dropShadow_318_659" result="effect5_dropShadow_318_659" />
            <feColorMatrix in="SourceAlpha" type="matrix" values="0 0 0 0 0 0 0 0 0 0 0 0 0 0 0 0 0 0 127 0"
                result="hardAlpha" />
            <feOffset dy="20" />
            <feGaussianBlur stdDeviation="10" />
            <feColorMatrix type="matrix" values="0 0 0 0 0 0 0 0 0 0 0 0 0 0 0 0 0 0 0.09 0" />
            <feBlend mode="normal" in2="effect5_dropShadow_318_659" result="effect6_dropShadow_318_659" />
            <feColorMatrix in="SourceAlpha" type="matrix" values="0 0 0 0 0 0 0 0 0 0 0 0 0 0 0 0 0 0 127 0"
                result="hardAlpha" />
            <feOffset dy="44" />
            <feGaussianBlur stdDeviation="13.5" />
            <feColorMatrix type="matrix" values="0 0 0 0 0 0 0 0 0 0 0 0 0 0 0 0 0 0 0.05 0" />
            <feBlend mode="normal" in2="effect6_dropShadow_318_659" result="effect7_dropShadow_318_659" />
            <feBlend mode="normal" in="SourceGraphic" in2="effect7_dropShadow_318_659" result="shape" />
        </filter>
        <filter id="filter1_f_318_659" x="70" y="44" width="144" height="144" filterUnits="userSpaceOnUse"
            color-interpolation-filters="sRGB">
            <feFlood flood-opacity="0" result="BackgroundImageFix" />
            <feBlend mode="normal" in="SourceGraphic" in2="BackgroundImageFix" result="shape" />
            <feGaussianBlur stdDeviation="24" result="effect1_foregroundBlur_318_659" />
        </filter>
        <filter id="filter2_d_318_659" x="114" y="92" width="55.9995" height="55.9982" filterUnits="userSpaceOnUse"
            color-interpolation-filters="sRGB">
            <feFlood flood-opacity="0" result="BackgroundImageFix" />
            <feColorMatrix in="SourceAlpha" type="matrix" values="0 0 0 0 0 0 0 0 0 0 0 0 0 0 0 0 0 0 127 0"
                result="hardAlpha" />
            <feOffset dy="4" />
            <feGaussianBlur stdDeviation="2" />
            <feComposite in2="hardAlpha" operator="out" />
            <feColorMatrix type="matrix" values="0 0 0 0 0 0 0 0 0 0 0 0 0 0 0 0 0 0 0.25 0" />
            <feBlend mode="normal" in2="BackgroundImageFix" result="effect1_dropShadow_318_659" />
            <feBlend mode="normal" in="SourceGraphic" in2="effect1_dropShadow_318_659" result="shape" />
        </filter>
        <filter id="filter3_f_318_659" x="70" y="44" width="136" height="136" filterUnits="userSpaceOnUse"
            color-interpolation-filters="sRGB">
            <feFlood flood-opacity="0" result="BackgroundImageFix" />
            <feBlend mode="normal" in="SourceGraphic" in2="BackgroundImageFix" result="shape" />
            <feGaussianBlur stdDeviation="22" result="effect1_foregroundBlur_318_659" />
        </filter>
        <filter id="filter4_d_318_659" x="110" y="88" width="55.9995" height="55.9982" filterUnits="userSpaceOnUse"
            color-interpolation-filters="sRGB">
            <feFlood flood-opacity="0" result="BackgroundImageFix" />
            <feColorMatrix in="SourceAlpha" type="matrix" values="0 0 0 0 0 0 0 0 0 0 0 0 0 0 0 0 0 0 127 0"
                result="hardAlpha" />
            <feOffset dy="4" />
            <feGaussianBlur stdDeviation="2" />
            <feComposite in2="hardAlpha" operator="out" />
            <feColorMatrix type="matrix" values="0 0 0 0 0 0 0 0 0 0 0 0 0 0 0 0 0 0 0.25 0" />
            <feBlend mode="normal" in2="BackgroundImageFix" result="effect1_dropShadow_318_659" />
            <feBlend mode="normal" in="SourceGraphic" in2="effect1_dropShadow_318_659" result="shape" />
        </filter>
        <filter id="filter5_f_318_659" x="70" y="44" width="128" height="128" filterUnits="userSpaceOnUse"
            color-interpolation-filters="sRGB">
            <feFlood flood-opacity="0" result="BackgroundImageFix" />
            <feBlend mode="normal" in="SourceGraphic" in2="BackgroundImageFix" result="shape" />
            <feGaussianBlur stdDeviation="20" result="effect1_foregroundBlur_318_659" />
        </filter>
        <filter id="filter6_d_318_659" x="106" y="84" width="55.9995" height="55.9982" filterUnits="userSpaceOnUse"
            color-interpolation-filters="sRGB">
            <feFlood flood-opacity="0" result="BackgroundImageFix" />
            <feColorMatrix in="SourceAlpha" type="matrix" values="0 0 0 0 0 0 0 0 0 0 0 0 0 0 0 0 0 0 127 0"
                result="hardAlpha" />
            <feOffset dy="4" />
            <feGaussianBlur stdDeviation="2" />
            <feComposite in2="hardAlpha" operator="out" />
            <feColorMatrix type="matrix" values="0 0 0 0 0 0 0 0 0 0 0 0 0 0 0 0 0 0 0.25 0" />
            <feBlend mode="normal" in2="BackgroundImageFix" result="effect1_dropShadow_318_659" />
            <feBlend mode="normal" in="SourceGraphic" in2="effect1_dropShadow_318_659" result="shape" />
        </filter>
        <filter id="filter7_f_318_659" x="66" y="40" width="128" height="128" filterUnits="userSpaceOnUse"
            color-interpolation-filters="sRGB">
            <feFlood flood-opacity="0" result="BackgroundImageFix" />
            <feBlend mode="normal" in="SourceGraphic" in2="BackgroundImageFix" result="shape" />
            <feGaussianBlur stdDeviation="20" result="effect1_foregroundBlur_318_659" />
        </filter>
        <filter id="filter8_d_318_659" x="102" y="80" width="55.9995" height="55.9982" filterUnits="userSpaceOnUse"
            color-interpolation-filters="sRGB">
            <feFlood flood-opacity="0" result="BackgroundImageFix" />
            <feColorMatrix in="SourceAlpha" type="matrix" values="0 0 0 0 0 0 0 0 0 0 0 0 0 0 0 0 0 0 127 0"
                result="hardAlpha" />
            <feOffset dy="4" />
            <feGaussianBlur stdDeviation="2" />
            <feComposite in2="hardAlpha" operator="out" />
            <feColorMatrix type="matrix" values="0 0 0 0 0 0 0 0 0 0 0 0 0 0 0 0 0 0 0.25 0" />
            <feBlend mode="normal" in2="BackgroundImageFix" result="effect1_dropShadow_318_659" />
            <feBlend mode="normal" in="SourceGraphic" in2="effect1_dropShadow_318_659" result="shape" />
        </filter>
        <filter id="filter9_f_318_659" x="66" y="40" width="112" height="112" filterUnits="userSpaceOnUse"
            color-interpolation-filters="sRGB">
            <feFlood flood-opacity="0" result="BackgroundImageFix" />
            <feBlend mode="normal" in="SourceGraphic" in2="BackgroundImageFix" result="shape" />
            <feGaussianBlur stdDeviation="16" result="effect1_foregroundBlur_318_659" />
        </filter>
        <filter id="filter10_d_318_659" x="94" y="72" width="55.9995" height="55.9982" filterUnits="userSpaceOnUse"
            color-interpolation-filters="sRGB">
            <feFlood flood-opacity="0" result="BackgroundImageFix" />
            <feColorMatrix in="SourceAlpha" type="matrix" values="0 0 0 0 0 0 0 0 0 0 0 0 0 0 0 0 0 0 127 0"
                result="hardAlpha" />
            <feOffset dy="4" />
            <feGaussianBlur stdDeviation="2" />
            <feComposite in2="hardAlpha" operator="out" />
            <feColorMatrix type="matrix" values="0 0 0 0 0 0 0 0 0 0 0 0 0 0 0 0 0 0 0.25 0" />
            <feBlend mode="normal" in2="BackgroundImageFix" result="effect1_dropShadow_318_659" />
            <feBlend mode="normal" in="SourceGraphic" in2="effect1_dropShadow_318_659" result="shape" />
        </filter>
        <filter id="filter11_f_318_659" x="62" y="36" width="104" height="104" filterUnits="userSpaceOnUse"
            color-interpolation-filters="sRGB">
            <feFlood flood-opacity="0" result="BackgroundImageFix" />
            <feBlend mode="normal" in="SourceGraphic" in2="BackgroundImageFix" result="shape" />
            <feGaussianBlur stdDeviation="14" result="effect1_foregroundBlur_318_659" />
        </filter>
        <filter id="filter12_d_318_659" x="86" y="64" width="55.9995" height="55.9982" filterUnits="userSpaceOnUse"
            color-interpolation-filters="sRGB">
            <feFlood flood-opacity="0" result="BackgroundImageFix" />
            <feColorMatrix in="SourceAlpha" type="matrix" values="0 0 0 0 0 0 0 0 0 0 0 0 0 0 0 0 0 0 127 0"
                result="hardAlpha" />
            <feOffset dy="4" />
            <feGaussianBlur stdDeviation="2" />
            <feComposite in2="hardAlpha" operator="out" />
            <feColorMatrix type="matrix" values="0 0 0 0 0 0 0 0 0 0 0 0 0 0 0 0 0 0 0.25 0" />
            <feBlend mode="normal" in2="BackgroundImageFix" result="effect1_dropShadow_318_659" />
            <feBlend mode="normal" in="SourceGraphic" in2="effect1_dropShadow_318_659" result="shape" />
        </filter>
        <filter id="filter13_f_318_659" x="58" y="32" width="96" height="96" filterUnits="userSpaceOnUse"
            color-interpolation-filters="sRGB">
            <feFlood flood-opacity="0" result="BackgroundImageFix" />
            <feBlend mode="normal" in="SourceGraphic" in2="BackgroundImageFix" result="shape" />
            <feGaussianBlur stdDeviation="12" result="effect1_foregroundBlur_318_659" />
        </filter>
        <filter id="filter14_d_318_659" x="78" y="56" width="55.9995" height="55.9982" filterUnits="userSpaceOnUse"
            color-interpolation-filters="sRGB">
            <feFlood flood-opacity="0" result="BackgroundImageFix" />
            <feColorMatrix in="SourceAlpha" type="matrix" values="0 0 0 0 0 0 0 0 0 0 0 0 0 0 0 0 0 0 127 0"
                result="hardAlpha" />
            <feOffset dy="4" />
            <feGaussianBlur stdDeviation="2" />
            <feComposite in2="hardAlpha" operator="out" />
            <feColorMatrix type="matrix" values="0 0 0 0 0 0 0 0 0 0 0 0 0 0 0 0 0 0 0.25 0" />
            <feBlend mode="normal" in2="BackgroundImageFix" result="effect1_dropShadow_318_659" />
            <feBlend mode="normal" in="SourceGraphic" in2="effect1_dropShadow_318_659" result="shape" />
        </filter>
        <filter id="filter15_f_318_659" x="57" y="31" width="96" height="96" filterUnits="userSpaceOnUse"
            color-interpolation-filters="sRGB">
            <feFlood flood-opacity="0" result="BackgroundImageFix" />
            <feBlend mode="normal" in="SourceGraphic" in2="BackgroundImageFix" result="shape" />
            <feGaussianBlur stdDeviation="12" result="effect1_foregroundBlur_318_659" />
        </filter>
        <filter id="filter16_d_318_659" x="77" y="55" width="55.9995" height="55.9982" filterUnits="userSpaceOnUse"
            color-interpolation-filters="sRGB">
            <feFlood flood-opacity="0" result="BackgroundImageFix" />
            <feColorMatrix in="SourceAlpha" type="matrix" values="0 0 0 0 0 0 0 0 0 0 0 0 0 0 0 0 0 0 127 0"
                result="hardAlpha" />
            <feOffset dy="4" />
            <feGaussianBlur stdDeviation="2" />
            <feComposite in2="hardAlpha" operator="out" />
            <feColorMatrix type="matrix" values="0 0 0 0 0 0 0 0 0 0 0 0 0 0 0 0 0 0 0.25 0" />
            <feBlend mode="normal" in2="BackgroundImageFix" result="effect1_dropShadow_318_659" />
            <feBlend mode="normal" in="SourceGraphic" in2="effect1_dropShadow_318_659" result="shape" />
        </filter>
        <filter id="filter17_f_318_659" x="61" y="35" width="80" height="80" filterUnits="userSpaceOnUse"
            color-interpolation-filters="sRGB">
            <feFlood flood-opacity="0" result="BackgroundImageFix" />
            <feBlend mode="normal" in="SourceGraphic" in2="BackgroundImageFix" result="shape" />
            <feGaussianBlur stdDeviation="8" result="effect1_foregroundBlur_318_659" />
        </filter>
        <filter id="filter18_d_318_659" x="73" y="51" width="55.9995" height="55.9982" filterUnits="userSpaceOnUse"
            color-interpolation-filters="sRGB">
            <feFlood flood-opacity="0" result="BackgroundImageFix" />
            <feColorMatrix in="SourceAlpha" type="matrix" values="0 0 0 0 0 0 0 0 0 0 0 0 0 0 0 0 0 0 127 0"
                result="hardAlpha" />
            <feOffset dy="4" />
            <feGaussianBlur stdDeviation="2" />
            <feComposite in2="hardAlpha" operator="out" />
            <feColorMatrix type="matrix" values="0 0 0 0 0 0 0 0 0 0 0 0 0 0 0 0 0 0 0.25 0" />
            <feBlend mode="normal" in2="BackgroundImageFix" result="effect1_dropShadow_318_659" />
            <feBlend mode="normal" in="SourceGraphic" in2="effect1_dropShadow_318_659" result="shape" />
        </filter>
        <filter id="filter19_f_318_659" x="63" y="37" width="68" height="68" filterUnits="userSpaceOnUse"
            color-interpolation-filters="sRGB">
            <feFlood flood-opacity="0" result="BackgroundImageFix" />
            <feBlend mode="normal" in="SourceGraphic" in2="BackgroundImageFix" result="shape" />
            <feGaussianBlur stdDeviation="5" result="effect1_foregroundBlur_318_659" />
        </filter>
        <filter id="filter20_d_318_659" x="69" y="47" width="55.9995" height="55.9982" filterUnits="userSpaceOnUse"
            color-interpolation-filters="sRGB">
            <feFlood flood-opacity="0" result="BackgroundImageFix" />
            <feColorMatrix in="SourceAlpha" type="matrix" values="0 0 0 0 0 0 0 0 0 0 0 0 0 0 0 0 0 0 127 0"
                result="hardAlpha" />
            <feOffset dy="4" />
            <feGaussianBlur stdDeviation="2" />
            <feComposite in2="hardAlpha" operator="out" />
            <feColorMatrix type="matrix" values="0 0 0 0 0 0 0 0 0 0 0 0 0 0 0 0 0 0 0.25 0" />
            <feBlend mode="normal" in2="BackgroundImageFix" result="effect1_dropShadow_318_659" />
            <feBlend mode="normal" in="SourceGraphic" in2="effect1_dropShadow_318_659" result="shape" />
        </filter>
        <filter id="filter21_f_318_659" x="65" y="39" width="60" height="60" filterUnits="userSpaceOnUse"
            color-interpolation-filters="sRGB">
            <feFlood flood-opacity="0" result="BackgroundImageFix" />
            <feBlend mode="normal" in="SourceGraphic" in2="BackgroundImageFix" result="shape" />
            <feGaussianBlur stdDeviation="3" result="effect1_foregroundBlur_318_659" />
        </filter>
        <filter id="filter22_d_318_659" x="67" y="45" width="55.9995" height="55.9982" filterUnits="userSpaceOnUse"
            color-interpolation-filters="sRGB">
            <feFlood flood-opacity="0" result="BackgroundImageFix" />
            <feColorMatrix in="SourceAlpha" type="matrix" values="0 0 0 0 0 0 0 0 0 0 0 0 0 0 0 0 0 0 127 0"
                result="hardAlpha" />
            <feOffset dy="4" />
            <feGaussianBlur stdDeviation="2" />
            <feComposite in2="hardAlpha" operator="out" />
            <feColorMatrix type="matrix" values="0 0 0 0 0 0 0 0 0 0 0 0 0 0 0 0 0 0 0.25 0" />
            <feBlend mode="normal" in2="BackgroundImageFix" result="effect1_dropShadow_318_659" />
            <feBlend mode="normal" in="SourceGraphic" in2="effect1_dropShadow_318_659" result="shape" />
        </filter>
        <filter id="filter23_f_318_659" x="65" y="39" width="56" height="56" filterUnits="userSpaceOnUse"
            color-interpolation-filters="sRGB">
            <feFlood flood-opacity="0" result="BackgroundImageFix" />
            <feBlend mode="normal" in="SourceGraphic" in2="BackgroundImageFix" result="shape" />
            <feGaussianBlur stdDeviation="2" result="effect1_foregroundBlur_318_659" />
        </filter>
        <filter id="filter24_d_318_659" x="65" y="43" width="55.9995" height="55.9982" filterUnits="userSpaceOnUse"
            color-interpolation-filters="sRGB">
            <feFlood flood-opacity="0" result="BackgroundImageFix" />
            <feColorMatrix in="SourceAlpha" type="matrix" values="0 0 0 0 0 0 0 0 0 0 0 0 0 0 0 0 0 0 127 0"
                result="hardAlpha" />
            <feOffset dy="4" />
            <feGaussianBlur stdDeviation="2" />
            <feComposite in2="hardAlpha" operator="out" />
            <feColorMatrix type="matrix" values="0 0 0 0 0 0 0 0 0 0 0 0 0 0 0 0 0 0 0.25 0" />
            <feBlend mode="normal" in2="BackgroundImageFix" result="effect1_dropShadow_318_659" />
            <feBlend mode="normal" in="SourceGraphic" in2="effect1_dropShadow_318_659" result="shape" />
        </filter>
        <filter id="filter25_f_318_659" x="65" y="39" width="54" height="54" filterUnits="userSpaceOnUse"
            color-interpolation-filters="sRGB">
            <feFlood flood-opacity="0" result="BackgroundImageFix" />
            <feBlend mode="normal" in="SourceGraphic" in2="BackgroundImageFix" result="shape" />
            <feGaussianBlur stdDeviation="1.5" result="effect1_foregroundBlur_318_659" />
        </filter>
        <filter id="filter26_d_318_659" x="64" y="42" width="55.9995" height="55.9982" filterUnits="userSpaceOnUse"
            color-interpolation-filters="sRGB">
            <feFlood flood-opacity="0" result="BackgroundImageFix" />
            <feColorMatrix in="SourceAlpha" type="matrix" values="0 0 0 0 0 0 0 0 0 0 0 0 0 0 0 0 0 0 127 0"
                result="hardAlpha" />
            <feOffset dy="4" />
            <feGaussianBlur stdDeviation="2" />
            <feComposite in2="hardAlpha" operator="out" />
            <feColorMatrix type="matrix" values="0 0 0 0 0 0 0 0 0 0 0 0 0 0 0 0 0 0 0.25 0" />
            <feBlend mode="normal" in2="BackgroundImageFix" result="effect1_dropShadow_318_659" />
            <feBlend mode="normal" in="SourceGraphic" in2="effect1_dropShadow_318_659" result="shape" />
        </filter>
        <filter id="filter27_f_318_659" x="65" y="39" width="52" height="52" filterUnits="userSpaceOnUse"
            color-interpolation-filters="sRGB">
            <feFlood flood-opacity="0" result="BackgroundImageFix" />
            <feBlend mode="normal" in="SourceGraphic" in2="BackgroundImageFix" result="shape" />
            <feGaussianBlur stdDeviation="1" result="effect1_foregroundBlur_318_659" />
        </filter>
        <filter id="filter28_d_318_659" x="63" y="41" width="55.9995" height="55.9982" filterUnits="userSpaceOnUse"
            color-interpolation-filters="sRGB">
            <feFlood flood-opacity="0" result="BackgroundImageFix" />
            <feColorMatrix in="SourceAlpha" type="matrix" values="0 0 0 0 0 0 0 0 0 0 0 0 0 0 0 0 0 0 127 0"
                result="hardAlpha" />
            <feOffset dy="4" />
            <feGaussianBlur stdDeviation="2" />
            <feComposite in2="hardAlpha" operator="out" />
            <feColorMatrix type="matrix" values="0 0 0 0 0 0 0 0 0 0 0 0 0 0 0 0 0 0 0.25 0" />
            <feBlend mode="normal" in2="BackgroundImageFix" result="effect1_dropShadow_318_659" />
            <feBlend mode="normal" in="SourceGraphic" in2="effect1_dropShadow_318_659" result="shape" />
        </filter>
        <filter id="filter29_f_318_659" x="65.5" y="39.5" width="50" height="50" filterUnits="userSpaceOnUse"
            color-interpolation-filters="sRGB">
            <feFlood flood-opacity="0" result="BackgroundImageFix" />
            <feBlend mode="normal" in="SourceGraphic" in2="BackgroundImageFix" result="shape" />
            <feGaussianBlur stdDeviation="0.5" result="effect1_foregroundBlur_318_659" />
        </filter>
        <filter id="filter30_d_318_659" x="62.5" y="40.5" width="55.9995" height="55.9982" filterUnits="userSpaceOnUse"
            color-interpolation-filters="sRGB">
            <feFlood flood-opacity="0" result="BackgroundImageFix" />
            <feColorMatrix in="SourceAlpha" type="matrix" values="0 0 0 0 0 0 0 0 0 0 0 0 0 0 0 0 0 0 127 0"
                result="hardAlpha" />
            <feOffset dy="4" />
            <feGaussianBlur stdDeviation="2" />
            <feComposite in2="hardAlpha" operator="out" />
            <feColorMatrix type="matrix" values="0 0 0 0 0 0 0 0 0 0 0 0 0 0 0 0 0 0 0.25 0" />
            <feBlend mode="normal" in2="BackgroundImageFix" result="effect1_dropShadow_318_659" />
            <feBlend mode="normal" in="SourceGraphic" in2="effect1_dropShadow_318_659" result="shape" />
        </filter>
        <filter id="filter31_ii_318_659" x="65.5" y="39.5" width="49.5" height="49.5" filterUnits="userSpaceOnUse"
            color-interpolation-filters="sRGB">
            <feFlood flood-opacity="0" result="BackgroundImageFix" />
            <feBlend mode="normal" in="SourceGraphic" in2="BackgroundImageFix" result="shape" />
            <feColorMatrix in="SourceAlpha" type="matrix" values="0 0 0 0 0 0 0 0 0 0 0 0 0 0 0 0 0 0 127 0"
                result="hardAlpha" />
            <feOffset dx="-0.5" dy="-0.5" />
            <feGaussianBlur stdDeviation="0.5" />
            <feComposite in2="hardAlpha" operator="arithmetic" k2="-1" k3="1" />
            <feColorMatrix type="matrix" values="0 0 0 0 0.669989 0 0 0 0 0.430208 0 0 0 0 0.7375 0 0 0 1 0" />
            <feBlend mode="normal" in2="shape" result="effect1_innerShadow_318_659" />
            <feColorMatrix in="SourceAlpha" type="matrix" values="0 0 0 0 0 0 0 0 0 0 0 0 0 0 0 0 0 0 127 0"
                result="hardAlpha" />
            <feOffset dx="1" dy="1" />
            <feGaussianBlur stdDeviation="0.5" />
            <feComposite in2="hardAlpha" operator="arithmetic" k2="-1" k3="1" />
            <feColorMatrix type="matrix" values="0 0 0 0 1 0 0 0 0 1 0 0 0 0 1 0 0 0 1 0" />
            <feBlend mode="soft-light" in2="effect1_innerShadow_318_659" result="effect2_innerShadow_318_659" />
        </filter>
        <linearGradient id="paint0_linear_318_659" x1="50.5" y1="11" x2="116.5" y2="113" gradientUnits="userSpaceOnUse">
            <stop stop-color="#FBFBFB" />
            <stop offset="1" stop-color="#E8E8E8" />
        </linearGradient>
        <linearGradient id="paint1_linear_318_659" x1="85.5" y1="6" x2="85.5" y2="113" gradientUnits="userSpaceOnUse">
            <stop stop-color="#6F7AFC" />
            <stop offset="1" stop-color="#4554EE" />
        </linearGradient>
        <radialGradient id="paint2_radial_318_659" cx="0" cy="0" r="1" gradientUnits="userSpaceOnUse"
            gradientTransform="translate(46.6743 124.006) rotate(-52.5341) scale(135.194)">
            <stop stop-color="#FFDA55" />
            <stop offset="0.453518" stop-color="#F03D63" />
            <stop offset="1" stop-color="#B72DC0" />
        </radialGradient>
        <radialGradient id="paint3_radial_318_659" cx="0" cy="0" r="1" gradientUnits="userSpaceOnUse"
            gradientTransform="translate(39.9486 12.42) rotate(48.7241) scale(73.221)">
            <stop offset="0.248365" stop-color="#3C93E3" />
            <stop offset="1" stop-color="#3C93E3" stop-opacity="0" />
        </radialGradient>
        <linearGradient id="paint4_linear_318_659" x1="89.9997" y1="40" x2="89.9997" y2="87.9981"
            gradientUnits="userSpaceOnUse">
            <stop stop-color="white" />
            <stop offset="1" stop-color="#F5C4FF" />
        </linearGradient>
    </defs>
</svg>