<svg width="405" height="439" viewBox="0 0 405 439" fill="none" xmlns="http://www.w3.org/2000/svg">
    <g filter="url(#filter0_dddd_315_245)">
        <mask id="mask0_315_245" style="mask-type:alpha" maskUnits="userSpaceOnUse" x="32" y="6" width="341"
            height="322">
            <mask id="path-1-inside-1_315_245" fill="white">
                <path fill-rule="evenodd" clip-rule="evenodd"
                    d="M47.2983 6.20746C39.0141 6.20746 32.2983 12.9232 32.2983 21.2075V54.2075V54.2075C32.2983 55.5381 32.2986 56.8766 32.2986 58.2072V58.2072L32.2986 311.207C32.2986 320.044 39.462 327.207 48.2986 327.207H357.299C365.583 327.207 372.299 320.491 372.299 312.207V58.2072C372.299 49.9229 365.583 43.2072 357.299 43.2072H165.343C158.286 43.2072 152.063 38.5836 150.025 31.8271L145.516 16.8763C143.606 10.5421 137.771 6.20746 131.155 6.20746L47.2983 6.20746Z" />
            </mask>
            <path fill-rule="evenodd" clip-rule="evenodd"
                d="M47.2983 6.20746C39.0141 6.20746 32.2983 12.9232 32.2983 21.2075V54.2075V54.2075C32.2983 55.5381 32.2986 56.8766 32.2986 58.2072V58.2072L32.2986 311.207C32.2986 320.044 39.462 327.207 48.2986 327.207H357.299C365.583 327.207 372.299 320.491 372.299 312.207V58.2072C372.299 49.9229 365.583 43.2072 357.299 43.2072H165.343C158.286 43.2072 152.063 38.5836 150.025 31.8271L145.516 16.8763C143.606 10.5421 137.771 6.20746 131.155 6.20746L47.2983 6.20746Z"
                fill="#F1F2F4" />
            <path
                d="M145.516 16.8763L146.473 16.5876L146.473 16.5876L145.516 16.8763ZM33.2983 21.2075C33.2983 13.4755 39.5664 7.20746 47.2983 7.20746V5.20746C38.4618 5.20746 31.2983 12.3709 31.2983 21.2075H33.2983ZM33.2983 54.2075V21.2075H31.2983V54.2075H33.2983ZM33.2986 311.207L33.2986 58.2072H31.2986L31.2986 311.207H33.2986ZM357.299 326.207H48.2986L48.2986 328.207H357.299V326.207ZM371.299 312.207C371.299 319.939 365.031 326.207 357.299 326.207V328.207C366.135 328.207 373.299 321.044 373.299 312.207H371.299ZM371.299 58.2072V312.207H373.299V58.2072H371.299ZM357.299 44.2072C365.031 44.2072 371.299 50.4752 371.299 58.2072H373.299C373.299 49.3707 366.135 42.2072 357.299 42.2072V44.2072ZM165.343 44.2072H357.299V42.2072H165.343V44.2072ZM144.559 17.1651L149.067 32.1158L150.982 31.5383L146.473 16.5876L144.559 17.1651ZM131.155 7.20746C137.33 7.20746 142.776 11.2531 144.559 17.1651L146.473 16.5876C144.436 9.83106 138.212 5.20746 131.155 5.20746V7.20746ZM47.2983 7.20746L131.155 7.20746V5.20746L47.2983 5.20746V7.20746ZM165.343 42.2072C158.727 42.2072 152.893 37.8726 150.982 31.5383L149.067 32.1158C151.233 39.2946 157.845 44.2072 165.343 44.2072V42.2072ZM31.2986 311.207C31.2986 320.596 38.9097 328.207 48.2986 328.207L48.2986 326.207C40.0143 326.207 33.2986 319.491 33.2986 311.207H31.2986ZM31.2983 54.2075C31.2983 54.8728 31.2984 55.5402 31.2985 56.2074C31.2985 56.8747 31.2986 57.542 31.2986 58.2072H33.2986C33.2986 57.5419 33.2985 56.8745 33.2985 56.2072C33.2984 55.5399 33.2983 54.8727 33.2983 54.2075H31.2983Z"
                fill="#E6E6E6" mask="url(#path-1-inside-1_315_245)" />
        </mask>
        <g mask="url(#mask0_315_245)">
            <g filter="url(#filter1_dddd_315_245)">
                <mask id="path-3-inside-2_315_245" fill="white">
                    <path fill-rule="evenodd" clip-rule="evenodd"
                        d="M47.2983 6.20746C39.0141 6.20746 32.2983 12.9232 32.2983 21.2075V54.2075V54.2075C32.2983 55.5381 32.2986 56.8766 32.2986 58.2072V58.2072L32.2986 311.207C32.2986 320.044 39.462 327.207 48.2986 327.207H357.299C365.583 327.207 372.299 320.491 372.299 312.207V58.2072C372.299 49.9229 365.583 43.2072 357.299 43.2072H165.343C158.286 43.2072 152.063 38.5836 150.025 31.8271L145.516 16.8763C143.606 10.5421 137.771 6.20746 131.155 6.20746L47.2983 6.20746Z" />
                </mask>
                <path fill-rule="evenodd" clip-rule="evenodd"
                    d="M47.2983 6.20746C39.0141 6.20746 32.2983 12.9232 32.2983 21.2075V54.2075V54.2075C32.2983 55.5381 32.2986 56.8766 32.2986 58.2072V58.2072L32.2986 311.207C32.2986 320.044 39.462 327.207 48.2986 327.207H357.299C365.583 327.207 372.299 320.491 372.299 312.207V58.2072C372.299 49.9229 365.583 43.2072 357.299 43.2072H165.343C158.286 43.2072 152.063 38.5836 150.025 31.8271L145.516 16.8763C143.606 10.5421 137.771 6.20746 131.155 6.20746L47.2983 6.20746Z"
                    fill="#F1F2F4" />
                <path
                    d="M145.516 16.8763L144.559 17.1651L144.559 17.1651L145.516 16.8763ZM150.025 31.8271L149.067 32.1158L150.025 31.8271ZM33.2983 21.2075C33.2983 13.4755 39.5664 7.20746 47.2983 7.20746V5.20746C38.4618 5.20746 31.2983 12.3709 31.2983 21.2075H33.2983ZM33.2983 54.2075V21.2075H31.2983V54.2075H33.2983ZM33.2986 311.207L33.2986 58.2072H31.2986L31.2986 311.207H33.2986ZM357.299 326.207H48.2986L48.2986 328.207H357.299V326.207ZM371.299 312.207C371.299 319.939 365.031 326.207 357.299 326.207V328.207C366.135 328.207 373.299 321.044 373.299 312.207H371.299ZM371.299 58.2072V312.207H373.299V58.2072H371.299ZM357.299 44.2072C365.031 44.2072 371.299 50.4752 371.299 58.2072H373.299C373.299 49.3707 366.135 42.2072 357.299 42.2072V44.2072ZM165.343 44.2072H357.299V42.2072H165.343V44.2072ZM144.559 17.1651L149.067 32.1158L150.982 31.5383L146.473 16.5876L144.559 17.1651ZM131.155 7.20746C137.33 7.20746 142.776 11.2531 144.559 17.1651L146.473 16.5876C144.436 9.83105 138.212 5.20746 131.155 5.20746V7.20746ZM47.2983 7.20746L131.155 7.20746V5.20746L47.2983 5.20746V7.20746ZM165.343 42.2072C158.727 42.2072 152.893 37.8726 150.982 31.5383L149.067 32.1158C151.233 39.2946 157.845 44.2072 165.343 44.2072V42.2072ZM31.2986 311.207C31.2986 320.596 38.9097 328.207 48.2986 328.207L48.2986 326.207C40.0143 326.207 33.2986 319.491 33.2986 311.207H31.2986ZM31.2983 54.2075C31.2983 54.8728 31.2984 55.5402 31.2985 56.2074C31.2985 56.8747 31.2986 57.542 31.2986 58.2072H33.2986C33.2986 57.5419 33.2985 56.8745 33.2985 56.2072C33.2984 55.54 33.2983 54.8727 33.2983 54.2075H31.2983Z"
                    fill="#E6E6E6" mask="url(#path-3-inside-2_315_245)" />
            </g>
        </g>
    </g>
    <defs>
        <filter id="filter0_dddd_315_245" x="0.29834" y="0.207458" width="404" height="438" filterUnits="userSpaceOnUse"
            color-interpolation-filters="sRGB">
            <feFlood flood-opacity="0" result="BackgroundImageFix" />
            <feColorMatrix in="SourceAlpha" type="matrix" values="0 0 0 0 0 0 0 0 0 0 0 0 0 0 0 0 0 0 127 0"
                result="hardAlpha" />
            <feOffset dy="5" />
            <feGaussianBlur stdDeviation="5.5" />
            <feColorMatrix type="matrix" values="0 0 0 0 0 0 0 0 0 0 0 0 0 0 0 0 0 0 0.1 0" />
            <feBlend mode="normal" in2="BackgroundImageFix" result="effect1_dropShadow_315_245" />
            <feColorMatrix in="SourceAlpha" type="matrix" values="0 0 0 0 0 0 0 0 0 0 0 0 0 0 0 0 0 0 127 0"
                result="hardAlpha" />
            <feOffset dy="20" />
            <feGaussianBlur stdDeviation="10" />
            <feColorMatrix type="matrix" values="0 0 0 0 0 0 0 0 0 0 0 0 0 0 0 0 0 0 0.09 0" />
            <feBlend mode="normal" in2="effect1_dropShadow_315_245" result="effect2_dropShadow_315_245" />
            <feColorMatrix in="SourceAlpha" type="matrix" values="0 0 0 0 0 0 0 0 0 0 0 0 0 0 0 0 0 0 127 0"
                result="hardAlpha" />
            <feOffset dy="44" />
            <feGaussianBlur stdDeviation="13.5" />
            <feColorMatrix type="matrix" values="0 0 0 0 0 0 0 0 0 0 0 0 0 0 0 0 0 0 0.05 0" />
            <feBlend mode="normal" in2="effect2_dropShadow_315_245" result="effect3_dropShadow_315_245" />
            <feColorMatrix in="SourceAlpha" type="matrix" values="0 0 0 0 0 0 0 0 0 0 0 0 0 0 0 0 0 0 127 0"
                result="hardAlpha" />
            <feOffset dy="79" />
            <feGaussianBlur stdDeviation="16" />
            <feColorMatrix type="matrix" values="0 0 0 0 0 0 0 0 0 0 0 0 0 0 0 0 0 0 0.01 0" />
            <feBlend mode="normal" in2="effect3_dropShadow_315_245" result="effect4_dropShadow_315_245" />
            <feBlend mode="normal" in="SourceGraphic" in2="effect4_dropShadow_315_245" result="shape" />
        </filter>
        <filter id="filter1_dddd_315_245" x="0.29834" y="0.207458" width="404" height="438" filterUnits="userSpaceOnUse"
            color-interpolation-filters="sRGB">
            <feFlood flood-opacity="0" result="BackgroundImageFix" />
            <feColorMatrix in="SourceAlpha" type="matrix" values="0 0 0 0 0 0 0 0 0 0 0 0 0 0 0 0 0 0 127 0"
                result="hardAlpha" />
            <feOffset dy="5" />
            <feGaussianBlur stdDeviation="5.5" />
            <feColorMatrix type="matrix" values="0 0 0 0 0 0 0 0 0 0 0 0 0 0 0 0 0 0 0.1 0" />
            <feBlend mode="normal" in2="BackgroundImageFix" result="effect1_dropShadow_315_245" />
            <feColorMatrix in="SourceAlpha" type="matrix" values="0 0 0 0 0 0 0 0 0 0 0 0 0 0 0 0 0 0 127 0"
                result="hardAlpha" />
            <feOffset dy="20" />
            <feGaussianBlur stdDeviation="10" />
            <feColorMatrix type="matrix" values="0 0 0 0 0 0 0 0 0 0 0 0 0 0 0 0 0 0 0.09 0" />
            <feBlend mode="normal" in2="effect1_dropShadow_315_245" result="effect2_dropShadow_315_245" />
            <feColorMatrix in="SourceAlpha" type="matrix" values="0 0 0 0 0 0 0 0 0 0 0 0 0 0 0 0 0 0 127 0"
                result="hardAlpha" />
            <feOffset dy="44" />
            <feGaussianBlur stdDeviation="13.5" />
            <feColorMatrix type="matrix" values="0 0 0 0 0 0 0 0 0 0 0 0 0 0 0 0 0 0 0.05 0" />
            <feBlend mode="normal" in2="effect2_dropShadow_315_245" result="effect3_dropShadow_315_245" />
            <feColorMatrix in="SourceAlpha" type="matrix" values="0 0 0 0 0 0 0 0 0 0 0 0 0 0 0 0 0 0 127 0"
                result="hardAlpha" />
            <feOffset dy="79" />
            <feGaussianBlur stdDeviation="16" />
            <feColorMatrix type="matrix" values="0 0 0 0 0 0 0 0 0 0 0 0 0 0 0 0 0 0 0.01 0" />
            <feBlend mode="normal" in2="effect3_dropShadow_315_245" result="effect4_dropShadow_315_245" />
            <feBlend mode="normal" in="SourceGraphic" in2="effect4_dropShadow_315_245" result="shape" />
        </filter>
    </defs>
</svg>