<svg width="447" height="2" viewBox="0 0 447 2" fill="none" xmlns="http://www.w3.org/2000/svg">
    <path
        d="M1 0.24996C0.585785 0.24996 0.25 0.585747 0.25 0.99996C0.25 1.41417 0.585785 1.74996 1 1.74996L1 0.24996ZM446.95 0.25C446.536 0.25 446.2 0.585786 446.2 1C446.2 1.41421 446.536 1.75 446.95 1.75L446.95 0.25ZM440.94 1.75C441.355 1.75 441.69 1.41421 441.69 1C441.69 0.585786 441.355 0.249999 440.94 0.249999L440.94 1.75ZM440.84 0.249999C440.426 0.249999 440.09 0.585786 440.09 0.999999C440.09 1.41421 440.426 1.75 440.84 1.75L440.84 0.249999ZM434.831 1.75C435.245 1.75 435.581 1.41421 435.581 0.999999C435.581 0.585785 435.245 0.249999 434.831 0.249999L434.831 1.75ZM434.731 0.249999C434.317 0.249999 433.981 0.585785 433.981 0.999999C433.981 1.41421 434.317 1.75 434.731 1.75L434.731 0.249999ZM428.721 1.75C429.136 1.75 429.471 1.41421 429.471 0.999998C429.471 0.585785 429.136 0.249998 428.721 0.249998L428.721 1.75ZM428.621 0.249998C428.207 0.249998 427.871 0.585785 427.871 0.999998C427.871 1.41421 428.207 1.75 428.621 1.75L428.621 0.249998ZM422.612 1.75C423.026 1.75 423.362 1.41421 423.362 0.999998C423.362 0.585784 423.026 0.249998 422.612 0.249998L422.612 1.75ZM422.512 0.249998C422.097 0.249998 421.762 0.585784 421.762 0.999998C421.762 1.41421 422.097 1.75 422.512 1.75L422.512 0.249998ZM416.502 1.75C416.916 1.75 417.252 1.41421 417.252 0.999997C417.252 0.585784 416.916 0.249997 416.502 0.249997L416.502 1.75ZM416.402 0.249997C415.988 0.249997 415.652 0.585784 415.652 0.999997C415.652 1.41421 415.988 1.75 416.402 1.75L416.402 0.249997ZM410.393 1.75C410.807 1.75 411.143 1.41421 411.143 0.999997C411.143 0.585783 410.807 0.249997 410.393 0.249997L410.393 1.75ZM410.292 0.249997C409.878 0.249997 409.542 0.585783 409.542 0.999997C409.542 1.41421 409.878 1.75 410.292 1.75L410.292 0.249997ZM404.283 1.75C404.697 1.75 405.033 1.41421 405.033 0.999996C405.033 0.585783 404.697 0.249996 404.283 0.249996L404.283 1.75ZM404.183 0.249996C403.769 0.249996 403.433 0.585783 403.433 0.999996C403.433 1.41421 403.769 1.75 404.183 1.75L404.183 0.249996ZM398.173 1.75C398.588 1.75 398.923 1.41421 398.923 0.999996C398.923 0.585782 398.588 0.249996 398.173 0.249996L398.173 1.75ZM398.073 0.249996C397.659 0.249996 397.323 0.585782 397.323 0.999996C397.323 1.41421 397.659 1.75 398.073 1.75L398.073 0.249996ZM392.064 1.75C392.478 1.75 392.814 1.41421 392.814 0.999995C392.814 0.585782 392.478 0.249995 392.064 0.249995L392.064 1.75ZM391.964 0.249995C391.549 0.249995 391.214 0.585781 391.214 0.999995C391.214 1.41421 391.549 1.75 391.964 1.75L391.964 0.249995ZM385.954 1.74999C386.368 1.74999 386.704 1.41421 386.704 0.999995C386.704 0.585781 386.368 0.249995 385.954 0.249995L385.954 1.74999ZM385.854 0.249995C385.44 0.249995 385.104 0.585781 385.104 0.999994C385.104 1.41421 385.44 1.74999 385.854 1.74999L385.854 0.249995ZM379.845 1.74999C380.259 1.74999 380.595 1.41421 380.595 0.999994C380.595 0.585781 380.259 0.249994 379.845 0.249994L379.845 1.74999ZM379.744 0.249994C379.33 0.249994 378.994 0.58578 378.994 0.999994C378.994 1.41421 379.33 1.74999 379.744 1.74999L379.744 0.249994ZM373.735 1.74999C374.149 1.74999 374.485 1.41421 374.485 0.999994C374.485 0.58578 374.149 0.249994 373.735 0.249993L373.735 1.74999ZM373.635 0.249993C373.221 0.249993 372.885 0.58578 372.885 0.999993C372.885 1.41421 373.221 1.74999 373.635 1.74999L373.635 0.249993ZM367.625 1.74999C368.04 1.74999 368.375 1.41421 368.375 0.999993C368.375 0.585779 368.04 0.249993 367.625 0.249993L367.625 1.74999ZM367.525 0.249993C367.111 0.249993 366.775 0.585779 366.775 0.999993C366.775 1.41421 367.111 1.74999 367.525 1.74999L367.525 0.249993ZM361.516 1.74999C361.93 1.74999 362.266 1.41421 362.266 0.999992C362.266 0.585779 361.93 0.249992 361.516 0.249992L361.516 1.74999ZM361.416 0.249992C361.001 0.249992 360.666 0.585779 360.666 0.999992C360.666 1.41421 361.001 1.74999 361.416 1.74999L361.416 0.249992ZM355.406 1.74999C355.82 1.74999 356.156 1.41421 356.156 0.999992C356.156 0.585778 355.82 0.249992 355.406 0.249992L355.406 1.74999ZM355.306 0.249992C354.892 0.249992 354.556 0.585778 354.556 0.999992C354.556 1.41421 354.892 1.74999 355.306 1.74999L355.306 0.249992ZM349.297 1.74999C349.711 1.74999 350.047 1.4142 350.047 0.999991C350.047 0.585778 349.711 0.249991 349.297 0.249991L349.297 1.74999ZM349.197 0.249991C348.782 0.249991 348.447 0.585778 348.447 0.999991C348.447 1.4142 348.782 1.74999 349.197 1.74999L349.197 0.249991ZM343.187 1.74999C343.601 1.74999 343.937 1.4142 343.937 0.999991C343.937 0.585777 343.601 0.249991 343.187 0.249991L343.187 1.74999ZM343.087 0.249991C342.673 0.249991 342.337 0.585777 342.337 0.999991C342.337 1.4142 342.673 1.74999 343.087 1.74999L343.087 0.249991ZM337.077 1.74999C337.492 1.74999 337.827 1.4142 337.827 0.99999C337.827 0.585777 337.492 0.24999 337.077 0.24999L337.077 1.74999ZM336.977 0.24999C336.563 0.24999 336.227 0.585777 336.227 0.99999C336.227 1.4142 336.563 1.74999 336.977 1.74999L336.977 0.24999ZM330.968 1.74999C331.382 1.74999 331.718 1.4142 331.718 0.99999C331.718 0.585776 331.382 0.24999 330.968 0.24999L330.968 1.74999ZM330.868 0.24999C330.454 0.24999 330.118 0.585776 330.118 0.99999C330.118 1.4142 330.454 1.74999 330.868 1.74999L330.868 0.24999ZM324.858 1.74999C325.273 1.74999 325.608 1.4142 325.608 0.999989C325.608 0.585776 325.273 0.249989 324.858 0.249989L324.858 1.74999ZM324.758 0.249989C324.344 0.249989 324.008 0.585775 324.008 0.999989C324.008 1.4142 324.344 1.74999 324.758 1.74999L324.758 0.249989ZM318.749 1.74999C319.163 1.74999 319.499 1.4142 319.499 0.999989C319.499 0.585775 319.163 0.249989 318.749 0.249989L318.749 1.74999ZM318.649 0.249989C318.234 0.249989 317.899 0.585775 317.899 0.999988C317.899 1.4142 318.234 1.74999 318.649 1.74999L318.649 0.249989ZM312.639 1.74999C313.053 1.74999 313.389 1.4142 313.389 0.999988C313.389 0.585775 313.053 0.249988 312.639 0.249988L312.639 1.74999ZM312.539 0.249988C312.125 0.249988 311.789 0.585774 311.789 0.999988C311.789 1.4142 312.125 1.74999 312.539 1.74999L312.539 0.249988ZM306.53 1.74999C306.944 1.74999 307.28 1.4142 307.28 0.999988C307.28 0.585774 306.944 0.249988 306.53 0.249987L306.53 1.74999ZM306.429 0.249987C306.015 0.249987 305.679 0.585774 305.679 0.999987C305.679 1.4142 306.015 1.74999 306.429 1.74999L306.429 0.249987ZM300.42 1.74999C300.834 1.74999 301.17 1.4142 301.17 0.999987C301.17 0.585773 300.834 0.249987 300.42 0.249987L300.42 1.74999ZM300.32 0.249987C299.906 0.249987 299.57 0.585773 299.57 0.999987C299.57 1.4142 299.906 1.74999 300.32 1.74999L300.32 0.249987ZM294.31 1.74999C294.725 1.74999 295.06 1.4142 295.06 0.999986C295.06 0.585773 294.725 0.249986 294.31 0.249986L294.31 1.74999ZM294.21 0.249986C293.796 0.249986 293.46 0.585773 293.46 0.999986C293.46 1.4142 293.796 1.74999 294.21 1.74999L294.21 0.249986ZM288.201 1.74999C288.615 1.74999 288.951 1.4142 288.951 0.999986C288.951 0.585772 288.615 0.249986 288.201 0.249986L288.201 1.74999ZM288.101 0.249986C287.686 0.249986 287.351 0.585772 287.351 0.999986C287.351 1.4142 287.686 1.74999 288.101 1.74999L288.101 0.249986ZM282.091 1.74999C282.505 1.74999 282.841 1.4142 282.841 0.999985C282.841 0.585772 282.505 0.249985 282.091 0.249985L282.091 1.74999ZM281.991 0.249985C281.577 0.249985 281.241 0.585772 281.241 0.999985C281.241 1.4142 281.577 1.74999 281.991 1.74999L281.991 0.249985ZM275.982 1.74998C276.396 1.74998 276.732 1.4142 276.732 0.999985C276.732 0.585771 276.396 0.249985 275.982 0.249985L275.982 1.74998ZM275.881 0.249985C275.467 0.249985 275.131 0.585771 275.131 0.999985C275.131 1.4142 275.467 1.74998 275.881 1.74998L275.881 0.249985ZM269.872 1.74998C270.286 1.74998 270.622 1.4142 270.622 0.999984C270.622 0.585771 270.286 0.249984 269.872 0.249984L269.872 1.74998ZM269.772 0.249984C269.358 0.249984 269.022 0.585771 269.022 0.999984C269.022 1.4142 269.358 1.74998 269.772 1.74998L269.772 0.249984ZM263.762 1.74998C264.177 1.74998 264.512 1.4142 264.512 0.999984C264.512 0.58577 264.177 0.249984 263.762 0.249984L263.762 1.74998ZM263.662 0.249984C263.248 0.249984 262.912 0.58577 262.912 0.999984C262.912 1.4142 263.248 1.74998 263.662 1.74998L263.662 0.249984ZM257.653 1.74998C258.067 1.74998 258.403 1.4142 258.403 0.999983C258.403 0.58577 258.067 0.249983 257.653 0.249983L257.653 1.74998ZM257.553 0.249983C257.138 0.249983 256.803 0.585769 256.803 0.999983C256.803 1.4142 257.138 1.74998 257.553 1.74998L257.553 0.249983ZM251.543 1.74998C251.957 1.74998 252.293 1.4142 252.293 0.999983C252.293 0.585769 251.957 0.249983 251.543 0.249983L251.543 1.74998ZM251.443 0.249983C251.029 0.249983 250.693 0.585769 250.693 0.999982C250.693 1.4142 251.029 1.74998 251.443 1.74998L251.443 0.249983ZM245.434 1.74998C245.848 1.74998 246.184 1.4142 246.184 0.999982C246.184 0.585769 245.848 0.249982 245.434 0.249982L245.434 1.74998ZM245.333 0.249982C244.919 0.249982 244.583 0.585768 244.583 0.999982C244.583 1.4142 244.919 1.74998 245.333 1.74998L245.333 0.249982ZM239.324 1.74998C239.738 1.74998 240.074 1.4142 240.074 0.999982C240.074 0.585768 239.738 0.249982 239.324 0.249981L239.324 1.74998ZM239.224 0.249981C238.81 0.249981 238.474 0.585768 238.474 0.999981C238.474 1.41419 238.81 1.74998 239.224 1.74998L239.224 0.249981ZM233.214 1.74998C233.629 1.74998 233.964 1.41419 233.964 0.999981C233.964 0.585767 233.629 0.249981 233.214 0.249981L233.214 1.74998ZM233.114 0.249981C232.7 0.249981 232.364 0.585767 232.364 0.999981C232.364 1.41419 232.7 1.74998 233.114 1.74998L233.114 0.249981ZM227.105 1.74998C227.519 1.74998 227.855 1.41419 227.855 0.99998C227.855 0.585767 227.519 0.24998 227.105 0.24998L227.105 1.74998ZM227.005 0.24998C226.591 0.24998 226.255 0.585767 226.255 0.99998C226.255 1.41419 226.591 1.74998 227.005 1.74998L227.005 0.24998ZM220.995 1.74998C221.41 1.74998 221.745 1.41419 221.745 0.99998C221.745 0.585766 221.41 0.24998 220.995 0.24998L220.995 1.74998ZM220.895 0.24998C220.481 0.24998 220.145 0.585766 220.145 0.99998C220.145 1.41419 220.481 1.74998 220.895 1.74998L220.895 0.24998ZM214.886 1.74998C215.3 1.74998 215.636 1.41419 215.636 0.999979C215.636 0.585766 215.3 0.249979 214.886 0.249979L214.886 1.74998ZM214.786 0.249979C214.371 0.249979 214.036 0.585766 214.036 0.999979C214.036 1.41419 214.371 1.74998 214.786 1.74998L214.786 0.249979ZM208.776 1.74998C209.19 1.74998 209.526 1.41419 209.526 0.999979C209.526 0.585765 209.19 0.249979 208.776 0.249979L208.776 1.74998ZM208.676 0.249979C208.262 0.249979 207.926 0.585765 207.926 0.999979C207.926 1.41419 208.262 1.74998 208.676 1.74998L208.676 0.249979ZM202.667 1.74998C203.081 1.74998 203.417 1.41419 203.417 0.999978C203.417 0.585765 203.081 0.249978 202.667 0.249978L202.667 1.74998ZM202.566 0.249978C202.152 0.249978 201.816 0.585765 201.816 0.999978C201.816 1.41419 202.152 1.74998 202.566 1.74998L202.566 0.249978ZM196.557 1.74998C196.971 1.74998 197.307 1.41419 197.307 0.999978C197.307 0.585764 196.971 0.249978 196.557 0.249978L196.557 1.74998ZM196.457 0.249978C196.043 0.249978 195.707 0.585764 195.707 0.999978C195.707 1.41419 196.043 1.74998 196.457 1.74998L196.457 0.249978ZM190.447 1.74998C190.862 1.74998 191.197 1.41419 191.197 0.999977C191.197 0.585764 190.862 0.249977 190.447 0.249977L190.447 1.74998ZM190.347 0.249977C189.933 0.249977 189.597 0.585763 189.597 0.999977C189.597 1.41419 189.933 1.74998 190.347 1.74998L190.347 0.249977ZM184.338 1.74998C184.752 1.74998 185.088 1.41419 185.088 0.999977C185.088 0.585763 184.752 0.249977 184.338 0.249977L184.338 1.74998ZM184.238 0.249977C183.823 0.249977 183.488 0.585763 183.488 0.999976C183.488 1.41419 183.823 1.74998 184.238 1.74998L184.238 0.249977ZM178.228 1.74998C178.642 1.74998 178.978 1.41419 178.978 0.999976C178.978 0.585763 178.642 0.249976 178.228 0.249976L178.228 1.74998ZM178.128 0.249976C177.714 0.249976 177.378 0.585762 177.378 0.999976C177.378 1.41419 177.714 1.74998 178.128 1.74998L178.128 0.249976ZM172.119 1.74998C172.533 1.74998 172.869 1.41419 172.869 0.999976C172.869 0.585762 172.533 0.249976 172.119 0.249975L172.119 1.74998ZM172.018 0.249975C171.604 0.249975 171.268 0.585762 171.268 0.999975C171.268 1.41419 171.604 1.74998 172.018 1.74998L172.018 0.249975ZM166.009 1.74997C166.423 1.74997 166.759 1.41419 166.759 0.999975C166.759 0.585761 166.423 0.249975 166.009 0.249975L166.009 1.74997ZM165.909 0.249975C165.495 0.249975 165.159 0.585761 165.159 0.999975C165.159 1.41419 165.495 1.74997 165.909 1.74997L165.909 0.249975ZM159.899 1.74997C160.314 1.74997 160.649 1.41419 160.649 0.999974C160.649 0.585761 160.314 0.249974 159.899 0.249974L159.899 1.74997ZM159.799 0.249974C159.385 0.249974 159.049 0.585761 159.049 0.999974C159.049 1.41419 159.385 1.74997 159.799 1.74997L159.799 0.249974ZM153.79 1.74997C154.204 1.74997 154.54 1.41419 154.54 0.999974C154.54 0.58576 154.204 0.249974 153.79 0.249974L153.79 1.74997ZM153.69 0.249974C153.275 0.249974 152.94 0.58576 152.94 0.999974C152.94 1.41419 153.275 1.74997 153.69 1.74997L153.69 0.249974ZM147.68 1.74997C148.094 1.74997 148.43 1.41419 148.43 0.999973C148.43 0.58576 148.094 0.249973 147.68 0.249973L147.68 1.74997ZM147.58 0.249973C147.166 0.249973 146.83 0.58576 146.83 0.999973C146.83 1.41419 147.166 1.74997 147.58 1.74997L147.58 0.249973ZM141.571 1.74997C141.985 1.74997 142.321 1.41419 142.321 0.999973C142.321 0.585759 141.985 0.249973 141.571 0.249973L141.571 1.74997ZM141.47 0.249973C141.056 0.249973 140.72 0.585759 140.72 0.999973C140.72 1.41419 141.056 1.74997 141.47 1.74997L141.47 0.249973ZM135.461 1.74997C135.875 1.74997 136.211 1.41419 136.211 0.999972C136.211 0.585759 135.875 0.249972 135.461 0.249972L135.461 1.74997ZM135.361 0.249972C134.947 0.249972 134.611 0.585759 134.611 0.999972C134.611 1.41419 134.947 1.74997 135.361 1.74997L135.361 0.249972ZM129.351 1.74997C129.766 1.74997 130.101 1.41419 130.101 0.999972C130.101 0.585758 129.766 0.249972 129.351 0.249972L129.351 1.74997ZM129.251 0.249972C128.837 0.249972 128.501 0.585758 128.501 0.999972C128.501 1.41419 128.837 1.74997 129.251 1.74997L129.251 0.249972ZM123.242 1.74997C123.656 1.74997 123.992 1.41418 123.992 0.999971C123.992 0.585758 123.656 0.249971 123.242 0.249971L123.242 1.74997ZM123.142 0.249971C122.728 0.249971 122.392 0.585757 122.392 0.999971C122.392 1.41418 122.728 1.74997 123.142 1.74997L123.142 0.249971ZM117.132 1.74997C117.547 1.74997 117.882 1.41418 117.882 0.999971C117.882 0.585757 117.547 0.249971 117.132 0.249971L117.132 1.74997ZM117.032 0.249971C116.618 0.249971 116.282 0.585757 116.282 0.999971C116.282 1.41418 116.618 1.74997 117.032 1.74997L117.032 0.249971ZM111.023 1.74997C111.437 1.74997 111.773 1.41418 111.773 0.99997C111.773 0.585757 111.437 0.24997 111.023 0.24997L111.023 1.74997ZM110.923 0.24997C110.508 0.24997 110.173 0.585756 110.173 0.99997C110.173 1.41418 110.508 1.74997 110.923 1.74997L110.923 0.24997ZM104.913 1.74997C105.327 1.74997 105.663 1.41418 105.663 0.99997C105.663 0.585756 105.327 0.24997 104.913 0.249969L104.913 1.74997ZM104.813 0.249969C104.399 0.249969 104.063 0.585756 104.063 0.999969C104.063 1.41418 104.399 1.74997 104.813 1.74997L104.813 0.249969ZM98.8035 1.74997C99.2177 1.74997 99.5535 1.41418 99.5535 0.999969C99.5535 0.585755 99.2177 0.249969 98.8035 0.249969L98.8035 1.74997ZM98.7034 0.249969C98.2892 0.249969 97.9534 0.585755 97.9534 0.999969C97.9534 1.41418 98.2892 1.74997 98.7034 1.74997L98.7034 0.249969ZM92.6939 1.74997C93.1082 1.74997 93.4439 1.41418 93.4439 0.999968C93.4439 0.585755 93.1082 0.249968 92.6939 0.249968L92.6939 1.74997ZM92.5938 0.249968C92.1796 0.249968 91.8438 0.585755 91.8438 0.999968C91.8438 1.41418 92.1796 1.74997 92.5938 1.74997L92.5938 0.249968ZM86.5844 1.74997C86.9986 1.74997 87.3344 1.41418 87.3344 0.999968C87.3344 0.585754 86.9986 0.249968 86.5844 0.249968L86.5844 1.74997ZM86.4842 0.249968C86.07 0.249968 85.7342 0.585754 85.7342 0.999968C85.7342 1.41418 86.07 1.74997 86.4842 1.74997L86.4842 0.249968ZM80.4748 1.74997C80.889 1.74997 81.2248 1.41418 81.2248 0.999967C81.2248 0.585754 80.889 0.249967 80.4748 0.249967L80.4748 1.74997ZM80.3746 0.249967C79.9604 0.249967 79.6246 0.585754 79.6246 0.999967C79.6246 1.41418 79.9604 1.74997 80.3746 1.74997L80.3746 0.249967ZM74.3652 1.74997C74.7794 1.74997 75.1152 1.41418 75.1152 0.999967C75.1152 0.585753 74.7794 0.249967 74.3652 0.249967L74.3652 1.74997ZM74.265 0.249967C73.8508 0.249967 73.515 0.585753 73.515 0.999967C73.515 1.41418 73.8508 1.74997 74.265 1.74997L74.265 0.249967ZM68.2556 1.74997C68.6698 1.74997 69.0056 1.41418 69.0056 0.999966C69.0056 0.585753 68.6698 0.249966 68.2556 0.249966L68.2556 1.74997ZM68.1554 0.249966C67.7412 0.249966 67.4054 0.585753 67.4054 0.999966C67.4054 1.41418 67.7412 1.74997 68.1554 1.74997L68.1554 0.249966ZM62.146 1.74997C62.5602 1.74997 62.896 1.41418 62.896 0.999966C62.896 0.585752 62.5602 0.249966 62.146 0.249966L62.146 1.74997ZM62.0458 0.249966C61.6316 0.249966 61.2958 0.585752 61.2958 0.999966C61.2958 1.41418 61.6316 1.74997 62.0458 1.74997L62.0458 0.249966ZM56.0364 1.74997C56.4506 1.74997 56.7864 1.41418 56.7864 0.999965C56.7864 0.585752 56.4506 0.249965 56.0364 0.249965L56.0364 1.74997ZM55.9362 0.249965C55.522 0.249965 55.1862 0.585751 55.1862 0.999965C55.1862 1.41418 55.522 1.74997 55.9362 1.74997L55.9362 0.249965ZM49.9268 1.74996C50.341 1.74996 50.6768 1.41418 50.6768 0.999965C50.6768 0.585751 50.341 0.249965 49.9268 0.249965L49.9268 1.74996ZM49.8267 0.249965C49.4124 0.249965 49.0767 0.585751 49.0767 0.999965C49.0767 1.41418 49.4124 1.74996 49.8267 1.74996L49.8267 0.249965ZM43.8172 1.74996C44.2314 1.74996 44.5672 1.41418 44.5672 0.999964C44.5672 0.585751 44.2314 0.249964 43.8172 0.249964L43.8172 1.74996ZM43.7171 0.249964C43.3029 0.249964 42.9671 0.58575 42.9671 0.999964C42.9671 1.41418 43.3029 1.74996 43.7171 1.74996L43.7171 0.249964ZM37.7076 1.74996C38.1219 1.74996 38.4576 1.41418 38.4576 0.999964C38.4576 0.58575 38.1219 0.249964 37.7076 0.249963L37.7076 1.74996ZM37.6075 0.249963C37.1933 0.249963 36.8575 0.58575 36.8575 0.999963C36.8575 1.41418 37.1933 1.74996 37.6075 1.74996L37.6075 0.249963ZM31.5981 1.74996C32.0123 1.74996 32.3481 1.41418 32.3481 0.999963C32.3481 0.585749 32.0123 0.249963 31.5981 0.249963L31.5981 1.74996ZM31.4979 0.249963C31.0837 0.249963 30.7479 0.585749 30.7479 0.999963C30.7479 1.41418 31.0837 1.74996 31.4979 1.74996L31.4979 0.249963ZM25.4885 1.74996C25.9026 1.74996 26.2385 1.41418 26.2385 0.999962C26.2385 0.585749 25.9026 0.249962 25.4885 0.249962L25.4885 1.74996ZM25.3883 0.249962C24.9741 0.249962 24.6383 0.585749 24.6383 0.999962C24.6383 1.41418 24.9741 1.74996 25.3883 1.74996L25.3883 0.249962ZM19.3789 1.74996C19.7931 1.74996 20.1289 1.41418 20.1289 0.999962C20.1289 0.585748 19.7931 0.249962 19.3789 0.249962L19.3789 1.74996ZM19.2787 0.249962C18.8645 0.249962 18.5287 0.585748 18.5287 0.999962C18.5287 1.41418 18.8645 1.74996 19.2787 1.74996L19.2787 0.249962ZM13.2693 1.74996C13.6835 1.74996 14.0193 1.41417 14.0193 0.999961C14.0193 0.585748 13.6835 0.249961 13.2693 0.249961L13.2693 1.74996ZM13.1691 0.249961C12.7549 0.249961 12.4191 0.585748 12.4191 0.999961C12.4191 1.41417 12.7549 1.74996 13.1691 1.74996L13.1691 0.249961ZM7.1597 1.74996C7.57391 1.74996 7.9097 1.41417 7.9097 0.999961C7.9097 0.585747 7.57391 0.249961 7.1597 0.249961L7.1597 1.74996ZM7.05954 0.249961C6.64532 0.249961 6.30954 0.585747 6.30954 0.999961C6.30954 1.41417 6.64532 1.74996 7.05954 1.74996L7.05954 0.249961ZM1.05011 1.74996C1.46432 1.74996 1.80011 1.41417 1.80011 0.99996C1.80011 0.585747 1.46433 0.24996 1.05011 0.24996L1.05011 1.74996ZM447 0.25L446.95 0.25L446.95 1.75L447 1.75L447 0.25ZM440.94 0.249999L440.84 0.249999L440.84 1.75L440.94 1.75L440.94 0.249999ZM434.831 0.249999L434.731 0.249999L434.731 1.75L434.831 1.75L434.831 0.249999ZM428.721 0.249998L428.621 0.249998L428.621 1.75L428.721 1.75L428.721 0.249998ZM422.612 0.249998L422.512 0.249998L422.512 1.75L422.612 1.75L422.612 0.249998ZM416.502 0.249997L416.402 0.249997L416.402 1.75L416.502 1.75L416.502 0.249997ZM410.393 0.249997L410.292 0.249997L410.292 1.75L410.393 1.75L410.393 0.249997ZM404.283 0.249996L404.183 0.249996L404.183 1.75L404.283 1.75L404.283 0.249996ZM398.173 0.249996L398.073 0.249996L398.073 1.75L398.173 1.75L398.173 0.249996ZM392.064 0.249995L391.964 0.249995L391.964 1.75L392.064 1.75L392.064 0.249995ZM385.954 0.249995L385.854 0.249995L385.854 1.74999L385.954 1.74999L385.954 0.249995ZM379.845 0.249994L379.744 0.249994L379.744 1.74999L379.845 1.74999L379.845 0.249994ZM373.735 0.249993L373.635 0.249993L373.635 1.74999L373.735 1.74999L373.735 0.249993ZM367.625 0.249993L367.525 0.249993L367.525 1.74999L367.625 1.74999L367.625 0.249993ZM361.516 0.249992L361.416 0.249992L361.416 1.74999L361.516 1.74999L361.516 0.249992ZM355.406 0.249992L355.306 0.249992L355.306 1.74999L355.406 1.74999L355.406 0.249992ZM349.297 0.249991L349.197 0.249991L349.197 1.74999L349.297 1.74999L349.297 0.249991ZM343.187 0.249991L343.087 0.249991L343.087 1.74999L343.187 1.74999L343.187 0.249991ZM337.077 0.24999L336.977 0.24999L336.977 1.74999L337.077 1.74999L337.077 0.24999ZM330.968 0.24999L330.868 0.24999L330.868 1.74999L330.968 1.74999L330.968 0.24999ZM324.858 0.249989L324.758 0.249989L324.758 1.74999L324.858 1.74999L324.858 0.249989ZM318.749 0.249989L318.649 0.249989L318.649 1.74999L318.749 1.74999L318.749 0.249989ZM312.639 0.249988L312.539 0.249988L312.539 1.74999L312.639 1.74999L312.639 0.249988ZM306.53 0.249987L306.429 0.249987L306.429 1.74999L306.53 1.74999L306.53 0.249987ZM300.42 0.249987L300.32 0.249987L300.32 1.74999L300.42 1.74999L300.42 0.249987ZM294.31 0.249986L294.21 0.249986L294.21 1.74999L294.31 1.74999L294.31 0.249986ZM288.201 0.249986L288.101 0.249986L288.101 1.74999L288.201 1.74999L288.201 0.249986ZM282.091 0.249985L281.991 0.249985L281.991 1.74999L282.091 1.74999L282.091 0.249985ZM275.982 0.249985L275.881 0.249985L275.881 1.74998L275.982 1.74998L275.982 0.249985ZM269.872 0.249984L269.772 0.249984L269.772 1.74998L269.872 1.74998L269.872 0.249984ZM263.762 0.249984L263.662 0.249984L263.662 1.74998L263.762 1.74998L263.762 0.249984ZM257.653 0.249983L257.553 0.249983L257.553 1.74998L257.653 1.74998L257.653 0.249983ZM251.543 0.249983L251.443 0.249983L251.443 1.74998L251.543 1.74998L251.543 0.249983ZM245.434 0.249982L245.333 0.249982L245.333 1.74998L245.434 1.74998L245.434 0.249982ZM239.324 0.249981L239.224 0.249981L239.224 1.74998L239.324 1.74998L239.324 0.249981ZM233.214 0.249981L233.114 0.249981L233.114 1.74998L233.214 1.74998L233.214 0.249981ZM227.105 0.24998L227.005 0.24998L227.005 1.74998L227.105 1.74998L227.105 0.24998ZM220.995 0.24998L220.895 0.24998L220.895 1.74998L220.995 1.74998L220.995 0.24998ZM214.886 0.249979L214.786 0.249979L214.786 1.74998L214.886 1.74998L214.886 0.249979ZM208.776 0.249979L208.676 0.249979L208.676 1.74998L208.776 1.74998L208.776 0.249979ZM202.667 0.249978L202.566 0.249978L202.566 1.74998L202.667 1.74998L202.667 0.249978ZM196.557 0.249978L196.457 0.249978L196.457 1.74998L196.557 1.74998L196.557 0.249978ZM190.447 0.249977L190.347 0.249977L190.347 1.74998L190.447 1.74998L190.447 0.249977ZM184.338 0.249977L184.238 0.249977L184.238 1.74998L184.338 1.74998L184.338 0.249977ZM178.228 0.249976L178.128 0.249976L178.128 1.74998L178.228 1.74998L178.228 0.249976ZM172.119 0.249975L172.018 0.249975L172.018 1.74998L172.119 1.74998L172.119 0.249975ZM166.009 0.249975L165.909 0.249975L165.909 1.74997L166.009 1.74997L166.009 0.249975ZM159.899 0.249974L159.799 0.249974L159.799 1.74997L159.899 1.74997L159.899 0.249974ZM153.79 0.249974L153.69 0.249974L153.69 1.74997L153.79 1.74997L153.79 0.249974ZM147.68 0.249973L147.58 0.249973L147.58 1.74997L147.68 1.74997L147.68 0.249973ZM141.571 0.249973L141.47 0.249973L141.47 1.74997L141.571 1.74997L141.571 0.249973ZM135.461 0.249972L135.361 0.249972L135.361 1.74997L135.461 1.74997L135.461 0.249972ZM129.351 0.249972L129.251 0.249972L129.251 1.74997L129.351 1.74997L129.351 0.249972ZM123.242 0.249971L123.142 0.249971L123.142 1.74997L123.242 1.74997L123.242 0.249971ZM117.132 0.249971L117.032 0.249971L117.032 1.74997L117.132 1.74997L117.132 0.249971ZM111.023 0.24997L110.923 0.24997L110.923 1.74997L111.023 1.74997L111.023 0.24997ZM104.913 0.249969L104.813 0.249969L104.813 1.74997L104.913 1.74997L104.913 0.249969ZM98.8035 0.249969L98.7034 0.249969L98.7034 1.74997L98.8035 1.74997L98.8035 0.249969ZM92.6939 0.249968L92.5938 0.249968L92.5938 1.74997L92.6939 1.74997L92.6939 0.249968ZM86.5844 0.249968L86.4842 0.249968L86.4842 1.74997L86.5844 1.74997L86.5844 0.249968ZM80.4748 0.249967L80.3746 0.249967L80.3746 1.74997L80.4748 1.74997L80.4748 0.249967ZM74.3652 0.249967L74.265 0.249967L74.265 1.74997L74.3652 1.74997L74.3652 0.249967ZM68.2556 0.249966L68.1554 0.249966L68.1554 1.74997L68.2556 1.74997L68.2556 0.249966ZM62.146 0.249966L62.0458 0.249966L62.0458 1.74997L62.146 1.74997L62.146 0.249966ZM56.0364 0.249965L55.9362 0.249965L55.9362 1.74997L56.0364 1.74997L56.0364 0.249965ZM49.9268 0.249965L49.8267 0.249965L49.8267 1.74996L49.9268 1.74996L49.9268 0.249965ZM43.8172 0.249964L43.7171 0.249964L43.7171 1.74996L43.8172 1.74996L43.8172 0.249964ZM37.7076 0.249963L37.6075 0.249963L37.6075 1.74996L37.7076 1.74996L37.7076 0.249963ZM31.5981 0.249963L31.4979 0.249963L31.4979 1.74996L31.5981 1.74996L31.5981 0.249963ZM25.4885 0.249962L25.3883 0.249962L25.3883 1.74996L25.4885 1.74996L25.4885 0.249962ZM19.3789 0.249962L19.2787 0.249962L19.2787 1.74996L19.3789 1.74996L19.3789 0.249962ZM13.2693 0.249961L13.1691 0.249961L13.1691 1.74996L13.2693 1.74996L13.2693 0.249961ZM7.1597 0.249961L7.05954 0.249961L7.05954 1.74996L7.1597 1.74996L7.1597 0.249961ZM1.05011 0.24996L1 0.24996L1 1.74996L1.05011 1.74996L1.05011 0.24996Z"
        fill="#101010" />
</svg>